<svg width="800" height="800" viewBox="0 0 800 800" fill="none" xmlns="http://www.w3.org/2000/svg">
<path fill-rule="evenodd" clip-rule="evenodd" d="M406.316 171.104C406.316 95.451 465.853 33.7034 540.63 30.1605C541.108 30.0554 541.604 30 542.114 30C542.438 30 542.757 30.0224 543.069 30.0658C544.514 30.022 545.964 30 547.42 30C625.35 30 688.524 93.1746 688.524 171.104V418.135C688.524 421.934 685.445 425.014 681.646 425.014C677.847 425.014 674.768 421.934 674.768 418.135V251.876H548.992V284.499C548.992 286.527 548.115 346.254 546.719 347.513L535.236 331.6V251.876H420.072V322.035C420.072 322.79 419.951 343.723 419.726 344.403H406.316V171.104ZM420.072 171.104C420.072 104.882 470.619 50.4656 535.236 44.332V238.119H420.072V171.104ZM548.992 43.7662V238.119H674.768V171.104C674.768 101.297 618.6 44.6083 548.992 43.7662Z" fill="#FADCBA"/>
<path d="M172.058 767.949C149.262 779.583 127.185 748.559 118.997 731.592L130.788 717.246L146.314 707.813H160.463L183.064 695.235L193.676 682.854L210.774 665.56L237.108 663.202L269.141 702.114L265.407 704.668L251.651 709.385L233.374 728.448C222.434 736.767 194.855 756.315 172.058 767.949Z" fill="white"/>
<mask id="mask0_2765_9440" style="mask-type:alpha" maskUnits="userSpaceOnUse" x="345" y="670" width="122" height="93">
<path d="M381.75 762.248L449.747 757.925L458.787 755.56L466.729 745.501V675.974L458.787 670.275H446.013C427.671 674.271 386.388 683.835 367.993 690.124C349.598 696.413 346.048 706.632 346.572 710.955C345.917 715.082 345.196 727.581 347.555 744.561C349.913 761.541 371.334 763.427 381.75 762.248Z" fill="#F03F94"/>
</mask>
<g mask="url(#mask0_2765_9440)">
<path d="M381.75 762.248L449.747 757.925L458.787 755.56L466.729 745.501V675.974L458.787 670.275H446.013C427.671 674.271 386.388 683.835 367.993 690.124C349.598 696.413 346.048 706.632 346.572 710.955C345.917 715.082 345.196 727.581 347.555 744.561C349.913 761.541 371.334 763.427 381.75 762.248Z" fill="#F03F94"/>
<path d="M446.793 679.474L468.924 666.488L492.335 685.876L482.824 753.182L458.681 763.608L446.793 753.182L435.087 740.928L426.308 725.565L425.211 717.883L431.978 696.484L446.793 679.474Z" fill="#651A3E"/>
</g>
<path d="M500.843 717.834L448.175 756.157L427.343 731.788L424.199 722.355L427.343 705.257L439.724 690.125C462.259 684.229 507.997 672.28 510.67 671.651C513.342 671.022 514.928 686.849 515.386 694.841L548.795 696.02L546.437 717.834H500.843Z" fill="white"/>
<mask id="mask1_2765_9440" style="mask-type:alpha" maskUnits="userSpaceOnUse" x="412" y="264" width="146" height="143">
<path d="M414.176 365.859C408.831 348.879 418.762 339.393 424.395 336.773L438.545 319.872L451.319 304.543C452.761 303.823 455.643 300.377 455.643 292.359C455.643 282.336 454.267 282.532 487.873 268.186C521.478 253.84 547.022 284.373 552.328 297.54C557.634 310.707 554.49 301.274 547.022 316.603C541.048 328.866 549.385 329.436 555.084 328.715C556.329 333.825 558.504 346.835 557.246 357.998C555.674 371.951 542.507 379.026 530.912 386.297C529.339 376.392 520.037 380.205 515.583 383.349C513.487 386.952 509.726 390.66 511.456 376.667C513.185 362.675 503.136 363.631 497.896 365.859C495.275 367.824 490.899 369.003 494.358 357.998C497.817 346.992 487.021 346.599 481.191 347.778L436.973 406.539C431.601 400.054 419.522 382.838 414.176 365.859Z" fill="#FFFFFE"/>
</mask>
<g mask="url(#mask1_2765_9440)">
<rect x="310.259" y="214.918" width="807.9" height="667.253" fill="#651A3E"/>
<path d="M459.18 318.299C460.909 308.08 458.459 298.057 457.018 294.323C452.695 283.121 455.839 280.37 476.671 271.133C510.286 256.229 533.48 267.675 547.237 277.698C558.242 285.716 561.916 318.433 561.654 331.6L559.997 359.176L548.992 378.435L537.986 382.955L520.299 387.869C512.045 384.724 490.231 375.763 469.006 365.072C442.476 351.708 457.018 331.073 459.18 318.299Z" fill="#F7CB98"/>
<path d="M425.574 339.524C424.474 353.831 444.244 376.929 454.267 386.689L449.55 392.192C449.55 393.109 447.074 396.869 437.169 404.573C406.512 377.06 413.193 359.766 412.8 354.066C412.407 348.367 425.574 328.715 425.574 339.524Z" fill="#F7CB98"/>
<path d="M457.805 330.091C460.477 317.199 458.001 307.163 456.429 303.757C442.279 301.988 443.458 316.924 443.655 325.768C443.812 332.843 435.728 348.892 431.667 356.032L444.598 366.352L452.891 386.69C453.481 384.725 456.743 377.178 465.076 362.714C452.302 350.53 454.464 346.206 457.805 330.091Z" fill="#EE8E1F"/>
</g>
<mask id="mask2_2765_9440" style="mask-type:alpha" maskUnits="userSpaceOnUse" x="54" y="139" width="376" height="454">
<path d="M148.673 591.469C123.675 598.544 126.465 563.104 130.985 544.5C122.142 561.401 103.079 574.568 72.8142 560.812C48.6024 549.806 68.3597 520.59 81.2648 507.357C85.2608 503.558 91.9557 495.959 86.7674 495.959C81.5792 495.959 69.8008 490.194 64.5601 487.312C38.8154 449.186 66.329 435.429 96.397 423.048C136.316 406.611 149.262 348.172 145.332 339.132C108.975 246.373 169.807 199.126 206.098 191.134C208.719 182.028 226.339 160.924 253.223 146.145C286.829 127.672 300.979 151.648 320.828 178.768C349.127 174.445 374.153 191.007 379.852 203.388C391.329 240.806 375.658 266.222 358.953 265.043C364.653 284.892 404.744 319.48 416.142 322.624C427.54 325.769 434.812 332.45 424.003 336.97C406.237 353.164 411.36 370.052 416.142 376.472L406.316 407.916C380.768 419.052 317.29 443.29 267.766 451.151C218.242 459.012 192.628 522.293 186.012 552.951C183.981 562.842 173.67 584.394 148.673 591.469Z" fill="#FFFFFE"/>
</mask>
<g mask="url(#mask2_2765_9440)">
<rect x="-171.369" y="139.742" width="1988.68" height="1918.35" fill="#F365A9"/>
<path d="M262.067 247.159C270.871 246.216 283.423 259.606 288.598 266.418C295.515 290.63 288.729 309.13 284.471 315.353L269.338 340.901L239.663 356.623L233.716 358.852C237.515 345.816 250.59 308.514 265.211 294.521C276.267 283.941 268.77 269.262 263.556 259.053C260.15 252.385 257.719 247.625 262.067 247.159Z" fill="#DA3987"/>
<path d="M360.525 271.725C363.161 274.736 366.567 278.564 370.249 282.607C380.664 294.042 393.282 307.197 396.882 308.475C402.975 310.636 416.731 347.779 418.5 357.999C419.915 366.174 411.622 394.29 407.298 407.326H376.837L356.005 280.568L357.185 270.349L359.087 271.132L360.525 271.725Z" fill="#DA3987"/>
<path d="M207.04 431.302C214.77 438.05 224.138 462.432 199.769 505.981C175.4 549.531 238.615 513.384 273.269 489.866L290.956 435.036C288.074 424.555 280.501 403.592 273.269 403.592C266.037 403.592 226.103 422.066 207.04 431.302Z" fill="#DA3987"/>
<path d="M186.208 395.928C179.762 410.392 179.461 417.808 180.116 419.707L182.868 435.036L176.579 474.144C172.648 482.988 164.709 500.95 164.394 502.051C164.001 503.427 156.926 516.004 150.834 520.721C148.684 522.386 147.341 524.026 145.078 526.792C140.93 531.861 131.422 558.257 110.442 577.965C86.8132 571.807 102.913 542.677 122.5 526.275C129.793 520.168 137.884 513.393 145.135 505.981C165.812 484.848 172.418 425.867 173.278 396.291C173.335 394.356 173.062 392.43 172.423 390.603C167.028 375.157 155.938 354.466 150.834 346.049L182.868 364.484L197.214 373.524C196.231 374.965 192.654 381.464 186.208 395.928Z" fill="#DA3987"/>
<path d="M148.869 356.623C138.977 398.155 108.542 485.307 74.5827 489.866C40.6233 494.426 70.7832 497.007 90.1081 497.727L108.582 488.687L129.61 457.243L145.135 413.812L148.869 393.373L150.834 373.524L148.869 356.623Z" fill="#DA3987"/>
<path d="M318.076 218.709C320.762 212.748 324.915 197.956 320.042 186.479C316.926 179.142 318.642 176.482 321.221 177.081L327.815 154.989L315.521 124.724L272.09 120.794L225.12 167.174C244.576 159.116 286.239 148.661 297.245 171.301C311.001 199.6 296.459 221.507 318.076 218.709Z" fill="#DA3987"/>
<path d="M360.525 271.725C363.161 274.736 366.567 278.564 370.249 282.607C377.517 279.236 383.6 275.462 389.729 266.418C382.863 243.487 361.407 195.949 318.076 218.709C332.324 217.504 360.456 224.75 359.002 263.379C358.891 266.325 358.925 268.899 359.087 271.132L360.525 271.725Z" fill="#DA3987"/>
<path d="M145.135 247.159C177.051 209.269 190.204 233.14 207.04 247.159C200.977 210.521 196.039 206.497 209.025 184.732L207.04 175.035L125.09 196.063C118.473 228.882 113.219 285.049 145.135 247.159Z" fill="#DA3987"/>
</g>
<mask id="mask3_2765_9440" style="mask-type:alpha" maskUnits="userSpaceOnUse" x="185" y="404" width="423" height="265">
<path d="M360.722 484.169C336.353 487.628 293.052 453.642 274.448 436.217L273.269 451.939C273.007 452.463 268.788 453.433 254.009 453.118C239.231 452.804 216.015 481.811 206.254 496.353C173.631 537.427 188.174 564.351 192.694 577.125C198.108 592.426 234.815 617.543 255.188 627.632C278.64 640.995 331.833 667.88 356.988 668.509C382.143 669.138 413.194 640.864 425.575 626.649C428.457 622.85 436.973 613.403 447.979 606.014C460.753 611.32 512.439 623.701 531.501 620.557C550.564 617.412 579.453 603.066 598.32 571.033C617.186 538.999 601.464 472.771 599.892 453.511C598.634 438.104 587.445 436.217 582.008 437.2L521.782 437.2C516.148 444.93 504.892 465.421 500.647 469.037C496.797 472.317 484.046 491.017 476.138 501.33C473.716 495.878 439.725 480.769 423.032 473.895C426.308 450.408 411.949 432.308 409.067 428.946C406.237 425.644 406.578 413.551 407.102 407.918C397.799 405.166 378.527 401.314 375.854 407.918C373.182 414.521 354.826 428.88 345.983 435.234C352.14 449.712 363.709 479.767 360.722 484.169Z" fill="#A1B3B8"/>
</mask>
<g mask="url(#mask3_2765_9440)">
<rect x="147.493" y="397.502" width="498.385" height="277.492" fill="#F7CB98"/>
<path d="M367.207 419.906C371.531 418.137 380.414 417.862 381.357 430.911C382.3 443.96 384.635 458.972 384.242 464.933L392.166 468.05L423.217 476.505L477.064 495.764V505.197L485.122 512.469C488.004 513.189 492.904 516.753 489.445 525.243C489.246 525.733 489.004 526.329 488.724 527.021C486.482 551.81 452.593 606.498 439.66 613.996C455.185 622.053 515.835 641.863 548.851 627.713C581.867 613.564 623.555 571.372 622.376 535.408C621.433 506.637 608.953 461.596 606.464 445.546C606.595 441.157 597.328 422.103 585.065 424.147C572.802 426.191 537.162 436.074 521.965 436.401L404.547 407.132C396.162 406.477 378.684 405.756 375.854 408.114C373.024 410.473 368.911 416.958 367.207 419.906Z" fill="#F1A54C"/>
<path d="M268.658 467.089C265.344 480.296 258.363 508.114 264.425 511.289C267.601 512.953 272.87 514.238 278.287 515.559C286.95 517.672 291.89 518.007 293.341 521.998C293.881 523.483 292.328 529.437 290.049 535.349C282.373 555.258 274.815 598.176 307.241 624.238C302.328 594.563 301.647 570.183 316.386 550.53C328.178 534.808 341.244 517.251 347.074 511.289L352.6 502.062L278.487 491.637L272.002 484.955V459.995C271.776 460.914 268.954 465.909 268.658 467.089Z" fill="#F1A54C"/>
<path d="M423.217 476.505L392.166 468.05C399.896 475.519 415.592 490.458 416.535 490.458C417.478 490.458 421.382 481.156 423.217 476.505Z" fill="#F1A54C"/>
<path d="M424.297 474.628C408.086 468.827 391.748 464.933 379.121 464.933C401.983 489.442 461.569 513.411 489.592 515.048C483.521 503.817 453.402 485.045 424.297 474.628Z" fill="#651A3E" stroke="#651A3E" stroke-width="6" stroke-linecap="round" stroke-linejoin="round"/>
</g>
<mask id="mask4_2765_9440" style="mask-type:alpha" maskUnits="userSpaceOnUse" x="406" y="292" width="208" height="218">
<path d="M472.741 508.929C468.025 512.545 433.829 497.989 417.321 490.259C432.847 471.589 423.02 455.474 411.229 433.267C401.796 415.501 409.788 389.049 414.963 378.043L439.135 405.753C450.075 390.752 473.37 358.941 479.03 351.709C484.69 344.477 492.656 348.696 495.931 351.709C493.769 359.112 491.096 372.541 497.7 367.038C504.303 361.535 509.753 366.58 511.653 369.789C510.932 375.685 510.788 386.533 515.976 382.76C521.165 378.987 525.999 381.188 527.768 382.76C528.357 384.463 530.794 387.555 535.825 386.297C559.723 374.663 559.408 349.482 556.264 338.346V329.895L554.299 327.93H543.883L541.328 318.693L550.368 309.653L582.598 292.359L594.21 298.313L593.21 318.693H606.378L612.865 327.76L606.378 348.368L613.452 354.646V365.662L576.286 437.865H525.257C522.506 444.547 510.277 464.16 497.7 472.965C481.978 483.97 478.637 504.409 472.741 508.929Z" fill="#FFFFFE"/>
</mask>
<g mask="url(#mask4_2765_9440)">
<rect x="328.567" y="244.117" width="1015.6" height="964.901" fill="white"/>
<path d="M556.264 327.932C563.077 326.032 578.592 323.372 575.92 327.932C572.579 333.631 543.49 357.607 562.356 357.803C581.222 358 595.81 350.179 585.613 358.852C569.701 372.387 575.72 382.369 577.881 382.369C579.611 382.369 588.71 381.212 593.295 378.788L601.526 375.097C602.181 383.482 585.271 397.226 575.523 408.703C565.776 420.18 555.085 418.726 561.57 439.164L522.462 441.129L532.681 420.887L531.809 417.35L517.156 430.321L527.853 403.79C526.783 401.367 525.693 398.508 525.803 397.305C525.96 395.575 530.454 389.771 532.681 387.085L556.264 363.895L553.316 352.694L556.264 335.399V327.932Z" fill="#FAC3DE"/>
<path d="M427.223 423.246C417.947 421.988 416.077 393.505 416.928 380.6L438.939 403.79C437.563 406.083 434.298 415.07 427.223 423.246Z" fill="#FAC3DE"/>
<path d="M508.312 373.722C506.111 368.219 486.17 404.445 476.475 423.246L495.538 367.433L503.399 363.895L511.063 366.057C511.063 370.905 510.513 379.224 508.312 373.722Z" fill="#FAC3DE"/>
<path d="M525.803 380.6L503.399 417.35L511.063 389.837L518.728 380.6H525.803Z" fill="#FAC3DE"/>
</g>
<mask id="mask5_2765_9440" style="mask-type:alpha" maskUnits="userSpaceOnUse" x="184" y="280" width="205" height="207">
<path d="M259.512 426.585C257.154 442.622 240.449 443.486 232.392 441.914C216.932 436.346 185.737 418.685 184.637 392.587C183.536 366.488 209.071 368.349 221.976 372.541L234.161 360.16C278.968 342.866 290.367 305.133 293.118 286.071C341.463 303.365 351.682 285.874 357.774 280.961C366.814 294.128 373.496 317.907 379.982 343.849C392.716 350.295 387.908 363.043 383.912 368.611C384.043 370.183 383.716 377.179 381.357 392.587C378.999 407.994 356.923 427.568 346.179 435.429L364.849 480.63L361.705 486.329C349.979 482.136 324.876 472.886 318.273 469.428C311.67 465.969 288.794 445.321 278.182 435.429C275.562 433.333 268.159 428.629 259.512 426.585Z" fill="#FFFFFE"/>
</mask>
<g mask="url(#mask5_2765_9440)">
<rect x="105.427" y="172.207" width="1002.52" height="982.89" fill="white"/>
<path d="M330.86 474.817C326.216 461.956 338.167 446.234 346.016 440.654C346.127 440.575 346.247 440.522 346.377 440.481C347.871 440.007 350.093 438.514 349.573 435.66C349.437 434.914 348.549 434.682 347.92 435.105C330.191 447.007 297.876 441.862 282.428 437.388C281.738 437.188 281.062 437.637 281.186 438.344C282.178 443.98 291.934 460.029 327.531 478.603C328.786 479.258 331.341 476.148 330.86 474.817Z" fill="#FAC3DE"/>
<path d="M240.646 400.841C235.023 398.498 226.994 381.346 223.614 372.901C223.569 372.79 223.543 372.675 223.536 372.555C221.826 346.726 273.224 331.704 254.206 348.762C235.143 365.86 244.97 385.315 245.756 388.46C246.542 391.604 247.721 403.789 240.646 400.841Z" fill="#FAC3DE"/>
<path d="M349.128 288.429C338.507 308.901 307.302 306.806 292.105 303.02C291.548 302.881 291.191 302.334 291.255 301.763C296.272 256.871 362.587 262.485 349.128 288.429Z" fill="#FAC3DE"/>
<path d="M196.625 388.46C198.718 381.96 204.279 381.707 209.02 383.129C210.251 383.498 210.081 386.824 209.267 387.819C206.336 391.405 205.216 398.185 207.237 401.823C210.185 407.13 208.809 412.632 204.289 410.864C199.769 409.095 192.891 400.055 196.625 388.46Z" fill="#FAC3DE"/>
</g>
<path d="M217.51 115.668C216.818 115.781 216.277 116.358 216.277 117.059C216.277 117.761 216.818 118.337 217.51 118.451C223.814 119.481 228.791 124.458 229.822 130.762C229.935 131.454 230.512 131.995 231.213 131.995C231.914 131.995 232.491 131.454 232.604 130.762C233.635 124.458 238.612 119.481 244.916 118.451C245.608 118.337 246.149 117.761 246.149 117.059C246.149 116.358 245.608 115.781 244.916 115.668C238.612 114.638 233.635 109.661 232.604 103.357C232.491 102.665 231.914 102.124 231.213 102.124C230.512 102.124 229.935 102.665 229.822 103.357C228.791 109.661 223.814 114.638 217.51 115.668Z" fill="#EE8E1F"/>
<path d="M84.0826 336.489C83.0529 336.657 82.2478 337.515 82.2478 338.559C82.2478 339.602 83.0529 340.46 84.0826 340.629C93.4625 342.162 100.868 349.568 102.402 358.948C102.57 359.977 103.428 360.782 104.472 360.782C105.515 360.782 106.373 359.977 106.542 358.948C108.075 349.568 115.481 342.162 124.861 340.629C125.89 340.46 126.695 339.602 126.695 338.559C126.695 337.515 125.89 336.657 124.861 336.489C115.481 334.955 108.075 327.55 106.542 318.17C106.373 317.14 105.515 316.335 104.472 316.335C103.428 316.335 102.57 317.14 102.402 318.17C100.868 327.55 93.4625 334.955 84.0826 336.489Z" fill="#EE8E1F"/>
<path d="M520.563 234.685L535.805 194.393C537.774 189.187 543.935 186.98 548.762 189.752L550.348 190.662C555.126 193.406 556.359 199.75 552.956 204.084L526.363 237.957C525.194 239.446 523.028 239.68 521.569 238.474C520.458 237.556 520.053 236.033 520.563 234.685Z" fill="#684AE2"/>
<path d="M592.015 267.32L621.956 244.416C626.802 240.709 633.854 242.768 635.943 248.501L636.933 251.22C638.701 256.07 636.055 261.413 631.126 262.947L595.489 274.037C593.897 274.533 592.167 273.944 591.208 272.58C590.021 270.894 590.378 268.573 592.015 267.32Z" fill="#684AE2"/>
<path d="M463.271 238.509C461.322 232.984 455.223 217.245 450.476 205.109C448.781 200.776 450.946 195.894 455.298 194.245C460.607 192.233 466.333 195.991 466.599 201.663L468.304 238.041C468.366 239.368 467.308 240.477 465.98 240.477C464.795 240.477 463.666 239.627 463.271 238.509Z" fill="#684AE2"/>
<path d="M586.894 97.38C586.103 97.6059 585.252 97.3655 584.696 96.7588C584.124 96.1342 583.53 95.4953 582.922 94.8412L582.921 94.8405C578.942 90.5611 574.356 85.6283 571.425 79.7679C567.863 72.6493 567.03 66.1364 568.873 59.854C570.937 52.8407 578.641 48.8385 586.046 50.9304C591.922 52.5907 594.934 56.8645 596.343 59.733C599.044 58.0254 603.847 55.9594 609.724 57.6196C617.129 59.7115 621.599 67.1528 619.69 74.2062C617.977 80.5292 613.86 85.6398 607.095 89.841C601.529 93.305 595.038 95.1093 589.408 96.6745C588.548 96.9135 587.708 97.147 586.894 97.38Z" fill="#F03F94"/>
<path d="M465.987 142.337C465.313 142.947 464.338 143.091 463.516 142.702C462.661 142.298 461.777 141.888 460.871 141.468L460.87 141.467C454.947 138.722 448.119 135.557 442.51 130.612C435.695 124.604 431.87 117.966 430.811 110.315C429.637 101.771 435.452 93.821 443.774 92.5906C450.379 91.6142 455.339 94.8091 458.058 97.2424C459.957 94.1263 463.781 89.6329 470.385 88.6565C478.707 87.4261 486.574 93.3535 487.921 101.868C489.128 109.501 487.387 116.958 482.596 124.681C478.658 131.043 473.037 136.049 468.161 140.391C467.416 141.055 466.689 141.702 465.987 142.337Z" fill="#F03F94"/>
<path d="M605.475 210.686C605.966 211.089 606.648 211.167 607.218 210.885C607.808 210.592 608.417 210.295 609.041 209.992C613.128 208.003 617.839 205.71 621.65 202.226C626.282 197.999 628.796 193.403 629.34 188.168C629.945 182.328 625.662 177.03 619.79 176.359C615.131 175.827 611.732 178.102 609.886 179.814C608.474 177.73 605.676 174.746 601.017 174.214C595.146 173.542 589.777 177.737 589.049 183.566C588.401 188.786 589.813 193.833 593.369 198.996C596.295 203.247 600.366 206.543 603.898 209.403C604.438 209.84 604.966 210.267 605.475 210.686Z" fill="#F03F94"/>
<mask id="mask6_2765_9440" style="mask-type:alpha" maskUnits="userSpaceOnUse" x="637" y="504" width="108" height="163">
<path d="M637.232 640.797L657.859 536.447C643.08 520.096 653.609 519.542 660.815 520.721C660.553 521.638 662.78 520.878 673.785 510.501C684.791 500.125 705.753 504.999 714.859 508.733C722.982 510.764 739.188 517.852 739.031 529.957C738.835 545.09 736.28 539.391 743.158 548.824C748.661 556.37 739.162 558.126 733.725 558.06C724.357 580.726 702.753 630.814 691.276 649.837C679.799 668.861 674.047 667.459 672.606 664.38C668.61 663.332 658.692 660.371 650.988 656.912C643.285 653.453 638.607 644.728 637.232 640.797Z" fill="#FFFFFE"/>
</mask>
<g mask="url(#mask6_2765_9440)">
<rect x="512.939" y="414.919" width="592.024" height="788.275" fill="white"/>
<path d="M679.355 582.004C672.765 571.03 656.736 576.089 648.434 580.661C645.1 592.935 647.269 596.541 640.523 620.03C632.089 649.391 656.409 663.109 676.217 663.59C696.025 664.072 703.686 623.611 717.807 590.881C707.412 599.545 687.592 595.722 679.355 582.004Z" fill="#EE8E1F"/>
</g>
<path d="M453.512 758.19C446.62 758.453 424.449 759.608 390.896 762.128C361.753 764.317 348.636 756.615 347.576 746.77C346.657 738.237 345.449 722.944 346.394 713.492C347.165 705.787 354.792 698.257 360.572 693.887C362.856 692.161 365.47 690.988 368.198 690.116C396.483 681.069 448.988 666.593 461.585 672.142M453.512 758.19C443.667 750.905 424.212 732.553 425.158 717.43C426.339 698.527 452.134 670.96 461.585 672.142M453.512 758.19C457.358 758.007 463.326 754.005 467.795 742.208M461.585 672.142C463.756 673.48 467.148 676.658 469.808 681.669" stroke="#651A3E" stroke-width="6" stroke-linecap="round" stroke-linejoin="round"/>
<path d="M272.308 451.399C263.512 448.38 236.638 452.827 208.756 493.942C181.608 533.973 182.536 559.19 192.648 577.782M308.982 626.067C285.55 566.798 340.881 520.524 345.41 515.405C349.939 510.285 362.344 486.459 368.251 476.614C374.158 466.768 377.112 453.969 406.845 481.733C427.266 500.802 461.918 508.657 483.069 510.955C488.146 511.506 491.793 515.805 490.609 520.772C489.306 526.238 487.125 534.121 483.639 544.744C477.191 564.524 463.731 585.53 448.007 604.486M252.021 626.067C270.688 636.93 290.26 647.332 303.075 653.831C317.121 660.394 350.372 672.301 371.008 667.418C383.51 664.459 406.233 648.18 428.329 626.067" stroke="#651A3E" stroke-width="6" stroke-linecap="round" stroke-linejoin="round"/>
<path d="M419.644 635.714H638.605" stroke="#651A3E" stroke-width="6" stroke-linecap="round" stroke-linejoin="round"/>
<path d="M273.342 432.901V484.058C273.342 488.69 276.795 492.596 281.392 493.163L353.515 502.062" stroke="#651A3E" stroke-width="6" stroke-linecap="round" stroke-linejoin="round"/>
<path d="M344.553 516.877C353.02 525.541 372.032 542.617 386.367 544.35C400.701 546.083 429.096 557.412 441.501 562.86" stroke="#651A3E" stroke-width="6" stroke-linecap="round" stroke-linejoin="round"/>
<mask id="path-35-inside-1_2765_9440" fill="white">
<ellipse cx="454.693" cy="544.743" rx="7.87631" ry="5.1196"/>
</mask>
<path d="M456.57 544.743C456.57 544.154 456.764 543.706 456.922 543.464C457.061 543.249 457.139 543.238 456.993 543.333C456.675 543.539 455.879 543.863 454.693 543.863V555.863C457.858 555.863 461 555.041 463.533 553.394C466.009 551.785 468.57 548.859 468.57 544.743H456.57ZM454.693 543.863C453.508 543.863 452.712 543.539 452.394 543.333C452.248 543.238 452.325 543.249 452.465 543.464C452.623 543.706 452.817 544.154 452.817 544.743H440.817C440.817 548.859 443.378 551.785 445.854 553.394C448.387 555.041 451.529 555.863 454.693 555.863V543.863ZM452.817 544.743C452.817 545.332 452.623 545.781 452.465 546.023C452.325 546.238 452.248 546.249 452.394 546.154C452.712 545.947 453.508 545.624 454.693 545.624V533.624C451.529 533.624 448.387 534.446 445.854 536.092C443.378 537.702 440.817 540.627 440.817 544.743H452.817ZM454.693 545.624C455.879 545.624 456.675 545.947 456.993 546.154C457.139 546.249 457.061 546.238 456.922 546.023C456.764 545.781 456.57 545.332 456.57 544.743H468.57C468.57 540.627 466.009 537.702 463.533 536.092C461 534.446 457.858 533.624 454.693 533.624V545.624Z" fill="#651A3E" mask="url(#path-35-inside-1_2765_9440)"/>
<path d="M357.173 275.999C371.439 300.503 377.798 322.201 381.018 341.141M383.639 370.284C383.729 379.857 383.019 386.208 383.019 388.202C383.019 394.503 376.324 418.526 342.85 437.429C336.367 441.09 329.076 442.786 321.507 443.097" stroke="#651A3E" stroke-width="6" stroke-linecap="round" stroke-linejoin="round"/>
<path d="M178.432 411.83C183.093 424.761 183.615 459.436 164.846 502.605C155.001 525.249 139.051 522.296 128.024 558.723C125.04 568.58 129.386 585.443 139.706 591.381" stroke="#651A3E" stroke-width="6" stroke-linecap="round" stroke-linejoin="round"/>
<path d="M88.4451 637.29H270.844" stroke="#651A3E" stroke-width="6" stroke-linecap="round" stroke-linejoin="round"/>
<path d="M360.966 485.081C324.104 479.568 289.685 449.309 277.083 434.87C274.76 431.966 267.955 426.379 259.322 427.257" stroke="#651A3E" stroke-width="6" stroke-linecap="round" stroke-linejoin="round"/>
<path d="M364.116 480.158L345.468 435.67" stroke="#651A3E" stroke-width="6" stroke-linecap="round" stroke-linejoin="round"/>
<path d="M366.479 420.298L375.625 422.107C380.506 423.072 383.712 427.751 383.22 432.703C381.992 445.065 381.995 461.513 387.942 466.965" stroke="#651A3E" stroke-width="6" stroke-linecap="round" stroke-linejoin="round"/>
<path d="M376.56 406.954C386.209 404.263 402.165 401.777 407.836 408.235" stroke="#651A3E" stroke-width="6" stroke-linecap="round" stroke-linejoin="round"/>
<path d="M147.205 338.734C151.471 353.764 155.473 398.835 131.371 455.545C121.447 477.913 104.788 493.22 95.14 498.077C71.708 506.937 48.4043 551.435 78.4031 565.025" stroke="#651A3E" stroke-width="6" stroke-linecap="round" stroke-linejoin="round"/>
<path d="M109.909 486.853C85.492 504.968 55.1681 493.154 55.1682 462.83C55.1682 445.109 74.6619 426.835 88.8392 426.205" stroke="#651A3E" stroke-width="6" stroke-linecap="round" stroke-linejoin="round"/>
<path d="M255.817 418.722C259.624 424.892 263.379 438.137 247.941 441.761C232.504 445.384 204.95 430.996 195.17 418.722C185.39 406.448 174.307 384.443 197.533 371.071C210.528 363.588 228.972 373.237 228.841 379.735" stroke="#651A3E" stroke-width="6" stroke-linecap="round" stroke-linejoin="round"/>
<path d="M198.051 369.826C173.24 364.903 126.724 341.22 134.915 281.675" stroke="#651A3E" stroke-width="6" stroke-linecap="round" stroke-linejoin="round"/>
<path d="M208.293 245.455C190.552 205.949 209.939 173.576 237.307 155.458M321.978 188.735C321.759 187.555 320.503 182.911 318.005 176.92M318.005 176.92C335.365 177.628 361.196 180.708 376.377 198.633M318.005 176.92C314.714 169.026 309.269 158.793 301.206 151.066" stroke="#651A3E" stroke-width="6" stroke-linecap="round" stroke-linejoin="round"/>
<path d="M319.313 218.203C335.49 218.203 361.394 229.225 358.593 265.208M292.442 283.447C310.688 293.358 349.19 305.54 357.224 274.98C357.906 271.535 358.354 268.28 358.593 265.208M358.593 265.208C365.253 265.391 379.267 261.001 382.047 241.98" stroke="#651A3E" stroke-width="6" stroke-linecap="round" stroke-linejoin="round"/>
<path d="M220.964 371.268C228.512 370.349 241.994 356.382 235.535 307.863" stroke="#651A3E" stroke-width="6" stroke-linecap="round" stroke-linejoin="round"/>
<path d="M231.794 361.619C257.392 350.855 304.808 316.685 289.685 266.119" stroke="#651A3E" stroke-width="6" stroke-linecap="round" stroke-linejoin="round"/>
<path d="M271.601 411.893C267.688 424.137 274.323 432.606 286.574 431.109" stroke="#651A3E" stroke-width="6" stroke-linecap="round" stroke-linejoin="round"/>
<path d="M326.507 379.538C330.708 381.507 338.046 389.226 333.792 404.349" stroke="#651A3E" stroke-width="6" stroke-linecap="round" stroke-linejoin="round"/>
<path d="M366.479 343.7C385.185 333.067 400.938 362.603 376.324 375.205" stroke="#651A3E" stroke-width="6" stroke-linecap="round" stroke-linejoin="round"/>
<path d="M334.493 389.762C341.976 390.353 356.358 387.454 359.194 370.284" stroke="#651A3E" stroke-width="6" stroke-linecap="round" stroke-linejoin="round"/>
<path d="M270.585 373.236C271.307 364.178 277.477 348.386 296.38 357.68" stroke="#651A3E" stroke-width="6" stroke-linecap="round" stroke-linejoin="round"/>
<path d="M339.897 331.886C339.634 324.666 343.244 311.92 359.784 318.693" stroke="#651A3E" stroke-width="6" stroke-linecap="round" stroke-linejoin="round"/>
<path d="M418.463 490.594C422.138 483.505 428.387 466.414 423.976 454.757C419.67 443.375 416.827 440.891 411.197 432.35C410.922 431.932 410.679 431.492 410.495 431.027C407.685 423.913 404.888 405.593 417.529 376.045" stroke="#651A3E" stroke-width="6" stroke-linecap="round" stroke-linejoin="round"/>
<path d="M429.883 420.1L479.836 349.634C481.024 347.958 482.732 346.68 484.759 346.349C489.214 345.622 495.062 345.822 496.438 350.198C498.17 355.712 482.982 401.197 475.172 423.251" stroke="#651A3E" stroke-width="6" stroke-linecap="round" stroke-linejoin="round"/>
<path d="M489.546 379.932C492.631 373.696 499.825 361.698 503.921 363.588C509.04 365.951 512.781 366.739 511.994 377.175C511.364 385.524 506.349 408.615 503.921 419.116" stroke="#651A3E" stroke-width="6" stroke-linecap="round" stroke-linejoin="round"/>
<path d="M510.419 390.367C513.504 385.51 520.697 376.466 524.793 379.144C528.889 381.821 527.55 380.916 530.109 382.688C533.457 385.005 523.06 419.313 516.129 430.34" stroke="#651A3E" stroke-width="6" stroke-linecap="round" stroke-linejoin="round"/>
<path d="M528.14 403.364C531.422 407.958 538.38 418.329 534.441 423.055C530.679 427.569 517.034 450.172 509.814 462.37C509.17 463.457 508.315 464.388 507.302 465.144C501.408 469.539 491.176 477.838 487.577 483.308C483.639 489.294 475.435 501.949 471.825 507.528" stroke="#651A3E" stroke-width="6" stroke-linecap="round" stroke-linejoin="round"/>
<path d="M484.821 491.973C510.616 497.617 563.072 511.86 566.537 523.675" stroke="#651A3E" stroke-width="6" stroke-linecap="round" stroke-linejoin="round"/>
<path d="M514.1 498.953C531.625 496.721 597.452 484.372 604.541 477.598" stroke="#651A3E" stroke-width="6" stroke-linecap="round" stroke-linejoin="round"/>
<path d="M507.465 496.108L505.102 466.768" stroke="#651A3E" stroke-width="6" stroke-linecap="round" stroke-linejoin="round"/>
<path d="M574.091 439.511L575.4 437.133L614.177 366.705C615.082 365.06 615.492 363.17 615.086 361.337C614.312 357.847 612.646 353.064 609.661 350.198C604.738 345.472 596.468 348.032 591.742 353.742C588.917 357.156 582.031 364.227 576.787 369.336C574.086 371.967 572.976 376.127 575.505 378.924C577.011 380.59 578.964 381.991 581.306 382.294C586.189 382.924 596.337 378.487 600.8 376.189M525.44 437.133H547.388" stroke="#651A3E" stroke-width="6" stroke-linecap="round" stroke-linejoin="round"/>
<path d="M607.013 347.878C610.689 340.986 615.883 326.294 609.267 320.465C603.443 315.335 595.971 316.948 590.773 318.482C589.462 318.869 588.266 319.567 587.26 320.492L559.443 346.078C557.797 347.591 556.625 349.681 557.016 351.882C557.743 355.975 560.737 360.256 569.097 358.075C579.967 355.239 593.784 349.89 595.49 349.89" stroke="#651A3E" stroke-width="6" stroke-linecap="round" stroke-linejoin="round"/>
<path d="M592.923 317.517C595.089 312.594 598.121 302.153 592.923 296.64C586.425 289.748 579.533 293.686 571.657 296.64C565.356 299.003 551.572 310.226 545.468 315.543C543.41 317.903 541.196 323.21 547.285 326.863C548.381 327.52 549.673 327.758 550.95 327.726C564.333 327.387 577.897 323.807 579.212 327.751" stroke="#651A3E" stroke-width="6" stroke-linecap="round" stroke-linejoin="round"/>
<path d="M440.392 405.309C426.74 393.035 403.852 367.999 418.66 343.11C422.755 336.809 429.686 333.658 429.686 333.658" stroke="#651A3E" stroke-width="6" stroke-linecap="round" stroke-linejoin="round"/>
<path d="M466.902 362.998C462.242 361.029 453.276 354.216 454.694 342.716C456.466 328.342 462.373 325.191 460.404 312.392C458.435 299.593 451.74 283.447 462.176 278.13C466.238 276.061 477.932 269.818 491.969 266.745" stroke="#651A3E" stroke-width="6" stroke-linecap="round" stroke-linejoin="round"/>
<path d="M531.293 387.568C540.022 385.073 556.849 373.473 559.055 356.303" stroke="#651A3E" stroke-width="6" stroke-linecap="round" stroke-linejoin="round"/>
<path d="M557.813 348.062C558.338 342.679 559.331 331.572 557.283 328.737" stroke="#651A3E" stroke-width="6" stroke-linecap="round" stroke-linejoin="round"/>
<path d="M504.955 331.052L508.613 333.612" stroke="#651A3E" stroke-width="6" stroke-linecap="round" stroke-linejoin="round"/>
<path d="M484.105 324.833L485.934 329.588" stroke="#651A3E" stroke-width="6" stroke-linecap="round" stroke-linejoin="round"/>
<path d="M482.276 297.032L485.934 299.593" stroke="#651A3E" stroke-width="6" stroke-linecap="round" stroke-linejoin="round"/>
<path d="M508.979 292.643L511.174 287.887" stroke="#651A3E" stroke-width="6" stroke-linecap="round" stroke-linejoin="round"/>
<path d="M518.855 320.078L520.684 315.322" stroke="#651A3E" stroke-width="6" stroke-linecap="round" stroke-linejoin="round"/>
<path d="M532.907 302.709L536.628 300.135" stroke="#651A3E" stroke-width="6" stroke-linecap="round" stroke-linejoin="round"/>
<path d="M538.243 342.757L536.414 346.049" stroke="#651A3E" stroke-width="6" stroke-linecap="round" stroke-linejoin="round"/>
<path d="M523.611 359.584L520.684 362.876" stroke="#651A3E" stroke-width="6" stroke-linecap="round" stroke-linejoin="round"/>
<path d="M537.395 362.997L538.38 365.557" stroke="#651A3E" stroke-width="6" stroke-linecap="round" stroke-linejoin="round"/>
<path d="M456.072 301.956C452.396 303.729 444.927 309.321 444.455 317.512C443.864 327.751 443.864 332.674 439.926 339.369C435.988 346.064 429.293 354.334 434.609 359.847C439.926 365.361 443.273 363.785 445.636 368.117C447.999 372.449 448.59 379.932 454.3 381.507" stroke="#651A3E" stroke-width="6" stroke-linecap="round" stroke-linejoin="round"/>
<path d="M442.879 317.709C437.103 320.991 425.748 331.099 426.536 345.276C427.323 359.454 445.502 377.886 453.378 386.287" stroke="#651A3E" stroke-width="6" stroke-linecap="round" stroke-linejoin="round"/>
<path d="M359.55 266.671C365.775 277.182 376.879 289.378 390.643 302.732" stroke="#651A3E" stroke-width="6" stroke-linecap="round" stroke-linejoin="round"/>
<path d="M433.625 738.367L464.169 723.735M450.756 754.056L510.812 711.721L497.029 707.192L472.582 719.712" stroke="#651A3E" stroke-width="6" stroke-linecap="round" stroke-linejoin="round"/>
<path d="M434.609 698.528L477.338 706.798L469.462 724.717L425.354 715.856" stroke="#651A3E" stroke-width="6" stroke-linecap="round" stroke-linejoin="round"/>
<path d="M435.791 695.969H550.194L548.619 717.038L501.48 718.797" stroke="#651A3E" stroke-width="6" stroke-linecap="round" stroke-linejoin="round"/>
<path d="M439.478 689.167L512.979 671.748L516.326 693.802" stroke="#651A3E" stroke-width="6" stroke-linecap="round" stroke-linejoin="round"/>
<path d="M658.955 534.984L639.589 638.865C639.195 643.787 641.755 654.617 655.145 658.556C668.534 662.494 673.194 664.003 673.851 664.266C677.526 665.579 686.177 665.408 691.376 654.224C696.574 643.039 721.928 586.163 734.858 557.48" stroke="#651A3E" stroke-width="6" stroke-linecap="round" stroke-linejoin="round"/>
<ellipse cx="699.309" cy="539.293" rx="50.0146" ry="11.6005" transform="rotate(16.4416 699.309 539.293)" stroke="#651A3E" stroke-width="6" stroke-linecap="round" stroke-linejoin="round"/>
<path d="M662.825 526.628C663.631 525.006 664.692 523.175 665.99 521.266C673.038 510.901 687.068 498.258 705.16 504.378C730.079 512.806 741.011 520.008 735.905 541.751C735.524 543.375 735.053 545.08 734.492 546.872" stroke="#651A3E" stroke-width="6" stroke-linecap="round" stroke-linejoin="round"/>
<path d="M675.233 611.618L713.823 474.447L685.469 458.104" stroke="#651A3E" stroke-width="6" stroke-linecap="round" stroke-linejoin="round"/>
<path d="M175.085 767.446C193.266 757.864 231.518 735.705 239.08 723.733C246.641 711.761 262.971 705.486 270.191 703.845C262.118 691.177 243.215 665.172 232.188 662.495C218.404 659.147 198.91 674.9 192.609 683.761C186.308 692.621 176.069 705.617 155.394 707.783C134.718 709.949 117.784 729.64 121.329 734.169C124.873 738.698 134.128 757.995 146.336 762.721" stroke="#651A3E" stroke-width="6" stroke-linecap="round" stroke-linejoin="round"/>
<path d="M192.806 704.042L207.968 719.991L212.89 724.126" stroke="#651A3E" stroke-width="6" stroke-linecap="round" stroke-linejoin="round"/>
<path d="M183.749 712.115L196.154 726.884" stroke="#651A3E" stroke-width="6" stroke-linecap="round" stroke-linejoin="round"/>
<path d="M169.768 720.188L180.401 732.2" stroke="#651A3E" stroke-width="6" stroke-linecap="round" stroke-linejoin="round"/>
</svg>
