<svg width="800" height="800" viewBox="0 0 800 800" fill="none" xmlns="http://www.w3.org/2000/svg">
<mask id="mask0_2765_9548" style="mask-type:alpha" maskUnits="userSpaceOnUse" x="162" y="156" width="557" height="266">
<path d="M166.084 223.345L162.047 240.905V244.941C180.212 252.14 217.551 267.87 221.588 273.198C225.625 278.527 283.013 315.516 311.203 333.345C322.438 340.611 348.26 350.784 361.662 333.345C356.333 349.653 353.925 360.996 353.386 364.629L405.46 357.161L504.763 387.235L585.625 421.547L592.392 378.524C607.463 393.326 647.615 423.323 672.319 421.547C703.2 419.327 715.276 410.446 717.496 386.226C719.717 362.006 716.563 325.07 705.058 303.07C695.854 285.47 680.823 234.778 673.221 211.904L598.01 227.785L585.496 234.85L591.148 273.198C587.582 269.431 576.898 259.433 562.689 249.584C559.46 245.224 558.228 242.246 557.824 242.448L549.777 227.785H546.485H540.815L526.915 225.621L519.233 222.512L500.76 206.051L467.472 209.16C461.36 207.028 439.639 202.716 426.174 200.2C422.872 199.583 419.492 199.418 416.237 200.248C409.356 202.003 398.607 205.979 388.506 211.84C375.427 219.429 359.643 232.226 353.386 237.675C351.301 240.165 344.546 243.246 334.212 235.657C321.295 226.171 263.166 162.189 239.148 156.336C219.933 151.653 182.432 199.058 166.084 223.345Z" fill="#D9D9D9"/>
</mask>
<g mask="url(#mask0_2765_9548)">
<rect x="109.714" y="-437.973" width="2358.28" height="2263.43" fill="#BEAFFC"/>
<path d="M452.286 365.436C455.368 353.598 462.888 332.151 473.156 318.408C475.295 291.363 461.934 254.75 444.818 246.353C441.427 244.9 442.463 241.308 443.405 239.693L468.836 216.886L444.818 243.124C459.485 249.919 488.737 267.062 488.414 281.271C488.091 295.48 488.148 300.706 487.408 300.975L482.561 307.106L476.993 313.798C479.77 310.837 482.712 308.511 485.79 307.106C501.614 294.35 519.43 280.396 526.359 275.014C533.491 281.204 547.915 294.673 548.561 299.032C549.369 304.482 570.965 267.748 566.726 255.84C563.335 246.313 570.561 243.393 574.598 243.124L593.124 270.431C598.506 303.398 610.767 371.491 627.882 379.564C649.277 389.656 613.956 397.528 590.341 359.179C566.726 320.83 515.864 355.142 515.258 361.197C514.774 366.042 502.543 382.054 496.488 389.454L452.286 365.436Z" fill="#8E74F9"/>
<path d="M383.258 287.124C382.619 287.958 381.924 288.808 381.174 289.669C372.514 301.444 362.321 329.255 358.029 342.629L330.176 354.537L285.167 340.005C277.362 336.103 255.788 321.587 266.284 304.633C312.047 338.297 362.821 310.737 381.174 289.669C381.881 288.708 382.577 287.855 383.258 287.124Z" fill="#8E74F9"/>
<path d="M340.066 263.106C351.691 268.919 374.626 231.962 380.412 218.305C340.449 199.602 257.031 175.711 276.891 185.399C301.717 197.509 325.534 255.84 340.066 263.106Z" fill="#8E74F9"/>
<path d="M618.73 237.692C605.122 240.472 589.161 237.631 582.882 235.863L580.87 221.963L666.284 196.174C672.807 195.748 683.037 198.552 671.771 213.184C657.687 231.474 635.74 234.217 618.73 237.692Z" fill="#651A3E"/>
<path d="M484.482 231.84L472.777 209.526V182.64L551.972 213.367L564.958 242.265L541.364 262.932L484.482 231.84Z" fill="#651A3E"/>
<path d="M179.407 224.707C172.822 229.096 165.323 239.216 162.397 243.728L153.435 236.778L160.934 208.794L218.181 152.827C222.876 148.072 232.374 141.414 232.813 152.827C233.362 167.093 187.637 219.22 179.407 224.707Z" fill="#651A3E"/>
</g>
<mask id="mask1_2765_9548" style="mask-type:alpha" maskUnits="userSpaceOnUse" x="83" y="263" width="553" height="475">
<path fill-rule="evenodd" clip-rule="evenodd" d="M102.706 615.308L83.1284 440.519L84.5413 432.042C124.034 420.335 205.36 396.438 214.725 394.501C224.09 392.563 224.547 386.562 223.606 383.803C219.098 369.271 209.437 334.879 206.853 313.565C204.495 294.106 206.55 292.413 213.099 287.016C215.516 285.024 218.546 282.527 222.193 278.445C233.011 266.335 254.688 263.308 264.174 263.308C319.41 280.262 438.156 316.794 471.257 327.29C503.574 331.666 511.748 354.711 521.063 380.973C522.918 386.202 524.818 391.56 526.963 396.923C555.059 399.183 611.33 431.907 635.954 447.987L606.486 554.959L582.064 624.794L441.184 699.069L348.743 737.62C325.196 729.345 262.519 706.739 200.193 682.519C137.866 658.299 109.232 627.62 102.706 615.308ZM352.982 363.62L402.229 355.748L488.009 380.17C482.223 369.473 461.488 345.939 424.835 337.381C388.182 328.823 295.459 302.06 253.679 289.748L229.862 284.501L253.679 371.088L256.505 383.803L352.982 363.62Z" fill="white"/>
</mask>
<g mask="url(#mask1_2765_9548)">
<path d="M367.917 493.4L256.908 531.547L374.174 596.336L484.578 534.171L367.917 493.4Z" fill="#F7CB98"/>
<path d="M377.202 598.153L85.3486 437.29C89.0489 481.627 100.079 584.062 104.601 640.252C155.786 692.73 289.336 728.471 350.963 739.639L377.202 598.153Z" fill="white"/>
<path d="M256.909 383.197C246.952 385.888 226.795 391.351 225.826 391.674L213.313 347.674L204.835 296.004L217.147 284.298H234.102L231.881 296.004L256.909 383.197Z" fill="#D9811C"/>
<mask id="mask2_2765_9548" style="mask-type:alpha" maskUnits="userSpaceOnUse" x="350" y="453" width="284" height="285">
<path d="M350.358 737.619L376.395 594.519L533.826 509.344L542.505 532.353C542.438 536.525 542.909 546.966 545.331 555.363C548.358 565.858 560.872 566.665 575.202 557.381C586.667 549.953 575.943 533.564 569.147 526.298L559.056 494.005L633.936 453.84C624.652 502.818 603.379 606.669 592.56 630.243C581.742 653.818 426.585 711.65 350.358 737.619Z" fill="#FFFFFE"/>
</mask>
<g mask="url(#mask2_2765_9548)">
<path d="M265.79 446.6L385.241 817.493L389.083 816.255L269.632 445.363L265.79 446.6Z" fill="#FADCBA"/>
<path d="M280.725 446.6L400.177 817.493L404.019 816.255L284.568 445.363L280.725 446.6Z" fill="#FADCBA"/>
<path d="M415.113 817.493L295.661 446.6L299.503 445.363L418.955 816.255L415.113 817.493Z" fill="#FADCBA"/>
<path d="M310.597 446.6L430.048 817.493L433.891 816.255L314.439 445.363L310.597 446.6Z" fill="#FADCBA"/>
<path d="M444.984 817.493L325.533 446.6L329.375 445.363L448.827 816.255L444.984 817.493Z" fill="#FADCBA"/>
<path d="M340.468 446.6L459.92 817.493L463.762 816.255L344.311 445.363L340.468 446.6Z" fill="#FADCBA"/>
<path d="M474.856 817.493L355.404 446.6L359.247 445.363L478.698 816.255L474.856 817.493Z" fill="#FADCBA"/>
<path d="M370.34 446.6L489.792 817.493L493.634 816.255L374.182 445.363L370.34 446.6Z" fill="#FADCBA"/>
<path d="M504.727 817.493L385.276 446.6L389.118 445.363L508.57 816.255L504.727 817.493Z" fill="#FADCBA"/>
<path d="M400.212 446.6L519.663 817.493L523.505 816.255L404.054 445.363L400.212 446.6Z" fill="#FADCBA"/>
<path d="M534.599 817.493L415.147 446.6L418.99 445.363L538.441 816.255L534.599 817.493Z" fill="#FADCBA"/>
<path d="M430.083 446.6L549.535 817.493L553.377 816.255L433.925 445.363L430.083 446.6Z" fill="#FADCBA"/>
<path d="M564.471 817.493L445.019 446.6L448.861 445.363L568.313 816.255L564.471 817.493Z" fill="#FADCBA"/>
<path d="M459.955 446.6L579.406 817.493L583.249 816.255L463.797 445.363L459.955 446.6Z" fill="#FADCBA"/>
<path d="M594.342 817.493L474.89 446.6L478.733 445.363L598.184 816.255L594.342 817.493Z" fill="#FADCBA"/>
<path d="M489.826 446.6L609.278 817.493L613.12 816.255L493.669 445.363L489.826 446.6Z" fill="#FADCBA"/>
<path d="M624.214 817.493L504.762 446.6L508.604 445.363L628.056 816.255L624.214 817.493Z" fill="#FADCBA"/>
<path d="M519.698 446.6L639.149 817.493L642.992 816.255L523.54 445.363L519.698 446.6Z" fill="#FADCBA"/>
<path d="M654.085 817.493L534.634 446.6L538.476 445.363L657.928 816.255L654.085 817.493Z" fill="#FADCBA"/>
<path d="M549.569 446.6L669.021 817.493L672.863 816.255L553.412 445.363L549.569 446.6Z" fill="#FADCBA"/>
<path d="M683.957 817.493L564.505 446.6L568.348 445.363L687.799 816.255L683.957 817.493Z" fill="#FADCBA"/>
<path d="M579.441 446.6L698.893 817.493L702.735 816.255L583.283 445.363L579.441 446.6Z" fill="#FADCBA"/>
<path d="M713.828 817.493L594.377 446.6L598.219 445.363L717.671 816.255L713.828 817.493Z" fill="#FADCBA"/>
<path d="M609.313 446.6L728.764 817.493L732.606 816.255L613.155 445.363L609.313 446.6Z" fill="#FADCBA"/>
<path d="M743.7 817.493L624.248 446.6L628.091 445.363L747.542 816.255L743.7 817.493Z" fill="#FADCBA"/>
<path d="M639.184 446.6L758.636 817.493L762.478 816.255L643.026 445.363L639.184 446.6Z" fill="#FADCBA"/>
</g>
<mask id="mask3_2765_9548" style="mask-type:alpha" maskUnits="userSpaceOnUse" x="87" y="357" width="317" height="176">
<path d="M369.532 492.995C358.714 492.511 291.153 519.301 258.725 532.757C222.125 512.304 136.655 463.608 87.5686 432.445C114.211 408.063 309.52 372.634 403.844 357.968C394.627 391.405 374.86 465.223 369.532 492.995Z" fill="#D9D9D9"/>
</mask>
<g mask="url(#mask3_2765_9548)">
<path d="M16.3198 280.287L135.771 651.179L139.614 649.942L20.1622 279.049L16.3198 280.287Z" fill="#FADCBA"/>
<path d="M31.2556 280.287L150.707 651.179L154.55 649.942L35.0979 279.049L31.2556 280.287Z" fill="#FADCBA"/>
<path d="M165.643 651.179L46.1914 280.287L50.0337 279.049L169.485 649.942L165.643 651.179Z" fill="#FADCBA"/>
<path d="M61.1272 280.287L180.579 651.179L184.421 649.942L64.9695 279.049L61.1272 280.287Z" fill="#FADCBA"/>
<path d="M195.515 651.179L76.063 280.287L79.9053 279.049L199.357 649.942L195.515 651.179Z" fill="#FADCBA"/>
<path d="M90.9987 280.287L210.45 651.179L214.293 649.942L94.8411 279.049L90.9987 280.287Z" fill="#FADCBA"/>
<path d="M225.386 651.179L105.935 280.287L109.777 279.049L229.228 649.942L225.386 651.179Z" fill="#FADCBA"/>
<path d="M120.87 280.287L240.322 651.179L244.164 649.942L124.713 279.049L120.87 280.287Z" fill="#FADCBA"/>
<path d="M255.258 651.179L135.806 280.287L139.648 279.049L259.1 649.942L255.258 651.179Z" fill="#FADCBA"/>
<path d="M150.742 280.287L270.193 651.179L274.036 649.942L154.584 279.049L150.742 280.287Z" fill="#FADCBA"/>
<path d="M285.129 651.179L165.678 280.287L169.52 279.049L288.972 649.942L285.129 651.179Z" fill="#FADCBA"/>
<path d="M180.613 280.287L300.065 651.179L303.907 649.942L184.456 279.049L180.613 280.287Z" fill="#FADCBA"/>
<path d="M315.001 651.179L195.549 280.287L199.392 279.049L318.843 649.942L315.001 651.179Z" fill="#FADCBA"/>
<path d="M210.485 280.287L329.937 651.179L333.779 649.942L214.327 279.049L210.485 280.287Z" fill="#FADCBA"/>
<path d="M344.872 651.179L225.421 280.287L229.263 279.049L348.715 649.942L344.872 651.179Z" fill="#FADCBA"/>
<path d="M240.357 280.287L359.808 651.179L363.65 649.942L244.199 279.049L240.357 280.287Z" fill="#FADCBA"/>
<path d="M374.744 651.179L255.292 280.287L259.135 279.049L378.586 649.942L374.744 651.179Z" fill="#FADCBA"/>
<path d="M270.228 280.287L389.68 651.179L393.522 649.942L274.07 279.049L270.228 280.287Z" fill="#FADCBA"/>
<path d="M404.615 651.179L285.164 280.287L289.006 279.049L408.458 649.942L404.615 651.179Z" fill="#FADCBA"/>
<path d="M300.1 280.287L419.551 651.179L423.394 649.942L303.942 279.049L300.1 280.287Z" fill="#FADCBA"/>
<path d="M434.487 651.179L315.035 280.287L318.878 279.049L438.329 649.942L434.487 651.179Z" fill="#FADCBA"/>
<path d="M329.971 280.287L449.423 651.179L453.265 649.942L333.814 279.049L329.971 280.287Z" fill="#FADCBA"/>
<path d="M464.359 651.179L344.907 280.287L348.749 279.049L468.201 649.942L464.359 651.179Z" fill="#FADCBA"/>
<path d="M359.843 280.287L479.294 651.179L483.137 649.942L363.685 279.049L359.843 280.287Z" fill="#FADCBA"/>
<path d="M494.23 651.179L374.779 280.287L378.621 279.049L498.073 649.942L494.23 651.179Z" fill="#FADCBA"/>
<path d="M389.714 280.287L509.166 651.179L513.008 649.942L393.557 279.049L389.714 280.287Z" fill="#FADCBA"/>
</g>
<path d="M365.496 492.592L401.624 359.987C462.82 363.378 577.422 416.433 627.074 442.537L636.287 450.22L482.56 533.767L365.496 492.592Z" fill="white"/>
<path d="M485.184 374.518L544.524 537.803C554.212 525.37 564.169 525.76 567.936 527.509C552.059 478.194 518.648 375.326 512.028 358.372C505.408 341.418 485.588 331.393 476.505 328.5C420.126 311.075 301.878 274.328 279.918 266.739C252.468 257.252 241.569 268.151 224.01 276.225C209.962 282.684 226.768 283.895 236.927 283.693C288.53 300.109 398.678 333.99 426.45 338.188C454.223 342.386 477.178 364.158 485.184 374.518Z" fill="#F1A54C"/>
<ellipse cx="561.848" cy="546.974" rx="18.8386" ry="19.0215" fill="#D9811C"/>
</g>
<mask id="mask4_2765_9548" style="mask-type:alpha" maskUnits="userSpaceOnUse" x="487" y="70" width="126" height="74">
<path d="M499.918 143.417C507.252 131.375 522.685 106.441 525.753 103.05C542.062 122.75 562.824 120.677 571.166 117.179L585.698 111.124C588.659 125.656 597.485 150.078 609.111 131.509C620.737 112.94 601.038 100.494 589.735 96.5917C590.004 95.3134 589.896 91.5863 587.313 86.9037C580.249 70.7569 562.891 69.1422 537.662 72.1697C517.478 74.5918 513.643 86.9037 514.249 92.7569C513.711 93.026 510.091 94.1294 499.918 96.3899C489.746 98.6505 487.203 111.191 487.203 117.179L499.918 143.417Z" fill="#A1B3B8"/>
</mask>
<g mask="url(#mask4_2765_9548)">
<rect x="478.523" y="50.1689" width="155.009" height="130.789" fill="#F1A54C"/>
<path d="M487.607 121.821C495.613 120.475 512.029 115.362 513.643 105.674C515.24 96.0937 514.67 93.4213 514.067 92.3871C514.061 92.3756 514.054 92.3642 514.047 92.3528C514.054 92.364 514.061 92.3755 514.067 92.3871C516.434 96.3712 522.087 104.869 524.341 105.674C526.601 106.481 511.423 126.463 503.552 136.353L496.689 139.178L487.607 121.821Z" fill="#D9811C"/>
<path d="M590.139 95.3803C589.17 99.2555 588.12 103.857 587.717 105.674L581.864 110.316L568.341 118.389L571.772 131.307C573.185 133.729 576.091 138.694 576.414 139.178C576.737 139.663 583.546 138.977 586.909 138.573L616.377 124.646L613.552 102.243C606.151 98.3406 591.108 91.5051 590.139 95.3803Z" fill="#D9811C"/>
</g>
<mask id="mask5_2765_9548" style="mask-type:alpha" maskUnits="userSpaceOnUse" x="471" y="102" width="127" height="201">
<path d="M487.225 302.255C492.164 272.077 488.506 253.421 485.396 233.303L498.199 205.136L494.724 197.089L492.45 178.941L487.001 175.913L478.322 170.867L471.863 145.234L476.101 137.968L493.863 129.693L500.12 144.225L513.845 118.794C516.738 111.326 523.533 98.005 527.569 104.464C543.07 123.517 571.725 117.893 585.625 109.48L587.271 116.43L597.331 128.319L572.78 146.647L588.523 167.84L582.065 170.867L590.542 201.143L565.111 226.17L546.542 228.794L542.644 261.469L494.065 300.647L487.225 302.255Z" fill="white"/>
</mask>
<g mask="url(#mask5_2765_9548)">
<rect x="441.607" y="64.7253" width="539.69" height="856.962" fill="white"/>
<path d="M497.092 207.804C493.19 214.532 492.782 233.453 509.404 236.868C553.606 245.951 506.175 275.822 483.771 296.611C468.455 310.824 518.756 294.997 531.202 286.116L558.248 246.556L548.56 227.18H527.368L497.092 207.804Z" fill="#FAC3DE"/>
<path d="M581.258 112.336C602.087 97.9655 601.643 124.648 598.817 139.786L581.258 140.997C581.729 137.027 575.203 123.235 564.505 118.997L581.258 112.336Z" fill="#FAC3DE"/>
</g>
<path d="M581.863 170.751L604.065 237.472C641.041 236.342 657.82 225.16 661.588 219.711L655.937 142.61L637.368 140.591L625.863 123.746L611.597 110.76L607.093 112.536L599.423 119.399L591.551 115.362L581.863 119.399L587.313 132.316L573.919 145.877L589.649 166.544L581.863 170.751Z" fill="white"/>
<path d="M189.9 213.656C180.535 210.911 156.53 228.793 145.698 238.078L130.762 225.967L132.377 218.298L111.588 225.967L98.2668 208.61L106.744 203.967L98.2668 191.252L116.123 183.005L103.515 182.457L102.955 163.252L168.102 155.325L149.411 132.342C148.738 132.342 147.948 125.575 157.404 124.243C195.551 130.701 222.193 169.05 221.588 175.307C220.982 181.564 203.826 200.334 189.9 213.656Z" fill="white"/>
<path d="M568.981 525.941L515.698 364.483C510.199 347.821 496.988 334.844 480.231 329.643L273.136 265.372C264.628 262.732 255.505 262.056 247.274 265.462C232.623 271.526 215.214 282.567 208.304 292.379" stroke="#651A3E" stroke-width="6" stroke-linecap="round" stroke-linejoin="round"/>
<path d="M543.558 536.915L487.689 377.032C483.164 367.442 462.243 345.508 414.756 334.487C367.268 323.466 278.411 296.67 239.919 284.649C238.668 284.389 237.305 284.162 235.867 283.989M205.478 308.353C202.256 285.361 222.389 282.361 235.867 283.989M235.867 283.989C228.573 283.46 230.532 297.85 232.423 305.111L257.076 383.079C257.219 383.531 256.944 384.009 256.481 384.114L227.466 390.647C227.06 390.738 226.651 390.508 226.52 390.113C224.707 384.622 222.276 376.894 219.688 368.099" stroke="#651A3E" stroke-width="6" stroke-linecap="round" stroke-linejoin="round"/>
<path d="M601.343 665.118C608.029 660.593 622.129 648.302 625.046 635.336" stroke="#651A3E" stroke-width="6" stroke-linecap="round" stroke-linejoin="round"/>
<path d="M587.567 654.785C596.21 651.341 614.025 636.633 616.132 605.352" stroke="#651A3E" stroke-width="6" stroke-linecap="round" stroke-linejoin="round"/>
<path d="M81.896 434.364L102.155 614.064" stroke="#651A3E" stroke-width="6" stroke-linecap="round" stroke-linejoin="round"/>
<path d="M374.56 597.088L350.939 740.481M350.939 740.481C294.416 723.464 171.361 680.149 131.329 643.034M350.939 740.481C424.075 708.674 573.061 636.106 581.489 625.409M637.568 449.855L605.927 556.85" stroke="#651A3E" stroke-width="6" stroke-linecap="round" stroke-linejoin="round"/>
<path d="M526 395.419C575.57 415.053 623.068 437.271 636.962 448.83C637.391 449.186 637.301 449.842 636.814 450.113L560.751 492.448M488.871 380.902C447.319 365.863 411.474 356.091 397.333 357.582C324.029 365.31 174.055 399.913 81.9276 432.76C81.2728 432.994 81.2218 433.88 81.8284 434.22L372.424 596.825C372.67 596.962 372.969 596.963 373.214 596.826L466.785 544.747L532.778 508.017" stroke="#651A3E" stroke-width="6" stroke-linecap="round" stroke-linejoin="round"/>
<path d="M403.41 357.582L366.539 494.939M366.539 494.939L255.518 531.203M366.539 494.939L484.664 533.623" stroke="#651A3E" stroke-width="6" stroke-linecap="round" stroke-linejoin="round"/>
<path d="M562.04 526.505C573.139 526.505 582.136 535.502 582.136 546.601C582.136 557.699 573.138 566.696 562.04 566.696C550.942 566.696 541.945 557.699 541.944 546.601C541.944 535.502 550.942 526.505 562.04 526.505Z" stroke="#651A3E" stroke-width="6" stroke-linecap="round" stroke-linejoin="round"/>
<path d="M352.762 363.255C355.709 352.648 360.606 336.827 366.141 322.192M386.19 285.864C383.419 287.447 380.391 291.495 377.303 297.046" stroke="#651A3E" stroke-width="6" stroke-linecap="round" stroke-linejoin="round"/>
<path d="M361.939 332.251C355.119 338.869 337.771 349.154 315.891 336.513L277.257 311.766M402.398 204.625C395.619 205.863 380.714 216.013 348.879 241.403C348.653 241.584 348.346 241.637 348.078 241.529C308.544 225.728 270.994 162.748 234.048 153.916C233.686 153.829 233.311 154.025 233.144 154.358C196.284 228.187 173.189 219.111 161.726 245.188C161.515 245.67 161.808 246.233 162.326 246.324C178.361 249.158 201.878 261.71 226.045 276.739" stroke="#651A3E" stroke-width="6" stroke-linecap="round" stroke-linejoin="round"/>
<path d="M233.361 153.925C228.609 157.056 223.199 160.818 217.266 165.447M161.665 245.557C160.519 237.022 162.945 228.804 167.884 219.585" stroke="#651A3E" stroke-width="6" stroke-linecap="round" stroke-linejoin="round"/>
<path d="M273.05 178.982C275.752 185.937 276.425 206.448 254.708 235.622" stroke="#651A3E" stroke-width="6" stroke-linecap="round" stroke-linejoin="round"/>
<path d="M240.312 187.943C236.717 179.773 247.039 175.681 250.659 176.762C250.713 176.778 250.763 176.8 250.809 176.832C254.072 179.057 244.307 197.024 240.312 187.943Z" fill="#651A3E"/>
<path d="M498.628 206.651C497.828 206.651 480.744 208.628 471.998 209.653C471.792 209.677 471.61 209.778 471.477 209.936L444.11 242.581C443.737 243.027 443.935 243.708 444.489 243.883C454.039 246.887 471.816 253.902 474.925 260.743" stroke="#651A3E" stroke-width="6" stroke-linecap="round" stroke-linejoin="round"/>
<path d="M221.483 173.223C215.7 160.783 196.004 134.912 156.954 122.531C156.651 122.435 156.314 122.525 156.103 122.762L148.635 131.141C148.357 131.453 148.362 131.926 148.647 132.232L168.748 153.836C169.197 154.318 168.913 155.107 168.259 155.191L103.065 163.61C102.661 163.662 102.358 164.006 102.358 164.414V181.843C102.358 182.325 102.776 182.7 103.255 182.649L131.177 179.657C132.175 179.55 132.438 180.994 131.467 181.247L98.0351 189.942C97.4834 190.086 97.2484 190.739 97.5821 191.201L107.076 204.347C107.283 204.633 107.651 204.752 107.986 204.642L137.002 195.103L98.0251 207.701C97.4802 207.878 97.285 208.548 97.6501 208.989L111.087 225.226C111.317 225.503 111.703 225.596 112.033 225.453L156.451 206.245C148.124 210.704 131.599 220.56 130.198 225.283C130.123 225.537 130.232 225.798 130.431 225.972L144.12 237.95C144.445 238.234 144.928 238.222 145.23 237.914C155.694 227.249 178.71 207.919 191.296 213.336" stroke="#651A3E" stroke-width="6" stroke-linecap="round" stroke-linejoin="round"/>
<path d="M470.468 323.749L486.736 304.87C486.829 304.762 486.891 304.639 486.917 304.499C490.745 284.129 493.375 237.316 473.507 211.31" stroke="#651A3E" stroke-width="6" stroke-linecap="round" stroke-linejoin="round"/>
<path d="M487.486 305.111C488.945 304.787 513.35 284.311 525.371 274.114" stroke="#651A3E" stroke-width="6" stroke-linecap="round" stroke-linejoin="round"/>
<path d="M549.479 229.341L562.243 247.574C567.755 254.415 572.968 274.256 550.625 299.579C550.174 300.09 549.297 299.855 549.11 299.199C547.493 293.53 541.403 283.622 526.539 274.419C526.017 274.096 526.011 273.328 526.536 273.008C537.933 266.061 558.734 250.623 559.204 245.143" stroke="#651A3E" stroke-width="6" stroke-linecap="round" stroke-linejoin="round"/>
<path d="M586.722 420.042L591.822 376.626" stroke="#651A3E" stroke-width="6" stroke-linecap="round" stroke-linejoin="round"/>
<path d="M583.718 364.673C595.266 383.446 630.598 421.155 679.544 421.804M713.377 324.154C700.954 293.511 676.883 231.254 674.47 214.098C674.359 213.309 673.171 212.951 672.649 213.553C662.7 225.021 633.975 243.058 584.917 237.385C584.349 237.319 583.871 237.828 584.016 238.381C589.328 258.7 600.014 300.463 602.559 313.822C605.8 330.84 611.068 368.725 630.922 381.285" stroke="#651A3E" stroke-width="6" stroke-linecap="round" stroke-linejoin="round"/>
<path d="M584.325 237.444C587.86 233.765 592.928 229.538 600.257 225.072M673.465 213.133C669.209 212.053 665.043 211.302 660.979 210.838" stroke="#651A3E" stroke-width="6" stroke-linecap="round" stroke-linejoin="round"/>
<path d="M603 303.251C620.22 300.617 658.186 293 672.287 283.6" stroke="#651A3E" stroke-width="6" stroke-linecap="round" stroke-linejoin="round"/>
<path d="M658.992 254.048C658.465 248.586 666.569 247.332 670.687 247.387C675.036 247.387 675.299 251.749 672.499 253.382C668.216 255.879 659.519 259.509 658.992 254.048Z" fill="#651A3E"/>
<path d="M661.513 221.845L656.497 144.092C656.356 141.919 654.523 140.245 652.347 140.303L641.845 140.579C641.331 140.592 640.96 141.075 641.078 141.576L647.129 167.145C643.789 153.001 633.097 122.589 611.32 110.856C610.038 110.165 608.492 110.245 607.231 110.973L603.768 112.97C601.221 114.44 600.759 117.934 602.727 120.119C609.817 127.99 619.171 140.456 619.171 148.911M605.395 237.647L581.932 172.272C581.795 171.889 581.963 171.463 582.326 171.277L589.929 167.387C590.217 167.24 590.564 167.278 590.814 167.483L605.395 179.503C596.818 172.075 578.896 155.556 575.816 148.911C572.737 142.266 583.503 134.881 589.649 131.977" stroke="#651A3E" stroke-width="6" stroke-linecap="round" stroke-linejoin="round"/>
<path d="M605.597 158.028L583.479 120.966C583.269 120.613 583.356 120.157 583.682 119.907L592.147 113.424C592.434 113.204 592.831 113.201 593.122 113.416L603.366 121.002" stroke="#651A3E" stroke-width="6" stroke-linecap="round" stroke-linejoin="round"/>
<ellipse cx="521.117" cy="149.115" rx="7.29332" ry="8.91407" fill="#651A3E"/>
<ellipse cx="569.333" cy="166.943" rx="7.29332" ry="8.91407" fill="#651A3E"/>
<path d="M550.695 188.214C546.441 188.214 537.365 188.822 535.096 191.253C532.259 194.292 549.682 191.051 549.682 195.508" stroke="#651A3E" stroke-width="6" stroke-linecap="round" stroke-linejoin="round"/>
<path d="M524.357 226.91H545.427M591.821 200.371L573.893 219.159C569.169 224.109 562.625 226.91 555.783 226.91H545.427M515.646 116.497L501.877 142.069C501.196 143.333 499.328 143.153 498.902 141.781L495.093 129.506C494.814 128.607 493.831 128.134 492.955 128.476L482.39 132.605C478.899 133.97 476.067 136.626 474.481 140.023L473.77 141.548C472.172 144.972 471.965 148.884 473.194 152.458L478.448 167.743C479.528 170.884 482.198 173.214 485.458 173.856L486.61 174.084C491.176 174.984 494.378 179.115 494.111 183.761L493.578 193.06C493.311 197.706 495.062 202.241 498.382 205.502V205.502M498.382 205.502L485.213 234.217M498.382 205.502L504.052 210.623M545.427 226.91L542.278 260.738" stroke="#651A3E" stroke-width="6" stroke-linecap="round" stroke-linejoin="round"/>
<path d="M494.724 128.867C489.119 121.304 481.387 102.59 505.698 95.9454" stroke="#651A3E" stroke-width="6" stroke-linecap="round" stroke-linejoin="round"/>
<path d="M539.755 71.5217C552.654 68.1451 580.233 65.9706 587.364 84.285" stroke="#651A3E" stroke-width="6" stroke-linecap="round" stroke-linejoin="round"/>
<path d="M520.513 99.7861C529.109 113.138 560.135 132.299 589.795 105.557" stroke="#651A3E" stroke-width="6" stroke-linecap="round" stroke-linejoin="round"/>
<path d="M530.436 125.614C531.989 127.842 537.607 130.962 547.656 125.614" stroke="#651A3E" stroke-width="6" stroke-linecap="round" stroke-linejoin="round"/>
<path d="M569.13 133.109C568.793 135.135 569.469 139.933 576.114 143.499" stroke="#651A3E" stroke-width="6" stroke-linecap="round" stroke-linejoin="round"/>
<path d="M308.93 479.577C308.786 467.132 306.615 446.211 318.873 445.616C329.87 446.211 334.616 453.891 331.387 461.359C330.527 463.347 329.521 465.475 328.464 467.708C321.585 482.253 312.585 501.278 328.157 515.451C340.039 526.265 338.675 516.061 337.383 506.394C336.721 501.447 336.078 496.64 337.24 494.863C340.671 489.616 357.02 460.35 347.937 444.203C338.855 428.056 322.91 423.414 310.8 434.515C299.016 445.317 290.29 458.029 307.493 480.091C307.967 480.699 308.939 480.347 308.93 479.577Z" fill="#F03F94"/>
<path d="M347.599 539.188C351.146 538.214 353.089 534.026 351.938 529.834C350.787 525.642 346.979 523.033 343.431 524.007C339.884 524.981 337.941 529.168 339.092 533.361C340.243 537.553 344.052 540.162 347.599 539.188Z" fill="#F03F94"/>
<path d="M401.119 480.698C409.224 471.253 424.449 456.593 431.003 461.746C439.742 468.617 444.724 474.874 430.014 481.832C428.057 482.758 425.897 483.692 423.631 484.673L423.628 484.674C408.861 491.06 389.543 499.415 391.888 520.339C393.678 536.306 399.387 527.739 404.796 519.624C407.564 515.47 410.254 511.435 412.299 510.867C418.34 509.189 449.938 497.991 453.771 479.866C457.604 461.741 448.688 447.73 432.264 448.078C416.282 448.416 401.336 452.208 399.7 480.136C399.655 480.906 400.618 481.283 401.119 480.698Z" fill="#F03F94"/>
<path d="M390.829 551.004C394.136 552.613 398.36 550.749 400.262 546.84C402.164 542.931 401.025 538.457 397.717 536.848C394.409 535.238 390.186 537.103 388.284 541.012C386.381 544.921 387.521 549.394 390.829 551.004Z" fill="#F03F94"/>
<path d="M308.214 383.349L326.949 379.037C328.657 378.644 330.204 380.138 329.87 381.859L324.22 411.002C323.785 413.247 320.766 413.694 319.699 411.67L306.615 386.839C305.874 385.432 306.665 383.706 308.214 383.349Z" fill="#F03F94"/>
<path d="M231.78 458.27L245.886 445.514C247.068 444.445 248.943 444.79 249.668 446.21L264.224 474.721C265.309 476.847 262.991 479.095 260.9 477.945L232.238 462.189C230.779 461.387 230.545 459.386 231.78 458.27Z" fill="#F03F94"/>
<path d="M421.679 415.943L432.095 392.92C432.569 391.872 433.715 391.302 434.837 391.556L449.363 394.845C451.349 395.294 451.928 397.843 450.331 399.106L425.389 418.841C423.398 420.416 420.633 418.256 421.679 415.943Z" fill="#F03F94"/>
<path d="M479.253 487.403L499.745 482.59C501.446 482.19 502.997 483.667 502.682 485.385L499.931 500.376C499.629 502.02 497.793 502.871 496.343 502.04L478.602 491.862C476.695 490.769 477.114 487.906 479.253 487.403Z" fill="#F03F94"/>
<path d="M643.077 83.8795C643.373 77.4036 644.789 67.7887 648.84 67.7259C654.572 67.637 658.6 68.5232 654.972 76.0891C654.489 77.0963 653.928 78.1724 653.338 79.3019C649.501 86.6576 644.482 96.2799 652.221 103.895C658.126 109.706 657.628 104.421 657.156 99.4143C656.915 96.8518 656.68 94.3621 657.314 93.4701C659.188 90.8351 668.2 76.0843 663.844 67.5821C659.489 59.0798 651.367 56.3674 644.904 61.8438C638.786 67.0277 634.123 73.2015 641.626 84.3166C642.057 84.9552 643.042 84.6493 643.077 83.8795Z" fill="#F03F94"/>
<path d="M661.761 116.517C663.608 116.086 664.694 113.967 664.185 111.784C663.676 109.601 661.766 108.18 659.919 108.611C658.071 109.041 656.986 111.16 657.495 113.343C658.004 115.526 659.914 116.947 661.761 116.517Z" fill="#F03F94"/>
<path d="M691.491 94.363C687.925 92.4377 681.991 100.134 678.568 105.64C678.161 106.294 677.153 106.08 677.089 105.312C675.975 91.9479 683.06 88.8404 690.931 87.3074C699.246 85.6878 705.006 92.0236 704.651 101.57C704.296 111.116 689.225 119.581 686.303 120.965C685.314 121.433 684.302 123.72 683.26 126.073L683.26 126.074C681.225 130.672 679.076 135.526 676.764 127.571C673.734 117.145 682.816 111.203 689.758 106.661C690.824 105.963 691.84 105.299 692.753 104.656C699.616 99.828 696.535 97.0867 691.491 94.363Z" fill="#F03F94"/>
<path d="M683.347 140.301C682.724 142.454 680.742 143.772 678.92 143.245C677.098 142.718 676.126 140.545 676.749 138.391C677.372 136.238 679.354 134.92 681.176 135.447C682.998 135.974 683.97 138.147 683.347 140.301Z" fill="#F03F94"/>
</svg>
