<svg width="1000" height="800" viewBox="0 0 1000 800" fill="none" xmlns="http://www.w3.org/2000/svg">
<path d="M910.203 26.4094C911.178 27.3531 911.728 28.6521 911.728 30.0092V44.5217L930.063 43.7889C931.435 43.734 932.769 44.2448 933.754 45.2016C934.739 46.1585 935.288 47.4777 935.272 48.8506L931.265 404.513C931.233 407.28 928.966 409.497 926.199 409.466C923.433 409.434 921.215 407.167 921.247 404.4L925.195 54.0101L911.728 54.5484V424.494C911.728 427.26 909.486 429.503 906.719 429.503C903.953 429.503 901.71 427.26 901.71 424.494V384.777L850.342 379.383C847.59 379.094 845.594 376.629 845.883 373.877C846.172 371.126 848.637 369.13 851.388 369.419L901.71 374.704V54.9488L596.81 67.1358L594.413 206.174C594.365 208.94 592.084 211.143 589.318 211.096C586.551 211.048 584.348 208.767 584.395 206.001L586.874 62.233C586.92 59.5781 589.029 57.4201 591.683 57.3141L901.71 44.9222V35.1857L576.103 45.8773V332.823C576.103 335.59 573.861 337.833 571.094 337.833C568.327 337.833 566.085 335.59 566.085 332.823V41.0297C566.085 38.3272 568.229 36.1118 570.93 36.0231L906.555 25.0026C907.911 24.958 909.227 25.4657 910.203 26.4094Z" fill="#FADCBA"/>
<path d="M792.655 226.66C789.89 226.577 787.581 228.753 787.499 231.518C787.417 234.283 789.592 236.592 792.358 236.674L884.029 239.397C886.794 239.479 889.102 237.304 889.184 234.539C889.266 231.773 887.091 229.465 884.326 229.383L792.655 226.66Z" fill="#FADCBA"/>
<path d="M588.92 234.14C591.686 234.188 593.89 236.469 593.843 239.235L594.413 347.44C594.365 350.207 592.084 352.41 589.318 352.363C586.551 352.315 584.348 350.034 584.395 347.268L583.825 239.062C583.873 236.296 586.154 234.092 588.92 234.14Z" fill="#FADCBA"/>
<path d="M161.08 97.1342V33.7661L512.485 47.2913V106.902L161.08 97.1342Z" fill="#FADCBA"/>
<path d="M361.704 205.085L364.96 250.325L209.17 237L183.372 205.085L187.379 180.039L183.372 142.469H465.147L459 200.583L376.982 170.521L361.704 205.085Z" fill="#FADCBA"/>
<path d="M465.147 142.469H512.485V166.263L459 200.583L465.147 142.469Z" fill="#FADCBA"/>
<mask id="mask0_2765_9619" style="mask-type:alpha" maskUnits="userSpaceOnUse" x="197" y="270" width="459" height="395">
<path d="M272.26 272.828L334.446 309.042L569.971 390.011L585.566 418.416L606.737 445.604C621.725 460.813 652.959 492.038 655.616 506.39C645.557 542.055 584.441 561.885 548.265 570.965L556.485 628.749C516.795 648.949 426.226 668.641 400.533 663.326L280.487 579.733C271.297 577.257 260.681 576.835 254.519 572.051C239.338 571.502 244.035 560.095 243.728 558.516C242.326 551.319 280.125 507.67 283.6 494.867C285.957 486.185 296.065 448.779 300.864 426.335L247.043 419.468C235.673 415.408 220.509 407.945 206.511 406.527C189.013 404.756 200.747 376.898 206.511 371.406C209.14 368.9 243.753 289.361 253.056 277.401C260.498 267.832 268.938 270.54 272.26 272.828Z" fill="#A1B3B8"/>
</mask>
<g mask="url(#mask0_2765_9619)">
<rect x="65.0787" y="223.912" width="2241.65" height="1813.75" fill="#F7CB98"/>
<path fill-rule="evenodd" clip-rule="evenodd" d="M331.872 305.019C313.12 336.248 262.326 406.002 226.888 410.609C191.45 415.216 236.042 433.201 262.768 441.617L303.301 423.677L331.872 311.161V305.019ZM286.526 495.416C284.016 508.853 281.285 543.634 297.763 550.367C314.242 557.101 289.421 574.288 274.95 582.04L223.122 572.295L286.526 495.416ZM555.353 630.103C529.483 625.319 503.444 555.407 503.444 493.77L532.525 559.797L537.463 571.32L547.523 569.308C561.255 590.57 581.222 634.887 555.353 630.103ZM431.068 489.698C437.098 457.871 439.925 442.952 447.932 441.617C455.297 440.39 456.442 437.464 457.285 435.307C457.538 434.662 457.763 434.086 458.12 433.644C464.469 437.188 478.895 442.946 485.806 437.631C492.716 432.315 497.545 426.261 499.095 423.898L494.665 393.776L405.406 381.151L396.547 413.488L408.95 433.644L427.112 510.278C428.593 502.762 429.891 495.913 431.067 489.707L431.068 489.7L431.068 489.698ZM408.507 651.809C415.225 644.943 427.466 626.471 422.682 607.512C419.147 593.503 424.746 593.948 430.561 597.608C434.606 600.153 439.101 602.308 443.834 601.646C456.432 599.883 468.937 593.524 451.697 577.168C430.966 557.5 420.172 533.535 417.367 524.011L384.586 553.912V622.351L408.507 651.809Z" fill="#F1A54C"/>
</g>
<mask id="mask1_2765_9619" style="mask-type:alpha" maskUnits="userSpaceOnUse" x="283" y="281" width="630" height="343">
<path d="M328.771 318.028C332.758 298.094 359.779 281.704 364.209 281.704L379.27 289.899C392.559 352.801 419.802 481.706 422.46 494.11C425.782 509.614 424.232 514.929 422.46 524.01C420.688 533.091 413.761 532.382 400.472 530.167C387.183 527.952 343.89 544.691 314.875 548.457C299.984 550.389 294.935 548.127 291.464 545.347C288.173 542.712 286.154 539.985 283.783 526.509C278.91 498.823 324.784 337.961 328.771 318.028Z" fill="#A1B3B8"/>
<path d="M581.487 411.052C580.602 403.743 569.749 395.548 568.42 393.998L536.747 328.88C565.179 333.562 601.069 342.496 639.887 348.731C700.86 358.525 758.039 361.351 769.973 365.426C783.185 369.937 820.893 366.718 830.439 382.702C838.332 395.919 886.492 488.749 912.406 546.262C910.029 562.174 904.056 578.657 883.325 596.376C857.411 618.525 817.299 626.555 810.284 619.693C804.706 614.237 800.317 606.846 795.887 601.531C791.457 596.215 758.456 616.37 724.79 623.458C716.861 625.127 707.778 620.703 698.654 612.964C600.491 640.184 558.527 608.858 549.815 589.792L547.34 568.759C580.079 562.906 610.623 553.395 635.497 532.545C639.43 529.248 640.618 529.984 645.008 526.326C660.589 509.499 654.209 508.58 653.028 498.982C629.476 472.109 582.196 416.899 581.487 411.052Z" fill="#A1B3B8"/>
</mask>
<g mask="url(#mask1_2765_9619)">
<rect x="153.617" y="240.263" width="2981.8" height="1636.42" fill="#BEAFFC"/>
<path d="M620.469 421.684C601.002 383.827 563.178 345.123 541.841 332.424L546.493 566.536L552.251 600.423C555.795 608.102 563.636 624.211 566.648 627.223C569.66 630.236 613.234 630.989 634.644 630.989L806.518 634.053L797.546 585.219L737.006 589.609C720.616 576.246 666.45 541.862 675.841 529.105C697.458 510.145 674.217 486.062 659.894 476.391C654.357 472.652 637.326 454.464 620.469 421.684Z" fill="#8E74F9"/>
<path d="M817.15 454.242L825.788 492.781L797.546 494.318H783.828C788.48 482.801 801.203 463.81 806.518 454.242C811.834 444.674 815.821 450.255 817.15 454.242Z" fill="#8E74F9"/>
<path d="M329.878 396.877C329.657 403.669 333.245 417.697 349.369 419.469C356.9 437.852 353.356 452.027 370.853 454.464C384.851 456.413 413.6 486.284 422.46 492.781L393.522 367.752L329.878 396.877Z" fill="#8E74F9"/>
</g>
<mask id="mask2_2765_9619" style="mask-type:alpha" maskUnits="userSpaceOnUse" x="64" y="99" width="734" height="631">
<path d="M408.063 650.922C403.811 637.632 395.168 585.22 402.748 566.978C403.707 565.28 408.748 562.243 415.836 570.039C424.695 579.784 434.044 584.681 447.112 583.574C460.179 582.466 456.79 566.978 445.716 563.656C436.857 560.998 423.567 541.138 418.03 531.54C409.909 528.882 387.819 526.18 364.43 536.634C341.041 547.089 306.992 548.226 292.89 547.487C288.534 560.629 278.671 588.861 274.064 596.657C268.305 606.403 276.722 619.028 289.568 622.128C302.414 625.229 292.89 644.277 289.568 659.338C286.246 674.399 304.186 670.856 313.046 670.191C321.905 669.527 324.784 670.413 321.241 681.93C337.631 691.675 357.343 684.588 364.43 679.494C371.518 674.399 361.551 673.513 383.921 673.513C406.291 673.513 413.379 667.533 408.063 650.922Z" fill="white"/>
<path d="M153.132 260.219L215.148 353.686L247.707 283.696C230.209 262.95 194.42 218.548 191.053 214.118C186.845 208.581 185.219 200.135 187.212 189.061C189.206 177.986 180.818 137.958 179.267 125.776C178.027 116.031 170.901 123.818 166.545 130.167L160.143 169.308C151.874 151.81 132.268 114.746 127.661 106.95C123.054 99.1534 114.346 104.292 110.212 106.95C109.473 110.124 106.361 115.083 100.688 108.722C85.8862 92.1242 80.4842 103.849 77.6049 105.178C74.7256 106.507 70.1569 111.328 76.9241 124.863C59.6482 138.374 68.2507 143.814 68.6937 151.566C68.8675 154.609 72.0209 155.453 72.3517 157.236C72.8635 159.995 69.285 164.337 65.4231 170.516C60.9934 177.604 69.3719 188.238 83.3256 198.205C94.4885 206.179 102.707 222.861 105.955 229.21C107.653 233.345 114.638 242.5 128.99 246.044C143.342 249.587 151.065 256.97 153.132 260.219Z" fill="white"/>
<path d="M637.692 656.916C613.733 630.944 590.321 587.78 580.445 563.656L614.464 546.628L642.996 527.241C652.324 551.749 673.009 581.942 679.385 590.234C685.795 598.571 704.437 615.495 713.961 620.885L726.947 626.921L745.603 630.579C748.448 631.872 751.886 632.619 755.113 634.054C765.08 638.483 756.519 649.058 754.748 656.367C752.976 663.676 755.355 661.11 761.114 666.204C766.872 671.298 764.657 676.171 761.114 683.48C757.57 690.789 754.003 692.059 758.771 700.995C760.325 703.907 755.909 711.322 750.358 713.249C747.542 714.227 736.015 705.271 732.617 707.213C726.215 710.871 727.786 718.918 724.021 726.449C721.014 732.462 713.262 728.211 708.682 725.699L708.657 725.686L663.481 686.546C658.461 693.117 645.648 708.653 642.813 713.615L642.693 713.826C639.258 719.841 638.69 720.835 624.678 714.267C610.502 707.622 627.282 683.716 637.692 656.916Z" fill="white"/>
<path d="M790.413 598.206C772.306 600.035 737.721 610.928 731.519 614.118C715.812 614.589 711.084 607.209 708.108 602.412L704.634 596.657C704.634 587.415 698.141 587.82 695.305 583.391C691.762 577.854 696.439 572.294 700.648 563.656C686.915 561.884 685.143 554.796 687.58 541.95C690.016 529.104 726.655 521.014 734.629 517.913C745.054 513.859 729.873 491.21 737.857 480.155C742.489 473.742 747.279 471.418 752.004 471.639C759.092 481.976 773.095 500.68 774.866 505.11C776.638 509.54 783.404 509.647 785.84 509.5L797.88 601.087L790.413 598.206Z" fill="white"/>
</mask>
<g mask="url(#mask2_2765_9619)">
<path d="M40.8389 52.4641H963.996V748.376H40.8389V52.4641Z" fill="white"/>
<path d="M276.722 619.249L302.193 569.414L296.656 619.249L292.447 633.202L276.722 619.249Z" fill="#FAC3DE"/>
<path d="M433.76 556.322C420.294 544.627 354.638 542.551 330.422 548.457C334.556 544.913 345.339 539.602 346.047 538.184C346.933 536.412 383.479 511.384 385.251 507.841C387.022 504.297 450.45 527.811 452.887 528.919C455.323 530.026 450.593 570.94 433.76 556.322Z" fill="#FAC3DE"/>
<path d="M604.523 568.971C613.028 565.073 633.697 539.329 642.63 528.919C629.341 520.798 600.757 508.727 595.442 509.612C590.126 510.498 567.534 540.694 556.903 555.682C571.816 588.388 601.732 654.111 602.086 655.351C602.441 656.591 623.435 654.889 634.583 652.527C620.555 627.203 596.017 572.869 604.523 568.971Z" fill="#FAC3DE"/>
<path d="M775.289 657.566C762.886 652.324 734.535 641.043 720.36 637.854V641.004L755.355 662.882L775.289 657.566Z" fill="#FAC3DE"/>
<path d="M634.645 717.589L655.982 679.23L662.774 685.695L652.364 711.609L634.645 717.589Z" fill="#FAC3DE"/>
<path d="M775.289 689.903L722.797 666.868L758.234 700.313L775.289 689.903Z" fill="#FAC3DE"/>
<path d="M307.952 672.184L325.228 604.63V666.868L307.952 672.184Z" fill="#FAC3DE"/>
<path d="M168.572 234.747C164.319 242.012 153.872 252.193 147.523 252.709L153.132 278.602C159.112 298.831 171.073 340.131 171.073 343.497C171.073 347.706 240.348 369.56 217.756 351.841C195.165 334.122 177.431 245.378 178.982 239.398C180.532 233.418 173.887 225.666 168.572 234.747Z" fill="#FAC3DE"/>
<path d="M786.389 509.612C786.391 509.748 786.393 509.885 786.394 510.022C786.666 521.099 797.188 581.716 802.484 611.009C783.463 611.862 749.626 611.082 766.453 601.132C783.193 591.234 786.719 536.541 786.394 510.022C786.391 509.877 786.389 509.74 786.389 509.612Z" fill="#FAC3DE"/>
</g>
<mask id="mask3_2765_9619" style="mask-type:alpha" maskUnits="userSpaceOnUse" x="331" y="142" width="463" height="301">
<path d="M398.318 412.602C398.318 397.009 411.607 363.431 418.252 348.592C441.818 379.777 477.536 368.378 492.45 358.78C495.255 378.714 501.221 420.531 502.638 428.327C504.41 438.073 508.397 436.965 523.901 435.193C539.405 433.421 530.103 407.95 526.78 398.426C525.055 393.48 522.065 380.017 524.295 379.458C526.358 378.941 533.392 390.906 538.076 396.655C547.822 408.615 561.111 401.306 572.628 391.56C581.842 383.764 561.111 359.666 549.594 348.592C545.895 344.838 539.26 334.581 542.036 330.99C542.972 329.779 546.6 332.47 549.594 332.202C561.465 331.139 551.587 296.616 545.164 279.488C542.137 274.837 537.899 262.655 545.164 251.138C557.44 231.676 538.298 211.491 523.901 197.759C522.794 179.154 512.162 166.308 489.571 153.462C466.979 140.616 429.326 135.521 389.237 161.657C349.148 187.792 365.981 233.419 367.531 257.782C369.082 282.146 342.725 366.532 337.631 376.499C332.536 386.466 327.442 392.225 337.631 404.185C345.781 413.753 363.766 397.097 371.74 387.574C369.229 404.849 367.708 439.933 381.706 442.059C399.204 444.717 398.318 432.092 398.318 412.602Z" fill="#A1B3B8"/>
<path d="M624.013 270.185C617.28 270.185 605.556 268.266 600.536 267.306C595.602 265.868 592.333 255.453 593.613 242.101C585.566 237.346 582.274 227.358 582.274 223.994C582.274 212.69 577.821 211.565 617.024 190.524C647.346 156.557 726.446 162.048 780.826 217.25C798.46 235.151 796.448 246.491 782.548 264.598C786.389 276.12 784.816 291.578 768.648 297.337C765.356 279.413 767.916 287.277 750.261 285.468C730.628 283.456 723.472 261.306 713.412 242.101C709.868 262.257 632.43 270.185 624.013 270.185Z" fill="#A1B3B8"/>
</mask>
<g mask="url(#mask3_2765_9619)">
<path d="M223.506 102.392H556.297L591.677 500.415H223.506V102.392Z" fill="#F365A9"/>
<path d="M572.882 137.771H805.062L798.428 352.261L572.882 322.41V137.771Z" fill="#F1A54C"/>
<path d="M370.19 406.345C393.521 408.422 390.397 360.153 391.238 339.557C391.321 337.541 393.673 336.983 394.765 338.679C399.554 346.122 407.264 357.478 411.608 355.236C417.101 352.401 410.205 337.074 406.071 329.765C397.137 319.06 379.669 301.326 381.264 316.033C383.257 334.416 378.89 359.34 370.19 406.345Z" fill="#DA3987"/>
<path d="M418.917 263.983C419.36 272.4 400.533 288.126 389.902 290.119C386.562 290.745 384.721 290.871 384.194 286.912C383.38 280.789 384.876 268.969 382.365 265.695L365.355 274.658L364.258 253.795L378.707 261.672L384.719 262.574C385.025 260.407 390.434 256.945 396.224 253.459C403.586 249.027 409.011 242.204 412.032 234.159C418.794 216.154 427.452 193.054 428.441 190.228C429.681 186.685 429.991 195.692 429.991 200.638C432.944 217.471 436.744 253.876 427.175 256.002C422.783 256.978 418.225 258.665 413.514 260.311C416.62 260.531 418.79 261.576 418.917 263.983Z" fill="#DA3987"/>
<path d="M493.558 357.229L512.406 336.477C516.319 341.202 519.728 349.332 514.235 350.926C507.369 352.92 506.626 364.981 504.854 384.029C503.436 399.268 500.4 410.312 497.226 410.165L493.558 357.229Z" fill="#DA3987"/>
<path d="M550.083 329.765C547.518 326.154 539.48 299.003 535.64 288.741V307.838L542.285 329.765L549.169 341.964C550.276 337.387 552.461 333.112 550.083 329.765Z" fill="#DA3987"/>
<path d="M521.917 292.216C523.541 327.654 536.128 398.515 562.883 396.211C589.639 393.908 568.716 404.554 554.91 410.165L525.026 390.433C522.885 381.868 522.351 368.525 522.351 367.639C522.351 366.753 519.25 352.652 517.7 345.712L515.485 327.329L521.917 292.216L517.7 271.292L525.584 267.432C522.902 267.813 515.682 268.533 511.72 269.299L497.988 252.466C500.646 243.533 503.684 224.886 499.786 218.508C505.766 223.454 517.833 234.659 513.049 243.164C507.069 253.795 522.378 267.048 526.144 267.159L538.963 260.883L544.048 253.795C541.833 258.594 534.181 271.997 530.879 275.938C525.209 282.705 522.581 287.565 521.917 292.216Z" fill="#DA3987"/>
<path d="M447.294 172.288C460.05 166.669 479.879 176.646 491.284 184.401C494.635 186.68 498.168 188.693 501.922 190.222C510.733 193.811 522.976 199.303 524.112 199.303C525.529 199.303 528.036 194.437 530.546 193.551L514.235 171.868C509.362 173.197 494.532 174.414 478.94 166.972C463.347 159.53 448.965 164.905 443.723 168.523C439.294 172.879 432.41 178.844 447.294 172.288Z" fill="#DA3987"/>
<path d="M600.746 273.56C600.569 263.46 631.267 252.8 641.899 250.88C679.21 244.143 707.573 229.061 714.144 218.873C714.144 220.276 713.892 228.457 711.943 239.62C709.994 250.783 700.5 260.514 695.996 263.984C668.163 268.856 600.924 283.659 600.746 273.56Z" fill="#D9811C"/>
<path d="M750.482 289.898C718.411 279.798 714.527 241.54 716.595 223.673C721.246 263.762 754.05 269.536 766.453 269.536C776.375 269.536 785.255 256.916 785.255 278.602C781.816 289.898 782.553 299.997 750.482 289.898Z" fill="#D9811C"/>
<path d="M634.766 223.673C628.966 234.015 612.376 232.109 608.611 232.773C606.839 233.512 599.96 238.203 594.998 240.506C588.797 243.385 583.481 239.62 577.722 221.458C571.964 203.296 603.001 197.164 596.357 203.144C589.712 209.124 592.783 223.673 602.75 223.673C612.717 223.673 634.068 207.334 646.471 201.132C658.874 194.931 679.21 199.531 679.21 205.733C669.243 200.86 644.825 205.733 634.766 223.673Z" fill="#D9811C"/>
</g>
<mask id="mask4_2765_9619" style="mask-type:alpha" maskUnits="userSpaceOnUse" x="380" y="242" width="389" height="169">
<path d="M409.835 339.069C407.886 335.348 393.224 320.095 386.136 312.934C375.726 305.181 381.485 301.416 386.136 292.114C406.07 292.557 419.128 266.243 421.506 258.196C429.701 258.86 426.668 254.904 435.971 246.266C470.08 280.596 489.349 257.34 498.43 250.696C499.316 258.448 503.967 258.226 520.579 271.958C523.945 322.28 505.772 349.318 495.214 357.144C495.288 359.138 497.34 367.78 495.214 391.346C469.167 430.151 422.239 402.414 404.298 382.48L414.93 350.586C414.044 348.298 411.785 342.79 409.835 339.069Z" fill="white"/>
<path d="M600.979 273.559C603.991 264.877 612.635 271.73 620.5 270.45C679.915 269.135 694.464 257.52 713.202 242.561L713.778 242.101C718.872 268.679 742.859 288.557 758.954 285.082C769.187 282.873 769.67 289.638 765.904 307.579C762.892 321.931 743.126 328.416 733.897 329.892L723.682 355.238C723.904 356.64 727.501 357.996 744.688 361.717C740.258 396.49 726.783 406.844 676.284 409.28C625.785 411.717 616.89 356.82 615.561 348.182C614.233 339.544 626.648 348.182 634.4 348.182C640.253 348.182 631.912 327.963 630.376 321.479C628.17 312.164 620.338 314.121 613.732 308.859C608.011 304.3 603.138 298.995 600.979 296.322C596.327 290.563 597.213 284.412 600.979 273.559Z" fill="white"/>
</mask>
<g mask="url(#mask4_2765_9619)">
<path d="M311.495 94.1047H886.475V482.15H311.495V94.1047Z" fill="white"/>
<path d="M656.572 379.158C672.696 383.41 695.393 380.265 717.985 358.116L691.788 370.077L674.955 366.976L641.51 351.915C629.624 348.888 602.707 342.181 601.112 343.244C599.518 344.307 598.468 353.908 596.77 358.116L634.644 425.67C654.873 427.516 695.996 431.207 698.654 431.207C701.976 431.207 737.636 392.447 712.165 402.635C686.694 412.824 662.109 399.313 656.572 395.991C651.034 392.668 636.416 373.842 656.572 379.158Z" fill="#FAC3DE"/>
<path d="M416.258 388.239C457.012 397.63 485.96 370.638 493.934 358.973C450.221 379.458 424.379 359.814 416.258 349.478C399.278 358.486 375.505 378.848 416.258 388.239Z" fill="#FAC3DE"/>
<path d="M425.529 262.951C424.112 293.251 395.426 309.57 383.097 311.785L387.686 261.327L433.977 242.943L444.734 255.818C441.485 259.51 432.263 266.672 425.529 262.951Z" fill="#FAC3DE"/>
<path d="M611.831 289.234C609.882 281.083 617.516 284.361 621.577 287.019L625.342 302.523C621.65 301.49 613.78 297.385 611.831 289.234Z" fill="#FAC3DE"/>
<path d="M758.677 287.019C759.471 304.228 753.475 311.712 748.02 314.366C745.557 315.565 743.436 313.116 743.961 310.427L748.346 288.008C714.568 288.008 711.174 257.561 713.961 242.832C708.596 257.464 682.905 285.302 623.06 279.595L618.305 270.633L713.961 227.286V242.832L742.951 249.234L748.346 288.008C751.521 278.411 757.614 263.984 758.677 287.019Z" fill="#FAC3DE"/>
</g>
<path fill-rule="evenodd" clip-rule="evenodd" d="M878.344 60.5662C885.646 57.0334 894.034 54.4508 901.839 54.152C909.596 53.855 916.342 55.8043 921.238 60.7977C926.186 65.8434 930.047 74.8086 930.232 90.2373C930.416 105.658 926.907 126.991 917.723 155.983C917.355 157.145 916.857 158.307 916.238 159.46C910.698 153.034 904.233 148.756 897.427 146.457C878.715 140.136 858.18 149.761 854.94 169.196C854.167 173.839 854.5 178.084 856.155 181.718C857.838 185.411 860.681 188.014 864.072 189.655C870.575 192.8 879.151 192.48 887.223 190.508C895.48 188.491 904.139 184.526 911.355 179.237C912.703 178.249 914.017 177.202 915.279 176.1C920.128 185.741 923.473 199.118 923.751 217.184C924.375 257.725 921.356 286.658 914.741 306.471C908.196 326.076 898.357 336.188 885.408 340.323C882.773 341.165 881.318 343.983 882.16 346.619C883.002 349.254 885.82 350.709 888.456 349.867C905.313 344.484 917.013 331.303 924.244 309.644C931.405 288.193 934.397 257.89 933.769 217.03C933.445 196.015 929.124 179.943 922.469 168.328C924.559 165.443 926.223 162.326 927.274 159.009C936.624 129.492 940.452 107.022 940.25 90.1176C940.048 73.221 935.8 61.338 928.392 53.7831C920.932 46.176 911.074 43.7724 901.455 44.1407C891.883 44.5072 882.123 47.6081 873.98 51.5475C871.49 52.7524 870.448 55.748 871.653 58.2384C872.857 60.7289 875.853 61.7711 878.344 60.5662ZM894.22 155.949C899.493 157.73 905.023 161.386 909.855 167.5C908.511 168.761 907.031 169.984 905.432 171.157C899.289 175.659 891.838 179.067 884.845 180.776C877.666 182.529 871.851 182.288 868.434 180.635C866.864 179.876 865.864 178.862 865.272 177.564C864.654 176.207 864.282 174.089 864.823 170.843C866.844 158.718 880.121 151.186 894.22 155.949Z" fill="#F03F94"/>
<path fill-rule="evenodd" clip-rule="evenodd" d="M146.115 377.146C143.488 374.478 140.405 372.746 136.981 372.233C133.573 371.721 130.302 372.488 127.399 373.99C121.755 376.91 117.029 382.814 113.615 389.686C106.741 403.524 103.839 424.021 111.368 442.19C117.26 456.407 125.847 471.97 136.132 483.602C138.66 486.461 141.361 489.16 144.216 491.562C144.251 499.125 144.934 507.631 146.358 517.154C151.223 549.69 158.609 572.157 166.023 587.093C169.73 594.561 173.473 600.205 176.96 604.295C180.381 608.307 183.783 611.09 186.898 612.433C189.438 613.529 192.386 612.358 193.482 609.818C194.577 607.278 193.406 604.33 190.866 603.234C189.723 602.741 187.502 601.218 184.583 597.794C181.73 594.448 178.416 589.527 174.997 582.639C168.159 568.863 161.019 547.456 156.266 515.673C155.319 509.336 154.728 503.587 154.438 498.376C160.356 501.292 166.722 502.649 173.399 501.572C186.779 499.414 197.258 490.538 202.511 480.32C207.712 470.199 208.282 457.433 199.404 448.719C191.375 440.839 174.571 435.766 161.158 445.117C152.842 450.914 146.846 461.545 144.897 478.358C144.477 477.905 144.057 477.44 143.637 476.966C134.323 466.432 126.254 451.94 120.624 438.354C114.398 423.331 116.756 405.882 122.588 394.143C125.527 388.225 129.016 384.433 132.002 382.888C133.414 382.158 134.561 382 135.495 382.14C136.413 382.278 137.596 382.773 138.976 384.175C141.609 386.85 142.624 389.167 142.904 390.967C143.181 392.752 142.807 394.477 141.87 396.13C139.871 399.655 135.516 402.417 131.541 403.007C128.804 403.413 126.915 405.961 127.321 408.698C127.728 411.434 130.275 413.323 133.012 412.917C139.724 411.921 146.915 407.544 150.585 401.072C152.482 397.726 153.473 393.736 152.804 389.429C152.137 385.137 149.894 380.984 146.115 377.146ZM171.804 491.681C166.164 492.591 160.259 490.799 154.298 486.689C155.029 467.132 160.885 457.52 166.888 453.335C175.391 447.408 186.89 450.475 192.386 455.869C197.033 460.43 197.603 467.952 193.6 475.74C189.648 483.429 181.718 490.082 171.804 491.681Z" fill="#F03F94"/>
<path d="M778.075 95.9272C777.6 96.005 777.228 96.4016 777.228 96.8838C777.228 97.3659 777.6 97.7625 778.075 97.8403C782.41 98.5489 785.832 101.971 786.54 106.305C786.618 106.781 787.015 107.153 787.497 107.153C787.979 107.153 788.375 106.781 788.453 106.305C789.162 101.971 792.584 98.5489 796.918 97.8403C797.394 97.7625 797.766 97.3659 797.766 96.8838C797.766 96.4016 797.394 96.005 796.918 95.9272C792.584 95.2187 789.162 91.7967 788.453 87.4625C788.375 86.9867 787.979 86.6147 787.497 86.6147C787.015 86.6147 786.618 86.9867 786.54 87.4625C785.832 91.7967 782.41 95.2187 778.075 95.9272Z" fill="#EE8E1F"/>
<path d="M799.834 129.867C798.673 130.056 797.766 131.024 797.766 132.2C797.766 133.376 798.673 134.343 799.834 134.533C810.405 136.261 818.751 144.607 820.479 155.178C820.669 156.339 821.637 157.246 822.812 157.246C823.988 157.246 824.956 156.339 825.145 155.178C826.874 144.607 835.22 136.261 845.791 134.533C846.952 134.343 847.859 133.376 847.859 132.2C847.859 131.024 846.952 130.056 845.791 129.867C835.22 128.138 826.874 119.792 825.145 109.221C824.956 108.06 823.988 107.153 822.812 107.153C821.637 107.153 820.669 108.06 820.479 109.221C818.751 119.792 810.405 128.138 799.834 129.867Z" fill="#EE8E1F"/>
<path d="M788.595 333.871C788.119 333.948 787.747 334.345 787.747 334.827C787.747 335.309 788.119 335.706 788.595 335.784C792.929 336.492 796.351 339.914 797.06 344.248C797.138 344.724 797.534 345.096 798.016 345.096C798.498 345.096 798.895 344.724 798.973 344.248C799.681 339.914 803.103 336.492 807.438 335.784C807.913 335.706 808.285 335.309 808.285 334.827C808.285 334.345 807.913 333.948 807.438 333.871C803.103 333.162 799.681 329.74 798.973 325.406C798.895 324.93 798.498 324.558 798.016 324.558C797.534 324.558 797.138 324.93 797.06 325.406C796.351 329.74 792.929 333.162 788.595 333.871Z" fill="#EE8E1F"/>
<path d="M63.3981 517.417C63.3981 516.241 64.3054 515.274 65.4659 515.084C76.0372 513.356 84.3835 505.01 86.1117 494.438C86.3014 493.278 87.2688 492.37 88.4447 492.37C89.6206 492.37 90.588 493.278 90.7777 494.438C92.5059 505.01 100.852 513.356 111.424 515.084C112.584 515.274 113.491 516.241 113.491 517.417C113.491 518.593 112.584 519.56 111.424 519.75C100.852 521.478 92.5059 529.825 90.7777 540.396C90.588 541.556 89.6206 542.464 88.4447 542.464C87.2688 542.464 86.3014 541.556 86.1117 540.396C84.3835 529.825 76.0372 521.478 65.4659 519.75C64.3054 519.56 63.3981 518.593 63.3981 517.417Z" fill="#EE8E1F"/>
<path d="M808.632 677.01C808.156 677.087 807.784 677.484 807.784 677.966C807.784 678.448 808.156 678.845 808.632 678.923C812.967 679.631 816.389 683.053 817.097 687.387C817.175 687.863 817.571 688.235 818.054 688.235C818.536 688.235 818.932 687.863 819.01 687.387C819.719 683.053 823.141 679.631 827.475 678.923C827.951 678.845 828.323 678.448 828.323 677.966C828.323 677.484 827.951 677.087 827.475 677.01C823.141 676.301 819.719 672.879 819.01 668.545C818.932 668.069 818.536 667.697 818.054 667.697C817.571 667.697 817.175 668.069 817.097 668.545C816.389 672.879 812.967 676.301 808.632 677.01Z" fill="#EE8E1F"/>
<path d="M757.254 748.018C756.094 748.208 755.187 749.175 755.187 750.351C755.187 751.527 756.094 752.494 757.254 752.684C767.826 754.412 776.172 762.759 777.9 773.33C778.09 774.49 779.057 775.398 780.233 775.398C781.409 775.398 782.376 774.49 782.566 773.33C784.294 762.759 792.641 754.412 803.212 752.684C804.373 752.494 805.28 751.527 805.28 750.351C805.28 749.175 804.373 748.208 803.212 748.018C792.641 746.29 784.294 737.944 782.566 727.372C782.376 726.212 781.409 725.304 780.233 725.304C779.057 725.304 778.09 726.212 777.9 727.372C776.172 737.944 767.826 746.29 757.254 748.018Z" fill="#EE8E1F"/>
<path d="M401.204 404.881C407.971 419.147 418.466 479.477 424.715 503.725C429.715 523.124 421.132 527.807 416.216 527.723L402.301 526.875C392.802 525.125 304.474 564.471 287.226 540.472C273.427 521.274 315.79 376.715 332.068 308.31C333.714 304.896 338.835 297.007 346.151 292.764" stroke="#651A3E" stroke-width="6" stroke-linecap="round" stroke-linejoin="round"/>
<path d="M289.226 482.727C279.853 504.14 258.034 534.547 244.119 554.421C239.463 561.071 243.105 570.059 250.997 571.959C264.373 575.178 278.739 579.078 281.222 581.562" stroke="#651A3E" stroke-width="6" stroke-linecap="round" stroke-linejoin="round"/>
<path d="M293.842 546.445L273.728 602.091C271.621 607.918 274.421 614.377 280.113 616.824L296.725 623.966" stroke="#651A3E" stroke-width="6" stroke-linecap="round" stroke-linejoin="round"/>
<path d="M302.225 561.22C301.141 587.468 297.075 643.664 289.476 658.463C281.876 673.262 311.436 670.158 324.935 667.158" stroke="#651A3E" stroke-width="6" stroke-linecap="round" stroke-linejoin="round"/>
<path d="M326.973 606.717C328.306 625.632 327.678 665.558 321.973 677.961C316.223 690.46 368.719 691.21 368.719 669.962M368.719 669.962L365.22 596.217M368.719 669.962C383.718 673.128 412.916 675.111 409.716 657.713C405.716 635.964 393.966 579.947 403.216 566.198" stroke="#651A3E" stroke-width="6" stroke-linecap="round" stroke-linejoin="round"/>
<path d="M414.921 527.972C422.921 538.471 440.164 562.421 448.963 565.22C458.834 568.361 458.639 587.406 435.912 583.512C430.097 582.516 425.164 578.901 420.929 574.793C409.827 564.028 403.455 561.49 401.967 568.72" stroke="#651A3E" stroke-width="6" stroke-linecap="round" stroke-linejoin="round"/>
<path d="M288.721 484.442C298.387 478.109 323.523 466.278 348.721 469.478" stroke="#651A3E" stroke-width="6" stroke-linecap="round" stroke-linejoin="round"/>
<path d="M302.256 425C290.59 425.333 263.678 424.632 240.479 416.233C228.478 411.887 217.03 409.005 207.713 407.177C198.93 405.454 193.589 395.337 197.817 387.448C213.498 358.192 233.675 317.914 235.73 309.491C238.819 296.825 259.478 262.494 270.227 271.744C277.001 277.573 307.949 294.637 332.068 307.213" stroke="#651A3E" stroke-width="6" stroke-linecap="round" stroke-linejoin="round"/>
<path d="M215.731 352.987L155.494 262.185C150.805 255.117 143.784 249.919 135.655 247.498L121.062 243.151C115.883 241.608 111.506 238.116 108.852 233.409L94.2408 207.499L67.7429 183.501C64.7431 179.751 61.4934 169.802 72.4925 160.002" stroke="#651A3E" stroke-width="6" stroke-linecap="round" stroke-linejoin="round"/>
<path d="M248.666 283.802L194.986 219.525C188.456 211.705 185.521 201.496 186.902 191.402L187.322 188.338C187.761 185.127 187.767 181.872 187.341 178.66L179.484 119.505C174.151 119.755 163.585 124.455 163.985 141.254C164.385 158.052 161.652 168.585 160.236 171.751L128.526 106.533C126.527 102.422 121.709 100.532 117.449 102.189L113.962 103.545C109.944 105.107 107.645 109.353 108.693 113.534C112.119 127.196 118.322 147.253 124.988 154.753" stroke="#651A3E" stroke-width="6" stroke-linecap="round" stroke-linejoin="round"/>
<path d="M112.041 125.777C107.458 114.778 93.8408 97.9559 86.2414 99.7557C76.7421 102.006 71.4925 112.005 72.9924 115.754C74.1923 118.754 97.8238 152.002 109.49 168.25" stroke="#651A3E" stroke-width="6" stroke-linecap="round" stroke-linejoin="round"/>
<path d="M75.7422 126.755C69.3261 129.421 59.2435 138.554 70.2427 153.753C81.2418 168.951 94.3241 180.917 99.4904 185" stroke="#651A3E" stroke-width="6" stroke-linecap="round" stroke-linejoin="round"/>
<path d="M287.441 284.534C278.2 300.263 266.178 324.282 256.265 345.988" stroke="#651A3E" stroke-width="6" stroke-linecap="round" stroke-linejoin="round"/>
<path d="M504.209 492.977L536.706 571.22C554.955 567.637 593.552 559.121 601.951 553.722C612.45 546.972 654.697 523.974 655.947 508.475C656.229 504.981 652.78 498.958 647.198 491.476M552.705 547.722C576.287 542.472 628.199 523.873 647.198 491.476M647.198 491.476C628.02 465.768 583.67 422.828 578.953 405.983C577.929 402.326 574.71 398.757 570.202 395.468" stroke="#651A3E" stroke-width="6" stroke-linecap="round" stroke-linejoin="round"/>
<path d="M548.255 569.307L557.455 629.215L513.208 643.089" stroke="#651A3E" stroke-width="6" stroke-linecap="round" stroke-linejoin="round"/>
<path d="M579.53 561.808C592.779 590.806 623.4 651.113 647.198 662.712" stroke="#651A3E" stroke-width="6" stroke-linecap="round" stroke-linejoin="round"/>
<path d="M637.692 656.184C628.86 672.6 613.8 706.459 622.2 711.459C630.599 716.458 636.365 718.375 638.198 718.708L662.197 688.71" stroke="#651A3E" stroke-width="6" stroke-linecap="round" stroke-linejoin="round"/>
<path d="M657.197 680.462C674.196 696.21 709.893 728.208 716.692 730.208C723.492 732.208 728.858 715.542 730.691 706.96" stroke="#651A3E" stroke-width="6" stroke-linecap="round" stroke-linejoin="round"/>
<path d="M695.444 681.462C710.776 692.211 742.84 713.709 748.44 713.709C754.039 713.709 758.772 704.876 760.439 700.46L719.942 665.963" stroke="#651A3E" stroke-width="6" stroke-linecap="round" stroke-linejoin="round"/>
<path d="M755.939 694.21L765.439 672.962C766.938 671.712 766.638 667.562 753.439 660.963C736.941 652.713 719.192 640.214 714.942 631.965" stroke="#651A3E" stroke-width="6" stroke-linecap="round" stroke-linejoin="round"/>
<path d="M643.198 528.723C656.447 558.138 692.394 619.066 730.191 627.466C753.189 632.465 764.439 633.465 759.689 645.964C755.889 655.964 752.606 659.463 751.44 659.963" stroke="#651A3E" stroke-width="6" stroke-linecap="round" stroke-linejoin="round"/>
<path d="M406.325 333.368C414.658 348.783 437.264 374.435 466.462 368.235C502.959 360.486 515.708 336.488 518.958 307.24C521.558 283.842 520.041 272.633 518.958 270.633" stroke="#651A3E" stroke-width="6" stroke-linecap="round" stroke-linejoin="round"/>
<path d="M483.71 301.741C488.447 291.301 501.981 290.935 505.456 298.251" stroke="#651A3E" stroke-width="6" stroke-linecap="round" stroke-linejoin="round"/>
<path d="M430.833 300.991C437.235 290.569 450.587 290.569 454.976 300.991" stroke="#651A3E" stroke-width="6" stroke-linecap="round" stroke-linejoin="round"/>
<path d="M415.966 347.238C411.299 360.07 401.617 391.234 400.217 413.233C398.467 440.731 395.717 444.73 378.219 440.481C364.22 437.081 367.886 401.4 373.719 386.735C378.802 375.069 381.634 348.366 381.634 325.869" stroke="#651A3E" stroke-width="6" stroke-linecap="round" stroke-linejoin="round"/>
<path d="M383.463 264.049C383.463 298.8 381.344 368.895 369.745 385.494C355.246 406.242 342.439 412.631 337.189 404.881C331.94 397.132 330.222 392.734 335.722 383.985C341.222 375.235 358.588 327.149 365.539 278.864" stroke="#651A3E" stroke-width="6" stroke-linecap="round" stroke-linejoin="round"/>
<path d="M383.218 290.742C388.498 291.848 397.747 291.055 406.142 284.055C411.658 279.455 416.998 271.206 420.408 260.025" stroke="#651A3E" stroke-width="6" stroke-linecap="round" stroke-linejoin="round"/>
<path d="M382.548 306.298C382.548 312.517 389.117 320.279 395.717 321.479" stroke="#651A3E" stroke-width="6" stroke-linecap="round" stroke-linejoin="round"/>
<path d="M364.97 195.749C358.804 219.831 355.62 267.144 392.218 263.744C437.964 259.494 438.214 249.495 432.215 219.747M524.457 199.749C522.343 178.802 516.98 161.992 484.972 151.363" stroke="#651A3E" stroke-width="6" stroke-linecap="round" stroke-linejoin="round"/>
<path d="M435.223 241.735C441.389 254.401 461.312 276.693 487.71 259.494C504.709 248.419 506.209 225.83 498.959 219.747" stroke="#651A3E" stroke-width="6" stroke-linecap="round" stroke-linejoin="round"/>
<path d="M428.456 199.916C430.039 184.751 438.881 158.516 475.461 174.611" stroke="#651A3E" stroke-width="6" stroke-linecap="round" stroke-linejoin="round"/>
<path d="M498.959 252.495C504.542 262.66 519.458 279.143 534.457 263.744C553.205 244.495 560.205 217.247 511.708 193.249" stroke="#651A3E" stroke-width="6" stroke-linecap="round" stroke-linejoin="round"/>
<path d="M495.214 355.864C494.297 385.779 496.36 442.63 515.958 438.23C540.456 432.731 532.957 413.482 529.957 405.483C526.957 397.484 511.233 349.672 514.418 328.246" stroke="#651A3E" stroke-width="6" stroke-linecap="round" stroke-linejoin="round"/>
<path d="M406.966 380.985C419.799 401.4 457.217 431.326 495.214 391.529" stroke="#651A3E" stroke-width="6" stroke-linecap="round" stroke-linejoin="round"/>
<path d="M403.217 409.983C405.3 418.399 413.266 433.281 428.465 425.482C437.214 438.231 443.963 447.73 459.712 432.981C474.211 446.48 497.604 434.945 499.603 419.696" stroke="#651A3E" stroke-width="6" stroke-linecap="round" stroke-linejoin="round"/>
<path d="M514.053 330.442C516.886 357.856 528.857 406.133 555.455 400.733C588.702 393.984 570.751 374.886 568.204 370.986C565.636 367.053 532.457 342.738 534.707 288.742" stroke="#651A3E" stroke-width="6" stroke-linecap="round" stroke-linejoin="round"/>
<path d="M541.853 329.709L568.556 335.07M640.253 349.463L595.26 340.43" stroke="#651A3E" stroke-width="6" stroke-linecap="round" stroke-linejoin="round"/>
<path d="M785.84 510.231L781.67 509.426C779.345 508.978 777.3 507.609 775.999 505.631L756.768 476.4C754.46 472.892 750.346 470.707 746.46 472.298C741.558 474.306 736.456 478.47 735.788 486.226C734.788 497.826 739.204 518.391 741.537 527.223" stroke="#651A3E" stroke-width="6" stroke-linecap="round" stroke-linejoin="round"/>
<path d="M737.037 516.724L702.453 529.076C695.355 531.611 688.741 536.128 686.223 543.231C683.713 550.312 683.549 558.006 691.541 560.971C703.94 565.57 714.039 562.887 717.539 560.971" stroke="#651A3E" stroke-width="6" stroke-linecap="round" stroke-linejoin="round"/>
<path d="M703.54 563.47C696.124 569.803 686.191 583.718 705.79 588.718L714.539 590.468" stroke="#651A3E" stroke-width="6" stroke-linecap="round" stroke-linejoin="round"/>
<path d="M703.54 589.219C705.706 603.634 715.461 621.824 742.859 610.825C777.106 597.076 787.809 594.595 799.558 602.595" stroke="#651A3E" stroke-width="6" stroke-linecap="round" stroke-linejoin="round"/>
<path d="M859.931 493.476H784.437C787.27 531.14 799.314 604.35 802.686 613.216C809.435 630.965 857.181 621.216 886.429 593.718C897.512 583.969 917.345 561.808 910.943 543.701C910.027 541.108 902.605 525.531 891.849 503.646C885.269 490.256 877.439 474.505 869.088 457.921M719.265 356.595L798.826 369.581L801.202 369.888C816.252 371.832 829.456 380.913 836.498 394.356C840.413 401.828 844.41 409.532 848.42 417.318" stroke="#651A3E" stroke-width="6" stroke-linecap="round" stroke-linejoin="round"/>
<path d="M827.724 494.136C834.807 507.552 845.024 546.514 841.625 567.113" stroke="#651A3E" stroke-width="6" stroke-linecap="round" stroke-linejoin="round"/>
<path d="M615.379 345.988C615.712 365.986 629.449 408.433 681.445 410.232C733.441 412.032 744.005 378.301 744.505 360.802" stroke="#651A3E" stroke-width="6" stroke-linecap="round" stroke-linejoin="round"/>
<path d="M714.193 231.246C715.526 245.829 697.866 269.719 617.939 269.719M714.193 231.246C713.859 247.162 724.316 282.763 755.113 286.363M714.193 231.246V217.247" stroke="#651A3E" stroke-width="6" stroke-linecap="round" stroke-linejoin="round"/>
<path d="M627.084 308.31L633.779 338.005C635.3 344.75 639.947 350.365 646.288 353.12V353.12M670.98 366.494L673.073 367.562C679.792 370.992 687.7 371.205 694.593 368.142L714.323 359.372C720.621 356.573 725.484 351.299 727.763 344.795L736.191 320.739" stroke="#651A3E" stroke-width="6" stroke-linecap="round" stroke-linejoin="round"/>
<path d="M670.696 334.739C676.833 342.512 690.744 340.988 695.944 336.988" stroke="#651A3E" stroke-width="6" stroke-linecap="round" stroke-linejoin="round"/>
<path d="M657.946 287.742C658.682 287.742 659.672 288.171 660.605 289.522C661.529 290.86 662.196 292.873 662.196 295.241C662.196 297.609 661.529 299.622 660.605 300.961C659.672 302.312 658.682 302.74 657.946 302.74C657.211 302.74 656.222 302.312 655.289 300.961C654.365 299.622 653.697 297.609 653.697 295.241C653.697 292.873 654.365 290.86 655.289 289.522C656.222 288.171 657.211 287.742 657.946 287.742Z" fill="#651A3E" stroke="#651A3E" stroke-width="6" stroke-linecap="round" stroke-linejoin="round"/>
<path d="M712.223 289.782C712.954 289.859 713.894 290.388 714.681 291.828C715.461 293.256 715.916 295.327 715.669 297.683C715.423 300.038 714.55 301.97 713.491 303.206C712.423 304.452 711.394 304.775 710.662 304.699C709.931 304.622 708.991 304.093 708.204 302.653C707.424 301.225 706.97 299.153 707.216 296.798C707.463 294.443 708.336 292.51 709.395 291.275C710.463 290.029 711.491 289.706 712.223 289.782Z" fill="#651A3E" stroke="#651A3E" stroke-width="6" stroke-linecap="round" stroke-linejoin="round"/>
<path d="M628.949 316.24C615.867 312.074 589.552 296.992 600.951 272.994C605.938 262.494 619.866 266.828 622.2 278.743" stroke="#651A3E" stroke-width="6" stroke-linecap="round" stroke-linejoin="round"/>
<path d="M734.191 329.488C743.44 329.072 762.839 323.389 766.438 303.99C770.938 279.742 763.189 281.242 748.69 290.241" stroke="#651A3E" stroke-width="6" stroke-linecap="round" stroke-linejoin="round"/>
<path d="M601.451 268.243C595.5 262.563 589.248 252.246 594.842 243.245M616.2 230.746C604.345 233.902 597.864 238.382 594.842 243.245M594.842 243.245C580.796 234.079 566.054 210.497 619.45 189.499" stroke="#651A3E" stroke-width="6" stroke-linecap="round" stroke-linejoin="round"/>
<path d="M729.325 181.928C755.662 192.353 809.335 225.396 788.937 254.994C775.864 273.962 760.383 272.52 748.163 265.419" stroke="#651A3E" stroke-width="6" stroke-linecap="round" stroke-linejoin="round"/>
<path d="M780.719 264.049C785.719 270.632 790.587 286.092 769.188 297.491" stroke="#651A3E" stroke-width="6" stroke-linecap="round" stroke-linejoin="round"/>
<path d="M634.699 223.248C641.115 213.082 659.647 195.65 682.445 207.249" stroke="#651A3E" stroke-width="6" stroke-linecap="round" stroke-linejoin="round"/>
</svg>
