<svg width="800" height="800" viewBox="0 0 800 800" fill="none" xmlns="http://www.w3.org/2000/svg">
<path d="M312.651 287.934L480.307 146.056C481.788 144.803 480.902 142.385 478.962 142.385H438.847C437.093 142.385 436.125 140.349 437.232 138.989L496.362 66.335C497.979 64.3476 495.275 61.7618 493.362 63.4661L389.207 156.237C387.778 157.51 388.678 159.874 390.591 159.874H410.832C412.603 159.874 413.565 161.945 412.423 163.299L309.715 285.001C308.068 286.952 310.702 289.583 312.651 287.934Z" fill="#F03F94"/>
<path d="M385.046 405.537L605.681 421.224C608.646 421.435 610.381 417.952 608.428 415.712L596.871 402.455C595.068 400.386 596.399 397.147 599.135 396.944L700.654 389.407C704.682 389.108 704.805 383.243 700.793 382.776L525.642 362.398C522.911 362.08 520.992 365.021 522.384 367.393L531.096 382.241C532.339 384.359 530.941 387.049 528.493 387.247L385.013 398.893C380.91 399.227 380.94 405.245 385.046 405.537Z" fill="#F03F94"/>
<mask id="mask0_2765_9278" style="mask-type:alpha" maskUnits="userSpaceOnUse" x="121" y="526" width="211" height="253">
<path d="M290.182 682.677L249.207 764.85C245.062 770.152 239.251 773.968 232.639 775.226C193.968 782.586 163.038 777.466 137.996 773.29C129.742 771.913 123.215 765.433 121.91 757.168L197.53 650.822L193.366 634.582L187.328 604.184L193.366 588.777L223.348 552.757L243.544 588.777L295.803 526.94L306.005 530.687L301.841 546.719L317.457 552.757V572.328L331.406 594.398L328.075 610.43L331.406 629.377V639.995L317.457 662.689L290.182 682.677Z" fill="white"/>
</mask>
<g mask="url(#mask0_2765_9278)">
<rect x="79.9497" y="515.492" width="902.754" height="1033.59" fill="white"/>
<path d="M120.703 763.878L211.272 659.983C215.228 656.374 221.391 644.159 214.395 624.172C205.651 599.187 217.518 576.701 231.885 566.499C228.054 553.84 225.014 552.757 223.973 553.798L189.411 590.859L186.704 607.515L189.411 628.544L198.155 647.907L117.58 763.878H120.703Z" fill="#FAC3DE"/>
<path d="M265.913 615.256C265.236 612.016 266.507 608.794 268.434 606.104L290.177 575.732C291.287 572.886 295.69 559.49 299.687 557.991C302.065 570.428 283.519 611.471 274.567 619.591C269.453 624.229 266.871 619.839 265.913 615.256Z" fill="#FAC3DE"/>
<path d="M303.924 610.222C309.753 603.393 316.596 580.364 317.429 573.354C318.123 571.133 316.292 571.493 319.623 580.487C321.081 613.8 294.549 638.906 290.177 644.319C285.804 649.732 283.412 654.846 277.374 654.013C272.543 653.346 270.424 651.541 280.117 637.918C285.253 630.7 298.094 617.051 303.924 610.222Z" fill="#FAC3DE"/>
<path d="M326.391 608.837L319.623 624.172L299.687 646.148L296.257 651.402C294.685 653.811 297.167 656.805 299.826 655.706L303.924 654.013C309.767 651.269 322.44 638.393 326.391 608.837Z" fill="#FAC3DE"/>
</g>
<mask id="mask1_2765_9278" style="mask-type:alpha" maskUnits="userSpaceOnUse" x="96" y="299" width="293" height="306">
<path d="M162.696 598.778L174.036 584.146L195.984 584.694L222.687 553.967L245.367 588.352L286.226 537.348L264.364 508.824L313.588 463.981L329.866 457.214L343.691 451.568L373.579 450.081L385.332 442.615L388.663 431.164L386.747 415.513L370.965 385.359L330.365 344.967L288.933 318.733L257.702 303.95L235.632 299.578H211.897L197.947 309.155V331.225L204.609 344.967L161.719 423.46L103.62 507.694L100.694 522.692L102.157 536.409L96.5507 556.345L103.62 583.231L126.117 603.716L143.492 604.813L162.696 598.778Z" fill="#A1B3B8"/>
</mask>
<g mask="url(#mask1_2765_9278)">
<rect x="-59.5146" y="193.276" width="1378.66" height="1377.03" fill="#F7CB98"/>
<path fill-rule="evenodd" clip-rule="evenodd" d="M264.365 308.53C245.834 314.915 217.31 333.931 251.456 358.916C262.144 355.029 286.101 350.421 296.428 363.08C297.702 364.64 298.942 366.12 300.137 367.545C311.056 380.566 318.134 389.007 311.003 412.841C315.583 415.964 338.486 429.914 343.691 416.588C343.865 416.144 344.045 415.688 344.229 415.222L344.231 415.218C349.566 401.726 358.44 379.286 321.413 342.259L328.076 345.174C340.429 353.849 367.26 375.364 375.755 392.02C386.373 412.841 391.786 431.371 385.748 439.283C379.71 447.195 363.07 454.585 335.17 445.84C321.474 441.547 307.875 436.527 297.493 431.371L300.968 432.985L329.117 444.072L347.647 449.485L327.034 455.523L298.51 478.217L265.016 511.331L284.561 538.18L246.459 589.607L237.298 576.282C246.875 568.44 263.157 547.675 251.664 527.354C253.043 524.847 254.301 522.674 255.441 520.797L243.544 532.559L194.408 585.859L165.618 583.992L170.464 585.027L162.969 598.56C155.126 604.251 139.733 613.509 140.899 605.014C141.913 597.624 135.081 589.549 126.665 585.027C122.99 583.052 120.22 582.136 117.703 580.122C112.148 575.678 115.478 563.703 118.618 557.626C119.596 555.731 118.255 558.219 118.984 556.345C119.712 554.471 134.713 566.953 134.713 566.953C147.169 567.299 171.264 567.315 181.291 557.127C190.189 548.085 234.093 499.904 267.205 465.034C274.746 457.092 273.019 444.01 264.406 437.244C235.175 414.284 201.51 375.432 203.569 350.587L207.752 347.799L200.029 336.846L197.323 314.568L201.903 303.949L214.187 298.328L230.844 298.536L262.283 305.407L264.365 308.53Z" fill="#F1A54C"/>
</g>
<path d="M251.358 361.752V361.752C285.139 343.255 323.803 376.513 310.75 412.748V412.748" stroke="#651A3E" stroke-width="6" stroke-linecap="round" stroke-linejoin="round"/>
<path d="M261.645 512.266L308.597 467.941C312.132 464.603 316.303 462.012 320.861 460.321L347.973 450.263" stroke="#651A3E" stroke-width="6" stroke-linecap="round" stroke-linejoin="round"/>
<path d="M126.848 475.687C125.498 485.442 128.352 504.161 145.321 520.173" stroke="#651A3E" stroke-width="6" stroke-linecap="round" stroke-linejoin="round"/>
<path d="M311.16 596.862L300.101 616.114L283.512 632.702" stroke="#651A3E" stroke-width="6" stroke-linecap="round" stroke-linejoin="round"/>
<path d="M121.72 756.197L191.403 659.685C197.29 651.531 197.994 640.836 194.706 631.331C189.437 616.101 185.855 596.933 194.014 587.237C199.353 580.892 210.596 568.269 222.816 554.699M286.379 537.469C282.966 532.827 273.722 520.39 269.79 515.147C265.858 509.904 262.008 511.597 260.574 513.099C251.351 523.187 236.473 539.534 222.816 554.699M236.817 599.115L246.367 587.237M289.246 580.478C292.393 572.411 298.638 555.97 302.12 545.457M302.12 545.457C302.793 543.427 303.363 541.618 303.787 540.133C307.064 528.664 303.377 529.483 300.51 527.025C298.216 525.059 295.731 526.206 294.776 527.025L246.367 587.237M302.12 545.457L309.237 548.018C312.813 549.305 315.745 551.574 316.122 555.355C316.385 557.991 316.548 561.791 316.484 567.166C316.471 568.316 316.459 569.408 316.449 570.443M316.484 587.237C316.422 586.361 316.336 581.793 316.449 570.443M316.449 570.443L325.996 582.471C330.234 587.809 331.223 595.033 328.576 601.314L319.147 623.691L300.51 644.785M246.367 587.237L222.816 554.699" stroke="#651A3E" stroke-width="6" stroke-linecap="round" stroke-linejoin="round"/>
<path d="M327.339 604.645L331.92 624.078C333.307 629.965 332.161 636.164 328.76 641.166L318.372 656.442C317.256 658.084 315.918 659.564 314.397 660.84L295.886 676.37C293.667 678.232 291.845 680.522 290.53 683.103L249.515 763.569" stroke="#651A3E" stroke-width="6" stroke-linecap="round" stroke-linejoin="round"/>
<path d="M281.464 586.212L268.766 604.849" stroke="#651A3E" stroke-width="6" stroke-linecap="round" stroke-linejoin="round"/>
<path d="M196.472 583.96L169.272 582.41C161.213 581.951 153.441 579.26 146.824 574.638L113.528 551.384C108.232 547.685 104.388 542.26 102.655 536.037V536.037M166.537 415.879L204.397 348.206M102.655 536.037V536.037C99.301 523.999 101.602 511.088 108.908 500.95L111.692 497.086L146.235 446.606M102.655 536.037L99.3458 545.863C94.2097 561.116 97.9087 577.958 108.964 589.655L113.275 594.217C119.376 600.672 127.627 604.674 136.474 605.469V605.469C149.179 606.61 161.554 601.017 169.094 590.727L174.951 582.734" stroke="#651A3E" stroke-width="6" stroke-linecap="round" stroke-linejoin="round"/>
<path d="M142.943 451.544C140.954 462.99 143.948 484.007 161.42 502.207" stroke="#651A3E" stroke-width="6" stroke-linecap="round" stroke-linejoin="round"/>
<path d="M319.387 338.544C345.164 357.204 365.258 378.339 376.952 397.32C382.803 406.816 386.469 415.642 387.777 423.251C389.083 430.847 388.008 436.98 384.733 441.504C381.457 446.029 375.966 448.966 368.343 450.097C360.706 451.231 351.177 450.504 340.328 447.912C318.645 442.73 292.291 430.243 266.514 411.582C240.737 392.922 220.644 371.787 208.95 352.807C203.099 343.31 199.433 334.485 198.125 326.876C196.819 319.28 197.894 313.146 201.169 308.622C205.956 302.01 215.555 298.778 229.308 299.65C242.938 300.515 259.879 305.399 278.127 313.976C291.518 320.271 305.544 328.522 319.387 338.544Z" stroke="#651A3E" stroke-width="6" stroke-linecap="round" stroke-linejoin="round"/>
<path d="M244.818 301.567C233.281 299.451 211.381 304.777 216.133 330.827" stroke="#651A3E" stroke-width="6" stroke-linecap="round" stroke-linejoin="round"/>
<path fill-rule="evenodd" clip-rule="evenodd" d="M273.929 281.932C276.086 282.729 277.188 285.125 276.391 287.282L261.608 327.257C260.811 329.414 258.415 330.516 256.258 329.718C254.101 328.921 252.999 326.525 253.797 324.368L268.58 284.393C269.377 282.236 271.772 281.134 273.929 281.932Z" fill="#D9811C"/>
<path fill-rule="evenodd" clip-rule="evenodd" d="M344.838 326.155C346.719 327.478 347.171 330.075 345.848 331.956L324.611 362.146C323.288 364.027 320.69 364.479 318.809 363.156C316.928 361.833 316.476 359.235 317.799 357.354L339.036 327.165C340.36 325.284 342.957 324.831 344.838 326.155Z" fill="#D9811C"/>
<path fill-rule="evenodd" clip-rule="evenodd" d="M346.158 430.383C346.82 428.18 349.142 426.931 351.344 427.593L397.774 441.543C399.976 442.205 401.225 444.526 400.564 446.729C399.902 448.932 397.58 450.181 395.378 449.519L348.948 435.569C346.745 434.907 345.496 432.585 346.158 430.383Z" fill="#D9811C"/>
<path fill-rule="evenodd" clip-rule="evenodd" d="M412.026 447.228C412.814 445.067 415.204 443.954 417.365 444.742L706.354 550.094C708.515 550.881 709.628 553.271 708.84 555.432C708.052 557.593 705.662 558.706 703.502 557.918L414.512 452.566C412.352 451.778 411.239 449.388 412.026 447.228Z" fill="#D9811C"/>
<path fill-rule="evenodd" clip-rule="evenodd" d="M410.077 470.457C411.259 468.484 413.817 467.844 415.789 469.026L537.381 541.898C539.354 543.08 539.995 545.637 538.812 547.61C537.63 549.583 535.073 550.223 533.1 549.041L411.508 476.169C409.535 474.987 408.895 472.43 410.077 470.457Z" fill="#D9811C"/>
<path fill-rule="evenodd" clip-rule="evenodd" d="M636.798 153.65C638.05 155.578 637.502 158.157 635.573 159.41L388.641 319.728C386.712 320.98 384.133 320.432 382.881 318.503C381.629 316.574 382.177 313.995 384.106 312.743L631.038 152.425C632.967 151.172 635.546 151.721 636.798 153.65Z" fill="#D9811C"/>
<path fill-rule="evenodd" clip-rule="evenodd" d="M252.464 21.0037C254.761 21.1 256.546 23.0407 256.45 25.3385L247.08 248.951C246.984 251.249 245.043 253.033 242.746 252.937C240.448 252.841 238.663 250.9 238.76 248.602L248.129 24.9899C248.225 22.6921 250.166 20.9074 252.464 21.0037ZM208.566 123.437C210.866 123.437 212.73 125.301 212.73 127.601V163.621C212.73 165.921 210.866 167.785 208.566 167.785C206.266 167.785 204.402 165.921 204.402 163.621V127.601C204.402 125.301 206.266 123.437 208.566 123.437ZM208.566 205.886C210.866 205.886 212.73 207.751 212.73 210.051V238.783C212.73 241.083 210.866 242.947 208.566 242.947C206.266 242.947 204.402 241.083 204.402 238.783V210.051C204.402 207.751 206.266 205.886 208.566 205.886ZM447.174 241.03C448.692 242.757 448.523 245.388 446.796 246.907L374.341 310.618C372.614 312.136 369.982 311.967 368.464 310.24C366.945 308.513 367.114 305.882 368.841 304.364L441.297 240.653C443.024 239.134 445.655 239.303 447.174 241.03ZM179.881 244.859C182.045 244.08 184.43 245.202 185.209 247.366L202.074 294.212C202.853 296.376 201.73 298.762 199.566 299.541C197.402 300.32 195.017 299.197 194.238 297.033L177.373 250.187C176.594 248.023 177.717 245.638 179.881 244.859Z" fill="#D9811C"/>
<path fill-rule="evenodd" clip-rule="evenodd" d="M393.908 266.883C395.637 268.4 395.809 271.031 394.293 272.76L383.883 284.627C382.366 286.356 379.735 286.528 378.006 285.012C376.277 283.495 376.105 280.864 377.622 279.135L388.032 267.268C389.549 265.539 392.179 265.367 393.908 266.883Z" fill="#D9811C"/>
<path d="M242.988 141.874L238.248 146.795C236.729 148.373 236.539 150.805 237.795 152.6L302.981 245.709C304.785 248.286 308.661 248.092 310.2 245.348C310.953 244.004 310.923 242.357 310.122 241.041L250.199 142.668C248.637 140.104 245.071 139.711 242.988 141.874Z" fill="#651A3E"/>
<path d="M242.504 195.684C239.974 188.727 234.266 188.317 228.432 190.406C219.313 193.672 215.194 206.088 223.19 211.555C226.459 213.791 230.458 214.972 234.8 215.255C244.378 215.88 248.333 211.716 242.504 195.684Z" fill="#651A3E"/>
<path d="M316.419 178.783C322.389 180.447 326.811 184.078 324.858 191.219C320.358 207.673 314.724 208.788 307.266 202.746C303.885 200.008 301.303 196.733 299.925 193.02C296.556 183.939 307.089 176.182 316.419 178.783Z" fill="#651A3E"/>
<path d="M474.444 253.982C476.065 246.461 470.342 243.126 464.439 241.884C459.724 240.892 454.748 242.378 451.809 246.197C449.664 248.984 447.535 252.926 446.337 258.147C445.404 262.21 446.971 265.431 449.631 267.91C457.085 274.858 468.974 270.17 472.513 260.614C473.265 258.586 473.93 256.37 474.444 253.982Z" fill="#651A3E"/>
<path d="M487.149 312.424C487.149 308.105 490.882 304.727 495.708 302.224C505.447 297.174 514.65 304.161 507.109 312.129C506.174 313.116 505.212 314.055 504.274 314.917C502.23 316.794 499.847 318.337 497.139 318.943C492.52 319.975 487.149 319.386 487.149 312.424Z" fill="#651A3E"/>
<path d="M449.689 213.841L441.544 105.653C441.172 100.716 443.959 96.083 448.493 94.0971L466.836 86.0649C470.531 84.4467 474.8 84.8537 478.123 87.141L483.211 90.6428C486.671 93.0248 488.583 97.0842 488.215 101.269L478.295 213.988C477.766 220.008 472.724 224.626 466.681 224.626H461.316C455.216 224.626 450.147 219.924 449.689 213.841Z" fill="#651A3E"/>
<path d="M499.231 273.225L545.016 170.347C547.12 165.62 552.089 162.844 557.217 163.532L571.664 165.468C579.899 166.572 584.37 175.69 580.2 182.876L525.582 276.99C525.22 277.613 524.917 278.268 524.677 278.947L521.961 286.61C520.311 291.264 515.909 294.374 510.971 294.374H508.441C502.199 294.374 497.139 289.314 497.139 283.072C497.139 279.679 497.852 276.324 499.231 273.225Z" fill="#651A3E"/>
<path d="M472.359 376.622C474.599 374.111 478.238 373.401 481.258 374.885L525.429 396.589C527.993 397.85 529.618 400.459 529.618 403.316V407.884L539.138 405.321C541.243 404.754 543.491 405.132 545.295 406.356L582.427 431.553C585.517 433.65 586.645 437.762 584.859 441.163C581.979 446.648 576.952 455.568 572.372 461.524C570.966 463.353 568.895 464.251 566.936 464.398C560.014 464.916 558.162 467.315 557.562 468.918C556.759 471.064 557.234 474.203 558.633 477.323C559.889 480.124 559.579 483.812 556.948 486.271L535.381 506.423C532.891 508.75 529.144 509.104 526.262 507.285L488.765 483.612C486.59 482.239 485.271 479.846 485.271 477.274V470.069L479.731 471.666C477.687 472.255 475.489 471.948 473.686 470.821L434.427 446.308C431.548 444.511 430.248 441.012 431.217 437.783C431.514 436.794 431.777 435.912 432.013 435.122C432.899 432.148 433.4 430.467 433.897 429.186C434.442 427.782 435.041 426.713 435.926 425.134C436.153 424.731 436.398 424.294 436.665 423.81C438.086 421.238 440.825 419.795 443.62 419.88C454.36 420.209 457.133 416.96 457.936 414.771C459.034 411.778 458.02 407.203 455.742 402.829C454.343 400.143 454.505 396.634 456.755 394.112L472.359 376.622Z" fill="#684AE2"/>
<path fill-rule="evenodd" clip-rule="evenodd" d="M466.786 436.407L474.69 440.913C476.438 441.884 478.235 442.358 480.08 442.336C481.933 442.299 483.675 441.826 485.307 440.917C486.933 439.986 488.233 438.675 489.208 436.987L496.496 424.363C497.43 422.746 497.88 421.041 497.847 419.247C497.837 417.447 497.393 415.769 496.517 414.214C495.654 412.666 494.395 411.443 492.739 410.544L484.492 405.84C484.377 405.774 484.287 405.798 484.221 405.913L466.696 436.068C466.613 436.212 466.643 436.324 466.786 436.407ZM486.607 414.074L489.702 415.804C490.663 416.321 491.285 417.128 491.567 418.226C491.857 419.309 491.734 420.316 491.197 421.247L483.884 433.913C483.272 434.972 482.376 435.666 481.193 435.995C480.011 436.323 478.876 436.174 477.789 435.546L475.062 433.972L486.607 414.074Z" fill="white"/>
<path d="M487.525 448.38L492.505 451.256C492.62 451.322 492.718 451.283 492.801 451.14L510.197 420.91C510.263 420.795 510.239 420.705 510.124 420.639L505.187 417.788C505.072 417.722 504.982 417.746 504.916 417.861L487.434 448.042C487.351 448.185 487.381 448.298 487.525 448.38Z" fill="white"/>
<path d="M503.764 458.329C502.204 457.428 500.997 456.197 500.143 454.635C499.303 453.082 498.874 451.412 498.856 449.627C498.859 447.835 499.324 446.138 500.25 444.535L501.415 442.517C501.506 442.36 501.623 442.322 501.766 442.405L506.703 445.256C506.818 445.322 506.83 445.433 506.739 445.591L505.574 447.609C505.02 448.568 504.863 449.584 505.102 450.657C505.349 451.716 505.924 452.505 506.826 453.026C507.741 453.555 508.724 453.654 509.773 453.325C510.83 452.981 511.627 452.344 512.164 451.414C512.784 450.341 512.624 448.998 511.684 447.387C511.538 447.112 511.336 446.766 511.08 446.351C510.846 445.93 510.557 445.439 510.213 444.878C509.869 444.316 509.536 443.771 509.212 443.24C508.897 442.696 508.588 442.174 508.284 441.674C507.227 439.804 506.713 437.934 506.744 436.062C506.798 434.185 507.337 432.359 508.361 430.584C509.303 428.953 510.555 427.71 512.117 426.856C513.67 426.016 515.31 425.589 517.036 425.574C518.785 425.553 520.417 425.981 521.934 426.857C523.494 427.757 524.703 428.97 525.559 430.495C526.407 432.034 526.841 433.678 526.862 435.426C526.897 437.183 526.448 438.87 525.514 440.487L523.432 444.094C523.366 444.208 523.276 444.233 523.161 444.167L518.223 441.316C518.109 441.25 518.085 441.159 518.151 441.045L520.19 437.414C520.785 436.383 520.947 435.36 520.674 434.344C520.402 433.328 519.822 432.564 518.935 432.052C518.033 431.531 517.062 431.428 516.022 431.744C514.981 432.059 514.188 432.689 513.642 433.633C513.089 434.592 512.826 435.509 512.855 436.385C512.899 437.268 513.295 438.318 514.044 439.532C514.125 439.656 514.307 439.952 514.59 440.42C514.873 440.889 515.182 441.411 515.518 441.986C515.876 442.556 516.197 443.075 516.479 443.543C516.77 443.998 516.947 444.271 517.008 444.364C517.996 446.022 518.57 447.689 518.729 449.365C518.902 451.048 518.488 452.756 517.488 454.488C516.522 456.162 515.268 457.442 513.726 458.327C512.171 459.203 510.519 459.652 508.77 459.673C507.021 459.694 505.353 459.246 503.764 458.329Z" fill="white"/>
<path d="M519.872 466.026C520.726 467.587 521.947 468.827 523.536 469.744C525.153 470.678 526.837 471.116 528.588 471.058C530.347 470.986 532.009 470.504 533.573 469.613C535.13 468.7 536.384 467.42 537.335 465.774L538.512 463.735C538.578 463.62 538.554 463.53 538.44 463.464L533.459 460.588C533.345 460.522 533.254 460.547 533.188 460.661L532.011 462.701C531.474 463.631 530.671 464.293 529.604 464.688C528.544 465.069 527.542 464.987 526.598 464.441C525.696 463.921 525.124 463.142 524.883 462.106C524.65 461.056 524.843 459.994 525.463 458.92L533.383 445.202C533.928 444.258 534.687 443.589 535.658 443.195C536.629 442.802 537.637 442.907 538.682 443.51C539.627 444.055 540.212 444.861 540.436 445.925C540.661 446.99 540.493 448.009 539.931 448.982L538.766 451C538.7 451.115 538.724 451.205 538.838 451.271L543.776 454.122C543.89 454.188 543.981 454.164 544.047 454.05L545.212 452.032C546.162 450.386 546.635 448.674 546.631 446.897C546.649 445.114 546.241 443.457 545.408 441.926C544.588 440.403 543.363 439.171 541.731 438.229C540.128 437.303 538.433 436.869 536.645 436.924C534.88 436.974 533.241 437.449 531.729 438.35C530.224 439.237 529.001 440.497 528.059 442.128L520.096 455.822C519.137 457.482 518.645 459.211 518.619 461.008C518.615 462.8 519.033 464.472 519.872 466.026Z" fill="white"/>
</svg>
