<svg width="800" height="800" viewBox="0 0 800 800" fill="none" xmlns="http://www.w3.org/2000/svg">
<path d="M328.876 168.727C330.894 168.826 332.61 167.271 332.71 165.254H349.887L357.021 151.402L357.771 124.516C357.771 117.566 357.771 114.737 346.066 114.737H176.519C169.852 114.737 164.447 120.142 164.447 126.809V150.076C164.447 156.512 169.496 161.815 175.923 162.133L328.876 168.727Z" fill="#FADCBA"/>
<path d="M177.958 195.845C172.31 195.442 167.141 199.018 165.527 204.446V236.023C164.952 237.96 167.449 239.715 169.386 240.291L188.773 238.108L187.656 242.303L202.124 250.716C202.028 252.734 202.675 254.371 204.693 254.468L303.824 259.223V254.468L313.673 238.108L300.419 206.928L177.958 195.845Z" fill="#FADCBA"/>
<path d="M141.494 72.4556C134.652 72.1962 128.965 77.6721 128.965 84.5183V329.461V414.02C128.965 420.336 133.833 425.584 140.131 426.057L205.325 430.959C207.34 431.111 209.096 429.6 209.247 427.586C209.399 425.571 207.888 423.815 205.874 423.664L140.68 418.762C138.199 418.576 136.281 416.508 136.281 414.02V329.461V84.5183C136.281 81.8213 138.521 79.6641 141.216 79.7663L384.838 89.0048C387.392 89.1016 389.413 91.2005 389.413 93.7567V130.649C389.413 132.67 391.051 134.307 393.071 134.307C395.091 134.307 396.729 132.67 396.729 130.649V93.7567C396.729 87.2679 391.599 81.9399 385.115 81.6941L141.494 72.4556Z" fill="#FADCBA"/>
<path d="M280.377 306.065L221.117 300.578L170.37 297.904L162.984 326.985L160.779 335.49C159.035 342.297 163.45 349.149 170.37 350.373L215.476 356.614C217.465 356.966 219.092 357.327 219.444 355.338L244.355 352.042L275.813 337.776L279.702 313.35C281.714 313.536 283.495 312.056 283.682 310.045C283.868 308.033 282.388 306.251 280.377 306.065Z" fill="#FADCBA"/>
<mask id="mask0_2765_9307" style="mask-type:alpha" maskUnits="userSpaceOnUse" x="163" y="130" width="497" height="304">
<path d="M376.61 384.05L301.805 404.9C289.611 407.826 264.164 414.703 259.921 418.8C259.107 419.586 258.298 420.436 257.458 421.318C252.826 426.184 247.279 432.011 235.046 433.249C220.597 434.713 203.588 434.164 203.588 418.8C203.588 406.51 210.416 398.56 213.83 396.121C206.27 397.706 187.932 398.718 175.056 390.085C162.436 380.757 160.241 373.99 166.459 365.577C172.678 357.163 186.212 349.482 201.759 353.505C217.305 357.529 250.593 345.824 264.676 329.546C278.759 313.268 306.011 281.443 304.731 255.655C303.657 252.928 302.629 250.492 301.685 248.256C296.358 235.639 293.716 229.38 300.707 213.222C308.938 194.2 344.786 124.699 412.824 131.283C440.259 133.112 452.879 143.72 455.257 154.511C471.169 156.34 516.162 166.217 512.321 197.127C512.321 204.992 513.784 211.393 526.587 214.685C539.512 220.355 557.661 237.219 521.081 263.703C526.568 279.615 560.404 324.242 570.647 326.437C565.475 326.437 559.027 327.647 553.766 327.221C535.394 325.733 518.356 324.352 515.796 341.983C515.796 361.004 517.503 391 518.357 403.62L452.513 392.646L376.61 384.05Z" fill="#A1B3B8"/>
<path d="M618.566 352.409V391.183C629.662 394.475 655.439 396.707 658.072 388.805C661.365 378.929 663.742 358.261 618.566 352.409Z" fill="#A1B3B8"/>
</mask>
<g mask="url(#mask0_2765_9307)">
<rect x="115.431" y="118.48" width="587.837" height="354.458" fill="#F365A9"/>
<path d="M439.893 192.555C462.573 190.214 457.147 158.902 452.879 147.379C450.013 133.844 432.76 130.735 413.19 132.015C414.717 132.569 416.239 133.074 417.741 133.572C428.655 137.195 438.551 143.04 442.088 162.01C445.307 179.276 436.967 186.885 403.131 193.469C404.96 194.445 417.214 194.896 439.893 192.555Z" fill="#DA3987"/>
<path d="M321.214 270.232C321.921 270.541 322.663 270.841 323.427 271.149C328.753 273.297 335.085 275.85 337.287 284.919C339.774 295.161 342.225 300.648 343.14 302.111L354.479 278.517L347.712 264.617L338.933 255.472C322.228 247.79 294.306 223.062 316.254 185.604C299.61 211.21 294.489 219.807 297.415 236.085C300.272 251.979 312.023 263.688 317.343 267.977C316.712 297.663 301.12 360.019 243.46 375.454C185.517 390.964 189.912 402.462 202.471 403.62L223.158 388.805L253.885 386.428C263.457 382.343 285.6 369.747 297.598 352.043C312.596 329.912 326.679 293.515 324.484 274.859C323.183 272.891 322.104 271.379 321.214 270.232Z" fill="#DA3987"/>
<path d="M317.351 399.962C346.907 388.257 349.907 353.384 347.712 337.411C365.124 349.848 377.037 344.91 380.817 340.886L375.147 385.33C366.002 388.196 341.64 395.134 317.351 399.962Z" fill="#DA3987"/>
<path d="M495.495 353.872C497.689 368.747 504.493 398.792 514.15 399.962C486.789 398.499 468.243 395.085 462.39 393.561L453.245 391.183L454.342 385.513L464.402 381.306L495.495 353.872Z" fill="#DA3987"/>
<path d="M529.148 340.886C518.174 331.96 513.845 291.564 513.053 272.482L507.017 334.119C504.335 340.703 500.323 356.871 505.737 368.869C512.504 383.867 542.865 352.043 529.148 340.886Z" fill="#DA3987"/>
<path d="M618.403 353.872L616.939 389.72L637.058 393.561H644.557L651.142 389.72C640.716 391.244 619.573 386.208 618.403 353.872Z" fill="#DA3987"/>
<path d="M504.091 222.55C499.579 230.354 493.263 247.059 504.091 251.448C517.625 256.935 540.488 247.973 541.402 233.158C543.597 249.436 535.549 265.348 509.029 265.348C495.677 265.348 482.692 248.827 482.692 239.011C461.914 243.547 441.844 227.001 434.406 218.16C458 222.672 497.506 213.039 498.421 192.555C499.476 168.916 478.707 159.799 469.24 156.678L469.237 156.677C468.891 156.563 468.552 156.451 468.223 156.341C468.708 156.352 469.241 156.357 469.814 156.362C475.572 156.415 490.719 160.527 497.506 167.315C498.092 167.9 498.684 168.486 499.279 169.075C508.166 177.876 517.601 187.219 511.772 200.419C506.798 211.686 504.578 219.867 504.091 222.55Z" fill="#DA3987"/>
</g>
<mask id="mask1_2765_9307" style="mask-type:alpha" maskUnits="userSpaceOnUse" x="344" y="216" width="170" height="277">
<path d="M372.221 414.228C374.705 406.773 378.838 362.376 380.427 342.227C379.022 342.829 374.404 344.543 370.94 344.543C355.004 344.543 352.65 339.239 346.432 317.474C341.457 300.062 348.505 283.028 352.65 276.688L348.261 263.885C348.139 263.153 357.04 260.812 393.62 257.3C430.199 253.789 435.118 228.219 432.924 216.697C454.689 235.901 465.846 236.084 481.575 236.084C490.354 262.422 506.042 267.238 513.967 265.714C513.662 268.274 512.723 278.736 511.407 300.099C509.212 338.142 498.055 349.481 488.91 362.102C481.594 372.198 461.231 383.745 451.964 388.256C454.098 395.999 458.695 413.825 460.012 423.19C456.72 426.482 444.831 460.318 438.43 487.021C430.675 495.654 414.226 492.935 406.971 490.497C398.009 468.488 378.512 422.422 372.221 414.228Z" fill="#FFFFFE"/>
</mask>
<g mask="url(#mask1_2765_9307)">
<rect x="311.498" y="189.079" width="235.574" height="332.876" fill="white"/>
<path d="M380.203 301.53C383.161 295.312 385.577 285.607 378.561 274.931C377.89 273.911 378.579 272.449 379.797 272.355C396.957 271.026 436.049 259.08 433.126 229.683C432.824 230.541 432.559 229.681 432.272 230.733C429.253 241.782 423.738 261.968 346.249 259.129L351.168 277.419C353.151 274.767 358.527 271.698 363.056 274.931C368.272 278.654 372.724 289.615 375.488 300.731C376.058 303.024 379.187 303.664 380.203 301.53Z" fill="#FAC3DE"/>
<path d="M450.665 385.064C436.872 381.838 408.583 373.793 393.106 361.731C391.09 360.161 387.216 362.448 388.492 364.662C400.075 384.747 423.939 405.22 435.87 412.865C442.515 415.974 449.002 437.812 448.124 454.2C450.476 448.947 453.633 440.448 456.217 433.494C458.455 427.47 460.263 422.604 460.744 422.01L450.665 385.064Z" fill="#FAC3DE"/>
</g>
<path d="M515.065 344.36L520.734 449.71L532.989 443.675C531.952 441.358 529.258 434.969 526.77 427.945C524.283 420.922 536.871 418.556 542.297 417.337C541.688 416.544 540.98 415.983 539.371 406.18C537.761 396.377 531.689 383.5 556.034 387.707C556.644 382.708 560.241 373.441 569.751 376.368C589.797 380.465 613.018 413.313 621.127 427.945C620.212 408.436 617.835 353.176 620.029 340.153C622.224 327.131 613.262 326.587 607.977 326.619C588.224 326.741 545.279 326.912 531.525 326.619C517.771 326.327 514.821 338.325 515.065 344.36Z" fill="#FAC3DE"/>
<rect x="528.763" y="339.045" width="43.3188" height="41.9615" rx="8.77915" transform="rotate(-1.43761 528.763 339.045)" fill="#651A3E"/>
<mask id="mask2_2765_9307" style="mask-type:alpha" maskUnits="userSpaceOnUse" x="146" y="375" width="519" height="359">
<path d="M566.989 553.23L540.651 695.16C541.2 705.402 554.734 726.582 597.898 720.583C652.951 715.462 660.816 708.146 663.559 681.077C666.303 654.008 659.535 542.988 652.037 513.724C649.11 501.141 653.317 491.289 655.877 488.484C658.56 472.999 658.784 432.517 630.637 415.69C625.663 412.179 622.121 417.459 621.146 419.898L626.065 437.09C615.823 417.276 590.034 373.989 569.203 375.453C559.838 374.429 558.453 385.085 557.661 389.719C538.254 384.231 536.188 389.609 538.822 403.802C539.993 409.655 541.078 413.618 542.114 416.605C536.505 415.812 525.69 418.397 528.031 428.493C530.372 438.589 534.676 443.796 535.713 444.954C530.531 447.393 519.179 452.16 522.544 459.769C525.909 467.378 553.576 526.161 566.989 553.23Z" fill="#FFFFFE"/>
<path d="M161.502 610.844C190.156 611.819 249.769 615.014 264.84 612.673C283.13 615.16 320.868 620.172 337.451 622.367C352.509 623.708 387.877 623.098 398.558 622.367C411.91 621.452 442.8 627.122 450.665 631.877C460.907 634.657 493.239 645.107 506.651 649.252C508.419 655.654 505.827 668.384 488.708 669.554C495.731 677.748 505.839 690.527 509.01 694.063C512.85 698.818 512.485 705.037 492.732 705.037C498.584 713.999 499.865 724.973 470.784 720.583C468.772 732.288 457.249 738.032 441.154 728.082L420.669 711.922C419.938 718.567 415.585 730.614 402.562 730.761C387.931 718.763 370.433 697.842 364.702 689.124C362.081 686.198 353.289 682.064 332.512 684.552C311.735 687.039 227.467 696.44 188.936 700.647C177.257 703.076 166.331 704.845 158.027 699.184C150.076 693.764 144.436 681.315 146.87 665.713C151.664 634.977 154.892 619.549 156.929 612.673C157.006 612.413 160.385 612.124 161.502 610.844Z" fill="#FFFFFE"/>
</mask>
<g mask="url(#mask2_2765_9307)">
<rect x="127.868" y="358.443" width="555.647" height="395.793" fill="white"/>
<path d="M627.548 441.48C629.405 446.147 632.691 455.71 633.97 463.578C634.167 464.786 636.108 465.045 636.427 463.863C639.669 451.86 637.999 439.218 625.664 421.213C625.063 420.335 623.749 420.758 623.813 421.821C624.326 430.334 626.568 438.897 627.548 441.48Z" fill="#FAC3DE"/>
<path d="M564.651 546.81C565.715 560.547 552.855 623.439 545.998 654.451C545.982 654.524 545.961 654.586 545.931 654.654C543.62 659.904 539.31 675.914 540.105 699.064C540.115 699.371 540.022 704.149 540.258 704.347C562.658 723.176 590.924 724.194 608.736 721.315C610.041 721.104 611.836 717.36 610.519 717.474C589.638 719.279 561.617 716.159 568.288 686.015C576.073 650.84 569.228 579.518 564.651 546.81C564.608 546.243 564.54 545.76 564.447 545.366L564.651 546.81Z" fill="#FAC3DE"/>
<path d="M460.378 694.795C456.873 691.549 434.711 680.102 423.798 675.042C435.484 685.65 460.42 707.963 470.052 718.754C477.124 720.279 498.402 722.778 494.397 710.341C486.533 717.108 465.316 699.367 460.378 694.795Z" fill="#FAC3DE"/>
<path d="M444.263 661.507L510.473 700.282C507.546 706.317 494.543 704.964 487.081 700.282C477.753 694.429 445.727 663.885 444.263 661.507Z" fill="#FAC3DE"/>
<path d="M503.706 657.849C496.536 661.507 469.869 645.229 455.237 636.084L487.976 669.737C493.097 669.189 505.169 663.702 503.706 657.849Z" fill="#FAC3DE"/>
<path d="M160.972 609.93C191.456 621.696 281.832 640.693 399.473 622.55C358.137 622.55 308.206 615.965 282.966 611.941C262.774 608.722 244.923 609.259 238.522 609.93C217.915 610.905 173.556 612.271 160.972 609.93Z" fill="#FAC3DE"/>
</g>
<mask id="mask3_2765_9307" style="mask-type:alpha" maskUnits="userSpaceOnUse" x="137" y="382" width="429" height="324">
<path d="M312.485 604.619C310.339 613.318 152.055 616.74 137.98 606.455C137.98 603.285 143.724 591.384 152.357 586.702C160.99 582.02 176.317 546.464 183.815 530.186C203.325 496.593 248.033 427.25 257.397 419.349C266.761 411.448 340.982 391.488 377.013 382.404L373.318 414.411L408.983 491.96C421.238 495.801 432.394 491.96 438.979 485.559C441.466 469.463 453.916 436.176 459.829 421.544L453.062 391.549L518.54 402.34L520.552 459.404L565.179 552.683L542.317 681.992C532.501 693.576 515.96 709.793 493.646 703.94C508.717 705.257 512.18 700.587 510.473 696.075C505.779 691.259 492.695 675.408 487.428 668.823C504.401 668.384 506.022 656.447 505.352 650.168C491.086 645.961 459.481 635.975 446.458 631.146C436.216 623.281 392.32 623.464 380.066 624.745C370.263 625.769 330.288 620.477 312.485 618.16V604.619Z" fill="#A1B3B8"/>
</mask>
<g mask="url(#mask3_2765_9307)">
<rect x="124.575" y="380.392" width="458.345" height="337.266" fill="#F7CB98"/>
<path d="M337.47 437.456C338.202 414.777 363.381 393.499 375.879 385.696L373.135 414.777L411.727 494.155L440.991 489.217L436.967 503.666L506.469 441.663L431.663 561.279L429.468 521.224V516.103C406.484 497.264 355.906 455.161 337.47 437.456Z" fill="#F1A54C"/>
<path d="M482.509 416.971L518.54 414.777V404.169L457.635 395.024L482.509 416.971Z" fill="#F1A54C"/>
<path d="M500.433 680.895C538.622 650.314 544.877 571.155 539.39 555.06C539.39 555.06 524.645 519.084 522.564 494.704C521.61 483.53 522.91 465.257 522.91 465.257C526.568 473.304 554.332 510.433 563.697 523.602C573.061 536.77 569.488 558.291 567.903 563.108C561.502 596.395 547.748 668.238 543.943 689.308C537.359 701.306 512.931 704.55 503.725 705.586C501.103 704.976 497.141 703.538 502.262 702.66C507.383 701.782 508.419 696.807 508.297 694.429C507.383 692.722 504.53 687.625 500.433 680.895Z" fill="#F1A54C"/>
<path d="M303.451 519.029C290.221 548.293 261.201 607.296 250.959 609.198C272.468 609.198 300.28 605.296 311.498 603.345L303.451 519.029Z" fill="#F1A54C"/>
</g>
<path d="M597.647 457.337L556.343 386.582C557.207 380.902 562.122 370.653 574.865 375.098C600.648 387.545 621.541 425.232 628.765 442.519C627.406 437.58 624.542 426.22 623.949 420.293C623.356 414.365 628.765 413.862 631.358 414.18C632.649 416.24 629.987 413.328 644.509 430.665C662.66 452.336 658.585 483.453 653.214 494.196C648.917 502.79 651.424 513.583 653.214 517.905C657.968 549.639 666.957 622.703 664.883 661.081C662.29 709.054 655.622 715.536 600.981 720.352C557.269 724.205 542.019 707.757 539.858 699.052L566.43 559.329C567.336 554.563 566.665 549.632 564.518 545.283L524.67 464.561C521.274 459.374 518.817 448.446 536.154 446.224" stroke="#651A3E" stroke-width="6" stroke-linecap="round" stroke-linejoin="round"/>
<path d="M556.899 387.693C552.083 386.52 539.565 387.198 537.176 394.841C534.398 403.732 559.739 450.237 576.162 476.97" stroke="#651A3E" stroke-width="6" stroke-linecap="round" stroke-linejoin="round"/>
<path d="M544.489 419.366C543.192 417.39 538.673 415.143 534.672 417.514C532.971 418.522 531.456 419.811 530.199 421.088C527.73 423.598 527.582 427.388 529.048 430.59L554.861 486.972" stroke="#651A3E" stroke-width="6" stroke-linecap="round" stroke-linejoin="round"/>
<path d="M157.19 612.367C147.249 644.349 136.334 707.201 172.193 702.756C208.052 698.31 298.02 688.679 338.522 684.419C345.19 682.381 361.082 681.826 371.306 695.903C381.53 709.979 392.854 723.501 397.237 728.502C399.83 730.601 406.498 733.54 412.425 728.502C419.834 722.204 421.687 719.24 418.538 714.24C416.019 710.239 403.288 698.619 397.237 693.309L442.987 728.502C448.359 731.774 460.917 736.355 468.177 728.502C475.438 720.648 459.101 706.213 450.026 699.977L423.539 676.639" stroke="#651A3E" stroke-width="6" stroke-linecap="round" stroke-linejoin="round"/>
<path d="M469.659 719.611C477.747 720.475 495.442 725.019 496.331 714.795C497.442 702.015 462.065 687.753 443.913 663.303" stroke="#651A3E" stroke-width="6" stroke-linecap="round" stroke-linejoin="round"/>
<path d="M262.462 611.21C291.604 615.593 356.007 625.185 374.825 624.592C398.349 623.851 438.727 622.555 451.137 634.038C461.065 643.225 493.429 676.886 508.37 692.569C512.26 698.31 514.261 708.646 491.145 704.052" stroke="#651A3E" stroke-width="6" stroke-linecap="round" stroke-linejoin="round"/>
<path d="M448.287 631.695L504.716 649.125C506.324 649.621 507.418 651.145 507.088 652.795C505.298 661.754 497.085 674.259 484.684 667.726" stroke="#651A3E" stroke-width="6" stroke-linecap="round" stroke-linejoin="round"/>
<path d="M312.942 618.16L301.848 518.645" stroke="#651A3E" stroke-width="6" stroke-linecap="round" stroke-linejoin="round"/>
<path d="M311.109 605.329C268.693 612.182 177.263 619.163 144.594 607.366C124.591 600.143 150.522 601.439 170.34 558.468M376.042 380.574C371.653 384.598 285.733 409.735 271.471 412.142C260.062 414.069 248.072 428.257 243.503 435.11C237.56 444.065 229.189 456.973 220.084 471.475" stroke="#651A3E" stroke-width="6" stroke-linecap="round" stroke-linejoin="round"/>
<path d="M380.197 339.35C378.777 366.208 372.677 430.035 362.601 440.111" stroke="#651A3E" stroke-width="6" stroke-linecap="round" stroke-linejoin="round"/>
<path d="M376.408 381.672C364.307 391.303 339.448 416.106 334.262 438.629" stroke="#651A3E" stroke-width="6" stroke-linecap="round" stroke-linejoin="round"/>
<path d="M372.973 413.439L411.159 500.739" stroke="#651A3E" stroke-width="6" stroke-linecap="round" stroke-linejoin="round"/>
<path d="M452.063 386.952L461.09 424.287" stroke="#651A3E" stroke-width="6" stroke-linecap="round" stroke-linejoin="round"/>
<path d="M439.283 487.898C444.098 465.672 456.545 420.737 467.807 418.811" stroke="#651A3E" stroke-width="6" stroke-linecap="round" stroke-linejoin="round"/>
<path d="M453.043 390.451L508.37 440.296L439.283 502.901" stroke="#651A3E" stroke-width="6" stroke-linecap="round" stroke-linejoin="round"/>
<path d="M411.129 500.679L428.54 517.719L436.582 603.528" stroke="#651A3E" stroke-width="6" stroke-linecap="round" stroke-linejoin="round"/>
<path d="M439.142 487.936C432.721 491.579 416.287 497.383 406.952 490.863" stroke="#651A3E" stroke-width="6" stroke-linecap="round" stroke-linejoin="round"/>
<path d="M450.121 492.943C449.997 486.399 452.381 470.309 462.901 458.307" stroke="#651A3E" stroke-width="6" stroke-linecap="round" stroke-linejoin="round"/>
<path d="M186.825 587.733C216.399 589.153 282.029 590.141 307.96 582.732" stroke="#651A3E" stroke-width="6" stroke-linecap="round" stroke-linejoin="round"/>
<path fill-rule="evenodd" clip-rule="evenodd" d="M446.365 524.39C449.38 524.459 452.121 526.135 453.141 528.962C454.269 532.092 453.859 535.775 451.192 537.774C448.402 539.864 444.546 539.565 441.723 537.52C438.901 535.477 437.407 531.909 438.566 528.631C439.654 525.555 443.091 524.316 446.365 524.39Z" fill="#651A3E"/>
<path d="M522.447 455.114L516.335 343.054C515.1 337.004 517.52 325.014 537.08 325.458C556.639 325.903 592.276 325.643 607.649 325.458C612.342 324.717 621.467 326.755 620.43 340.832C619.392 354.909 619.963 402.36 620.395 425.019" stroke="#651A3E" stroke-width="6" stroke-linecap="round" stroke-linejoin="round"/>
<path d="M454.689 391.914L519.435 402.888" stroke="#651A3E" stroke-width="6" stroke-linecap="round" stroke-linejoin="round"/>
<path d="M402.979 366.948C417.735 377.63 451.544 395.139 468.733 379.729C490.219 360.466 504.666 351.76 509.111 327.681C512.668 308.418 514.421 277.548 514.853 264.521" stroke="#651A3E" stroke-width="6" stroke-linecap="round" stroke-linejoin="round"/>
<path d="M383.346 336.202C380.32 340.277 370.973 347.204 357.785 342.314C344.597 337.424 340.374 303.047 348.153 285.821C353.758 273.411 365.49 262.113 370.38 290.267" stroke="#651A3E" stroke-width="6" stroke-linecap="round" stroke-linejoin="round"/>
<path d="M479.599 336.431C459.278 355.947 448.611 344.766 444.509 333.31C443.322 329.997 444.933 326.348 448.255 325.19C463.936 319.724 483.842 327.929 480.629 335.099C480.401 335.608 480.001 336.045 479.599 336.431Z" fill="#651A3E"/>
<path d="M347.144 327.534C348.503 341.302 342.729 374.899 301.054 404.534" stroke="#651A3E" stroke-width="6" stroke-linecap="round" stroke-linejoin="round"/>
<ellipse cx="429.466" cy="286.006" rx="10.1872" ry="15.003" fill="#651A3E"/>
<path d="M495.961 287.859C495.961 296.145 491.4 302.862 485.773 302.862C480.147 302.862 475.586 296.145 475.586 287.859C475.586 279.573 480.147 272.856 485.773 272.856C491.4 272.856 495.961 279.573 495.961 287.859Z" fill="#651A3E"/>
<path d="M484.847 275.625C488.181 273.772 491.774 279.662 501.702 274.328" stroke="#651A3E" stroke-width="6" stroke-linecap="round" stroke-linejoin="round"/>
<path d="M430.577 273.773C427.243 271.921 423.65 277.811 413.722 272.476" stroke="#651A3E" stroke-width="6" stroke-linecap="round" stroke-linejoin="round"/>
<path d="M357.044 258.408C391.681 260.569 453.804 252.296 425.206 201.916C419.427 192.877 407.857 192.099 402.794 192.84" stroke="#651A3E" stroke-width="6" stroke-linecap="round" stroke-linejoin="round"/>
<path d="M303.066 205.906C283.916 248.143 309.885 264.612 325.472 270.622C326.146 270.882 326.849 271.016 327.554 271.179C332.155 272.241 339.837 278.023 344.218 305.403M407.795 130.003C437.245 131.856 454.101 136.671 457.805 163.899" stroke="#651A3E" stroke-width="6" stroke-linecap="round" stroke-linejoin="round"/>
<path d="M430.729 213.405C446.72 229.025 483.217 251.926 503.369 220.067C517.538 197.668 511.716 180.914 499.499 169.326" stroke="#651A3E" stroke-width="6" stroke-linecap="round" stroke-linejoin="round"/>
<path d="M481.884 237.848C488.305 253.098 505.181 276.197 529.856 256.37C560.973 231.366 531.428 212.301 523.093 212.856" stroke="#651A3E" stroke-width="6" stroke-linecap="round" stroke-linejoin="round"/>
<path d="M521.521 263.595C526.155 277.947 541.203 304.021 570.281 325.733M620.059 390.472C680.442 406.586 664.142 359.169 625.616 353.242C623.913 352.734 622.234 352.207 620.578 351.663" stroke="#651A3E" stroke-width="6" stroke-linecap="round" stroke-linejoin="round"/>
<path d="M497.67 353.139C496.991 360.363 497.516 376.247 505.222 386.026" stroke="#651A3E" stroke-width="6" stroke-linecap="round" stroke-linejoin="round"/>
<path d="M351.717 279.249C353.445 273.754 352.895 261.372 337.04 253.222" stroke="#651A3E" stroke-width="6" stroke-linecap="round" stroke-linejoin="round"/>
<path d="M324.259 271.374C325.432 292.366 316.851 340.312 275.546 372.505C262.951 382.322 253.875 386.952 233.5 386.952C192.399 386.952 184.087 455.776 248.013 428.704" stroke="#651A3E" stroke-width="6" stroke-linecap="round" stroke-linejoin="round"/>
<path d="M230.338 350.825C213.89 357.048 203.111 353.418 193.294 352.492C166.622 348.417 138.829 391.004 196.618 396.487" stroke="#651A3E" stroke-width="6" stroke-linecap="round" stroke-linejoin="round"/>
<path d="M585.635 256.404C587.529 256.212 589.219 257.592 589.411 259.486L594.236 307.219C594.427 309.113 593.047 310.803 591.153 310.994C589.259 311.186 587.569 309.806 587.378 307.912L582.553 260.179C582.361 258.285 583.741 256.595 585.635 256.404Z" fill="#EE8E1F"/>
<path d="M671.853 296.441C672.953 297.994 672.585 300.145 671.032 301.245L639.153 323.819C637.599 324.919 635.448 324.552 634.348 322.998C633.248 321.445 633.616 319.294 635.169 318.194L667.049 295.62C668.602 294.52 670.753 294.887 671.853 296.441Z" fill="#EE8E1F"/>
<path d="M672.491 373.432C670.61 373.144 668.851 374.435 668.563 376.317C668.275 378.198 669.567 379.957 671.448 380.245L705.223 385.415C707.105 385.703 708.863 384.411 709.151 382.529C709.439 380.648 708.147 378.889 706.266 378.601L672.491 373.432Z" fill="#EE8E1F"/>
<path d="M632.744 262.972C632.846 262.15 632.262 261.402 631.44 261.3C630.618 261.199 629.87 261.783 629.768 262.605L629.033 268.556C628.931 269.378 629.515 270.126 630.337 270.228C631.159 270.329 631.907 269.745 632.009 268.924L632.744 262.972Z" fill="#F03F94"/>
<path d="M624.937 265.029C625.038 264.207 624.455 263.459 623.633 263.357C622.811 263.255 622.063 263.839 621.961 264.661L621.594 267.637C621.492 268.459 622.076 269.207 622.898 269.309C623.719 269.41 624.468 268.826 624.569 268.004L624.937 265.029Z" fill="#F03F94"/>
<path d="M639.816 266.867C639.917 266.045 639.333 265.297 638.512 265.195C637.69 265.094 636.941 265.678 636.84 266.499L636.472 269.475C636.371 270.297 636.955 271.045 637.776 271.147C638.598 271.248 639.346 270.665 639.448 269.843L639.816 266.867Z" fill="#F03F94"/>
<path fill-rule="evenodd" clip-rule="evenodd" d="M644.844 275.071C644.846 275.061 644.847 275.051 644.848 275.042C644.95 274.22 644.366 273.472 643.544 273.37L616.762 270.061C615.94 269.959 615.192 270.543 615.09 271.365C614.505 276.106 615.124 280.687 617.197 284.284C619.301 287.935 622.839 290.45 627.763 291.058C632.687 291.666 636.73 290.089 639.66 287.06C640.432 286.261 641.121 285.369 641.726 284.4C642.108 284.496 642.503 284.571 642.909 284.621C644.589 284.829 646.233 284.59 647.546 283.959C648.842 283.335 650.004 282.215 650.202 280.613C650.4 279.011 649.546 277.641 648.441 276.721C647.488 275.928 646.233 275.352 644.844 275.071ZM643.56 280.573C643.855 279.752 644.106 278.9 644.315 278.023C645.247 278.222 646.009 278.599 646.522 279.026C647.152 279.55 647.257 279.999 647.226 280.245C647.196 280.492 646.985 280.901 646.246 281.257C645.525 281.604 644.473 281.793 643.277 281.645C643.234 281.64 643.192 281.635 643.151 281.629C643.295 281.283 643.432 280.931 643.56 280.573Z" fill="#F03F94"/>
<path d="M673.947 338.268C672.969 337.989 672.403 336.976 672.681 335.999C672.714 335.884 672.757 335.778 672.814 335.67C673.499 334.487 678.338 326.925 689.107 329.99C699.875 333.055 700.007 342.032 699.967 343.398C699.964 343.522 699.939 343.633 699.906 343.748C699.628 344.725 698.614 345.289 697.635 345.01L673.947 338.268ZM680.643 333.877C680.716 333.62 680.684 333.344 680.553 333.11C680.423 332.876 680.205 332.703 679.947 332.63C679.689 332.556 679.412 332.588 679.178 332.718C678.944 332.849 678.771 333.066 678.698 333.324C678.625 333.581 678.657 333.857 678.787 334.091C678.918 334.325 679.136 334.498 679.394 334.571C679.652 334.645 679.928 334.613 680.163 334.483C680.397 334.352 680.569 334.135 680.643 333.877ZM694.951 338.999C695.209 339.073 695.486 339.041 695.72 338.911C695.954 338.781 696.127 338.563 696.2 338.305C696.273 338.048 696.241 337.772 696.111 337.538C695.98 337.304 695.762 337.131 695.504 337.058C695.246 336.985 694.97 337.016 694.735 337.147C694.501 337.277 694.329 337.494 694.255 337.752C694.182 338.009 694.214 338.285 694.345 338.519C694.475 338.753 694.693 338.926 694.951 338.999ZM688.974 334.15C689.047 333.892 689.015 333.616 688.885 333.382C688.754 333.148 688.536 332.976 688.278 332.902C688.02 332.829 687.744 332.861 687.509 332.991C687.275 333.121 687.103 333.339 687.029 333.596C686.956 333.854 686.988 334.13 687.119 334.364C687.249 334.598 687.467 334.77 687.725 334.844C687.983 334.917 688.26 334.885 688.494 334.755C688.728 334.625 688.901 334.407 688.974 334.15ZM669.825 342.341C670.282 340.734 671.96 339.801 673.571 340.259L696.906 346.902C698.517 347.36 699.452 349.036 698.995 350.644C698.537 352.252 696.859 353.185 695.249 352.726L671.913 346.084C670.302 345.626 669.367 343.949 669.825 342.341ZM669.139 348.443C669.291 347.909 669.853 347.597 670.388 347.749L695.668 354.944C696.203 355.097 696.516 355.658 696.364 356.192L696.088 357.163C695.478 359.304 693.239 360.549 691.093 359.939L671.647 354.403C669.502 353.793 668.253 351.555 668.863 349.413L669.139 348.443Z" fill="#F03F94"/>
<path d="M653.875 415.817C653.209 417.451 653.833 419.211 655.14 420.1L656.067 420.724C657.013 421.361 658.306 420.917 658.758 419.87C663.464 408.974 675.037 402.794 686.065 405.281C687.16 405.528 688.276 404.786 688.358 403.666L688.454 402.348C688.576 400.697 687.613 399.117 685.984 398.706C672.928 395.4 659.196 402.717 653.875 415.817ZM687.961 409.179C687.993 408.736 687.729 408.321 687.308 408.181C676.211 404.499 664.088 410.96 660.221 422.615C660.074 423.06 660.252 423.546 660.64 423.808L684.008 439.575C684.355 439.812 684.805 439.831 685.182 439.631C685.558 439.43 685.813 439.035 685.842 438.597L687.961 409.179ZM668.472 420.148C668.679 419.526 669.112 419.008 669.676 418.707C670.24 418.407 670.89 418.348 671.482 418.544C672.074 418.741 672.56 419.176 672.832 419.755C673.105 420.333 673.142 421.007 672.936 421.629C672.73 422.251 672.297 422.769 671.732 423.07C671.168 423.371 670.518 423.429 669.926 423.233C669.335 423.037 668.849 422.601 668.576 422.023C668.303 421.444 668.266 420.77 668.472 420.148ZM678.955 418.421C678.364 418.225 677.878 417.79 677.605 417.211C677.332 416.633 677.295 415.958 677.501 415.337C677.708 414.715 678.141 414.197 678.705 413.896C679.269 413.595 679.919 413.536 680.511 413.733C681.103 413.929 681.589 414.364 681.861 414.943C682.134 415.521 682.171 416.196 681.965 416.818C681.759 417.439 681.326 417.958 680.761 418.258C680.197 418.559 679.547 418.618 678.955 418.421ZM678.803 430.082C678.211 429.885 677.726 429.45 677.453 428.871C677.18 428.293 677.143 427.618 677.349 426.997C677.556 426.375 677.988 425.857 678.553 425.556C679.117 425.255 679.767 425.197 680.359 425.393C680.951 425.589 681.437 426.025 681.709 426.603C681.982 427.182 682.019 427.856 681.813 428.478C681.607 429.099 681.174 429.618 680.609 429.918C680.045 430.219 679.395 430.278 678.803 430.082Z" fill="#F03F94"/>
<path d="M215.53 304.296L198.309 313.419C168.375 325.977 131.189 329.44 112.069 326.169C104.476 324.87 100.205 318.057 98.6076 310.521L93.8435 288.044C88.5091 255.296 93.8435 241.264 106.439 240.071C124.035 238.404 163.154 236.7 184.047 234.329C202.793 232.202 205.445 259.043 204.231 276.935C203.995 280.412 205.679 283.78 208.728 285.468L215.67 289.314C221.588 292.592 221.508 301.129 215.53 304.296Z" fill="#F03F94"/>
<path d="M581.398 175.441L600.679 178.278C633.089 180.099 669.292 170.925 686.215 161.447C692.937 157.683 694.683 149.832 693.667 142.196L690.638 119.421C684.712 86.7753 674.991 75.336 662.722 78.4245C645.582 82.7395 608.147 94.2189 587.664 98.9733C569.286 103.239 575.765 129.422 582.894 145.877C584.28 149.074 583.819 152.811 581.511 155.422L576.255 161.369C571.774 166.438 574.705 174.456 581.398 175.441Z" fill="#684AE2"/>
<path d="M155.557 302.564C154.954 303.109 154.083 303.238 153.348 302.891C147.578 300.16 140.347 297.178 134.565 292.079C128.471 286.708 125.051 280.772 124.105 273.931C123.054 266.292 128.254 259.183 135.695 258.083C141.601 257.21 146.036 260.067 148.467 262.242C150.165 259.456 153.584 255.438 159.49 254.565C166.931 253.465 173.965 258.765 175.17 266.378C176.249 273.203 174.692 279.871 170.408 286.777C166.349 293.334 160.29 298.28 155.557 302.564Z" fill="white"/>
<path fill-rule="evenodd" clip-rule="evenodd" d="M630.717 112.609C631.312 111.041 632.284 109.646 633.546 108.548C634.809 107.449 636.322 106.681 637.953 106.311L638.48 106.191C639.199 106.028 639.945 106.024 640.666 106.179C641.388 106.335 642.067 106.646 642.657 107.092C643.247 107.537 643.733 108.106 644.082 108.759C644.431 109.412 644.635 110.133 644.678 110.872L645.234 120.341L651.126 119.004C652.224 118.755 653.365 118.753 654.465 118.999C655.565 119.246 656.598 119.734 657.488 120.429C658.379 121.124 659.104 122.009 659.614 123.019C660.123 124.029 660.403 125.139 660.433 126.27L660.848 141.859C660.896 143.626 660.331 145.354 659.252 146.749C658.172 148.143 656.644 149.118 654.927 149.508L626.807 155.891C624.837 156.338 622.77 155.981 621.06 154.899C619.35 153.817 618.137 152.097 617.688 150.12L613.173 130.233C613.024 129.574 613.141 128.882 613.499 128.311C613.858 127.739 614.428 127.334 615.085 127.185L624.813 124.977C625.22 124.885 625.598 124.693 625.914 124.418C626.229 124.144 626.472 123.795 626.621 123.403L630.717 112.609ZM623.885 131.555C623.749 130.957 623.154 130.581 622.555 130.717L619.772 131.349C619.174 131.485 618.799 132.08 618.934 132.679L622.638 148.996C622.788 149.655 623.192 150.228 623.762 150.589C624.332 150.95 625.022 151.069 625.678 150.92L627.07 150.604C627.668 150.468 628.043 149.873 627.907 149.274L623.885 131.555Z" fill="white"/>
</svg>
