<svg width="800" height="800" viewBox="0 0 800 800" fill="none" xmlns="http://www.w3.org/2000/svg">
<path d="M604.659 317.876C585.969 321.408 584.314 347.59 584.805 355.5C623.803 356.236 705.147 356.824 718.539 353.292C718.539 345.015 717.435 326.89 701.799 317.876C699.408 292.306 686.628 287.734 681.293 287.366C675.959 286.999 673.817 282.476 669.954 274.198C662.963 284.315 648.637 281.269 630.977 283.661C613.318 286.052 609.257 294.33 604.659 317.876Z" fill="#F7CB98"/>
<path d="M587.748 491.16L572.848 348.229V344.182L675.678 352.643L733.237 344.182L710.445 552.969L706.03 562.35L683.404 569.708H667.216L629.689 534.941L587.748 491.16Z" fill="#EE8E1F"/>
<path d="M648.454 433.406C648.454 426.422 641.488 422.243 634.527 422.243C628.392 422.243 623.436 427.251 623.436 433.406C623.436 440.015 627.939 446.157 634.527 446.157C641.89 446.157 648.454 440.793 648.454 433.406Z" fill="#651A3E"/>
<path d="M601.571 433.501C607.893 431.188 614.155 435.818 616.459 442.117C618.733 448.334 616.785 455.75 610.545 458.033C603.449 460.629 595.205 457.908 592.619 450.839C590.006 443.697 594.402 436.124 601.571 433.501Z" fill="#651A3E"/>
<path d="M664.274 468.193C664.274 461.486 659.984 454.987 653.251 454.987C645.618 454.987 638.888 460.589 638.888 468.193C638.888 475.721 645.695 481.108 653.251 481.108C659.897 481.108 664.274 474.814 664.274 468.193Z" fill="#651A3E"/>
<path d="M677.15 497.314C677.15 491.595 673.277 486.259 667.574 486.259C660.511 486.259 653.236 490.232 653.236 497.314C653.236 504.658 660.25 509.437 667.574 509.437C673.597 509.437 677.15 503.354 677.15 497.314Z" fill="#651A3E"/>
<path d="M647.35 503.296C647.35 497.144 644.565 490.306 638.358 490.306C631.023 490.306 624.908 496.028 624.908 503.296C624.908 510.212 631.379 514.956 638.358 514.956C644.141 514.956 647.35 509.027 647.35 503.296Z" fill="#651A3E"/>
<path d="M608.925 494.353C615.133 494.353 617.917 501.191 617.917 507.343C617.917 511.34 616.356 515.434 613.449 517.545L597.355 500.707C599.716 496.879 604.051 494.353 608.925 494.353Z" fill="#651A3E"/>
<path d="M639.592 544.895L623.958 528.539C625.301 523.643 629.082 520.106 633.548 520.106C639.895 520.106 646.246 524.735 646.246 532.471C646.246 538.038 643.476 542.568 639.592 544.895Z" fill="#651A3E"/>
<path d="M646.976 551.84L664.834 566.053C665.28 565.506 665.698 564.918 666.085 564.289C670.135 557.698 667.147 550.429 661.739 547.106C657.114 544.265 650.618 546.403 646.976 551.84Z" fill="#651A3E"/>
<path d="M693.169 470.082C686.986 470.775 680.43 474.375 681.137 480.684C681.972 488.138 688.42 493.709 695.725 492.89C702.676 492.111 706.708 485 705.913 477.907C705.254 472.03 698.93 469.436 693.169 470.082Z" fill="#651A3E"/>
<path d="M680.741 439.167C689.141 439.167 698.121 443.48 698.121 451.96C698.121 460.479 689.179 464.92 680.741 464.92C673.459 464.92 667.217 459.312 667.217 451.96C667.217 444.653 673.504 439.167 680.741 439.167Z" fill="#651A3E"/>
<path d="M672.496 521.982C668.178 517.01 660.263 519.448 654.913 524.093C650.303 528.096 649.092 534.79 652.812 539.074C656.555 543.385 663.387 543.221 668.025 539.193C673.399 534.527 676.833 526.977 672.496 521.982Z" fill="#651A3E"/>
<path d="M617.603 464.92C624.564 464.92 631.53 469.099 631.53 476.083C631.53 483.47 624.966 488.834 617.603 488.834C611.015 488.834 606.512 482.692 606.512 476.083C606.512 469.928 611.468 464.92 617.603 464.92Z" fill="#651A3E"/>
<path d="M690.574 506.494C696.921 506.494 703.272 511.123 703.272 518.859C703.272 527.041 697.287 532.983 690.574 532.983C684.567 532.983 680.461 526.179 680.461 518.859C680.461 512.041 684.98 506.494 690.574 506.494Z" fill="#651A3E"/>
<path d="M699.961 548.407C699.961 541.676 693.659 537.03 686.836 537.03C681.135 537.03 677.886 542.783 677.886 548.407C677.886 554.049 681.118 559.84 686.836 559.84C693.674 559.84 699.961 555.153 699.961 548.407Z" fill="#651A3E"/>
<path d="M556.272 185C550.644 181.503 543.659 179.666 535.314 179.489L535.382 160.868L520.072 161.706L522.044 180.351C513.503 181.543 506.762 184.177 501.822 188.253C496.971 192.323 494.754 198.152 495.169 205.739C495.466 211.158 497.234 215.319 500.473 218.222C503.707 221.035 507.391 222.962 511.525 224.004C515.749 225.041 521.097 225.926 527.569 226.659C532.948 227.27 536.834 227.918 539.226 228.602C541.619 229.287 542.865 230.532 542.964 232.339C543.157 235.861 539.505 237.828 532.008 238.238C529.208 238.391 526.512 237.95 523.918 236.915C521.41 235.784 520.027 233.685 519.769 230.619L519.739 230.077L494.674 231.449C495.075 238.765 498.234 244.345 504.152 248.188C510.065 251.941 517.381 254.032 526.102 254.461L526.177 273.209L541.487 272.371L539.387 253.869C548.565 252.733 555.8 250.026 561.092 245.75C566.475 241.47 568.941 235.22 568.491 227C568.184 221.4 566.366 217.151 563.037 214.253C559.703 211.265 555.881 209.3 551.571 208.358C547.257 207.326 541.914 206.532 535.542 205.975C530.349 205.444 526.603 204.879 524.306 204.28C522.008 203.681 520.812 202.523 520.718 200.807C520.55 197.736 523.718 196.023 530.221 195.667C532.66 195.533 534.857 195.956 536.813 196.936C538.855 197.821 539.99 199.525 540.219 202.05L565.283 200.677C564.898 193.632 561.894 188.406 556.272 185Z" fill="#FADCBA"/>
<path d="M357.477 457.942C352.459 453.615 345.842 450.718 337.626 449.251L340.578 430.865L325.323 429.322L324.383 448.047C315.76 447.902 308.693 449.46 303.18 452.721C297.758 455.991 294.664 461.406 293.899 468.965C293.353 474.365 294.455 478.75 297.205 482.12C299.965 485.399 303.306 487.874 307.228 489.544C311.241 491.223 316.387 492.925 322.668 494.652C327.887 496.089 331.625 497.331 333.883 498.378C336.141 499.424 337.179 500.848 336.997 502.648C336.642 506.158 332.729 507.535 325.259 506.779C322.469 506.497 319.874 505.643 317.472 504.218C315.17 502.712 314.128 500.425 314.348 497.356L314.402 496.816L289.428 494.289C288.69 501.579 290.947 507.58 296.198 512.294C301.458 516.918 308.362 520.117 316.911 521.891L314.081 540.425L329.336 541.968L330.127 523.364C339.371 523.663 346.938 522.11 352.829 518.706C358.809 515.311 362.214 509.518 363.042 501.328C363.607 495.748 362.469 491.269 359.629 487.89C356.798 484.422 353.326 481.888 349.215 480.29C345.112 478.602 339.957 476.99 333.748 475.452C328.7 474.123 325.087 472.985 322.91 472.037C320.733 471.09 319.731 469.761 319.904 468.051C320.214 464.991 323.608 463.789 330.088 464.444C332.518 464.69 334.624 465.449 336.404 466.72C338.284 467.91 339.141 469.77 338.977 472.299L363.951 474.826C364.661 467.806 362.503 462.178 357.477 457.942Z" fill="#FADCBA"/>
<path d="M550.22 100.693H308.138V122.4H550.22V100.693Z" fill="#FADCBA"/>
<path d="M473.328 147.418H329.108V163.605H473.328V147.418Z" fill="#FADCBA"/>
<path d="M329.108 184.208H473.328V200.396H329.108V184.208Z" fill="#FADCBA"/>
<path d="M473.328 225.414H329.108V241.602H473.328V225.414Z" fill="#FADCBA"/>
<path d="M330.58 338.115H545.07V364.972H330.58V338.115Z" fill="#FADCBA"/>
<path d="M397.171 387.414H541.391V403.602H397.171V387.414Z" fill="#FADCBA"/>
<path d="M541.391 424.205H397.171V440.393H541.391V424.205Z" fill="#FADCBA"/>
<path d="M238.237 632.253C187.466 627.691 124.86 590.373 99.9037 572.284L89.2344 575.779C74.3342 580.317 46.2997 578.465 53.3635 534.757C62.1933 480.123 161.896 403.783 184.338 388.882C206.781 373.982 212.299 383.548 223.336 393.849C232.166 402.09 229.346 412.122 226.832 416.108L215.61 428.249C228.801 443.196 258.818 470.096 267.942 512.332C279.347 565.127 327.506 596.373 338.175 612.561C348.844 628.749 344.01 632.253 334.444 637.22C324.879 642.186 301.701 637.955 238.237 632.253Z" fill="#BEAFFC"/>
<path d="M219.291 425.089C183.26 448.588 124.259 532.525 100.406 572.872C82.195 575.999 38.9521 588.156 51.7553 538.121C67.7592 475.577 148.835 407.093 180.107 391.457C211.379 375.821 216.898 386.858 224.44 396.976C231.982 407.093 227.753 419.571 219.291 425.089Z" fill="#7251F8"/>
<path d="M211.379 461.555C216.031 445.71 231.477 451.536 238.886 456.586C239.068 456.71 239.216 456.859 239.341 457.041C247.003 468.178 262.004 490.833 262.15 494.483C262.334 499.082 252.768 508.831 234.557 507.176C216.346 505.52 205.492 481.606 211.379 461.555Z" fill="#302268"/>
<path d="M156.009 561.81C129.67 568.067 136.654 588.27 143.632 597.91C143.788 598.126 143.99 598.299 144.225 598.426L171.028 612.997C171.193 613.087 171.379 613.153 171.564 613.188C200.14 618.605 203.033 600.591 200.894 590.874C197.031 578.549 182.646 555.482 156.009 561.81Z" fill="#302268"/>
<path d="M233.821 556.843C228.119 562.239 219.583 576.894 231.062 592.346C245.41 611.661 261.414 616.076 274.107 607.246C286.8 598.416 286.432 572.479 274.107 559.05C261.782 545.622 242.283 547.277 233.821 556.843Z" fill="#302268"/>
<path d="M98.9432 170.311C99.6176 152.161 108.136 109.927 131.682 95.5051C155.228 81.0832 189.734 81.2487 202.918 82.7817C225.544 87.9937 270.25 111.665 275.989 157.874C275.989 166.262 260.924 169.117 252.401 170.344L198.135 176.782H167.231L98.9432 170.311Z" fill="#F8A7CE"/>
<path d="M96.5926 251.152L94.0049 266.698L98.0287 276.758L105.528 280.599L138.718 282.003L242.1 276.117L257.552 244.293L255.16 231.232L101.927 241.717L96.5926 251.152Z" fill="#F8A7CE"/>
<path d="M86.4748 220.747H102.295L110.757 223.322L140.925 225.162L201.446 220.747L277.97 206.766L283.305 210.445L258.287 244.293L250.009 242.453H233.637L230.631 240.91L229.223 235.279L213.035 239.326L188.937 246.684L181.979 245.3L178.268 240.43L168.811 239.326L157.837 247.861L144.052 242.453L86.4748 249.811L76.4468 247.129L75.5323 234.692L72.9717 229.754L74.6178 226.827L82.4278 225.162L86.4748 220.747Z" fill="#F03F94"/>
<path d="M64.5847 176.966L101.743 169.424L176.612 176.966L215.059 175.495L253.321 169.424L277.051 162.25L278.89 155.812L313.658 165.745L317.153 173.287L313.658 180.829L303.54 176.966L268.957 180.829L186.178 203.456H162.632V199.027H134.426L107.262 194.81L79.922 192.259L56.4907 185.796V180.829L64.5847 176.966Z" fill="#F03F94"/>
<path d="M97.2974 205.794L105.055 194.442L163.368 199.409L164.238 201.953L172.566 204.008L199.607 197.753L272.636 180.83L281.659 195.003L283.857 205.847L268.589 211.918L241.18 214.309L156.378 225.898L108.454 223.901L100.224 218.414L97.2974 205.794Z" fill="#651A3E"/>
<path d="M550.405 690.38C582.577 678.033 606.421 688.655 619.638 700.298C625.867 705.784 633.886 710.01 641.921 707.927C692.556 694.802 711.024 645.799 715.295 611.486C716.487 601.917 709.963 593.44 700.698 590.767L697.2 589.758L674.757 574.49L628.585 535.124L545.806 447.194L525.939 441.308L513.614 442.595L454.933 491.159L448.127 505.875L454.933 521.143L472.777 531.261L486.205 527.766H492.276L538.264 654.509L527.779 669.962L507.176 677.872L494.483 675.664L510.855 658.005L502.393 638.873L486.941 641.081L494.483 620.11L488.045 603.738L479.951 602.635L481.79 571.363L476.456 560.509L468.178 555.727L472.777 546.713L470.201 535.124L462.843 527.766L451.438 525.558L387.054 537.699C382.517 536.963 370.94 539.98 360.933 557.934C350.926 575.888 371.602 584.055 383.191 585.895C380.371 589.942 375.024 600.795 376.201 611.832C377.673 625.629 383.927 620.478 404.346 629.86C380.922 662.05 407.63 680.253 425 685.773C425.706 685.998 426.147 686.704 426.195 687.444C426.419 690.895 428.935 698.255 438.009 708.224C478.479 729.93 498.162 710.431 550.405 690.38Z" fill="white"/>
<path d="M531.179 486.559C533.936 487.728 538.521 491.764 543.415 504.956C544.415 507.652 545.52 510.998 546.784 514.824C554.004 536.689 566.397 574.217 593.97 595.584C598.234 598.889 596.627 608.39 591.408 609.757C558.494 618.38 541.549 637.983 539.184 649.911L492.46 528.134L488.229 524.271L510.303 507.531L526.739 488.273C527.901 486.911 529.53 485.861 531.179 486.559Z" fill="#FAC3DE"/>
<path d="M497.426 674.377L472.041 695.163C487.738 696.328 521.819 692.515 532.561 667.938C543.304 643.362 513.614 661.991 497.426 674.377Z" fill="#FAC3DE"/>
<path fill-rule="evenodd" clip-rule="evenodd" d="M373.442 437.813C435.923 437.813 486.574 387.162 486.574 324.682C486.574 262.201 435.923 211.55 373.442 211.55C310.962 211.55 260.311 262.201 260.311 324.682C260.311 387.162 310.962 437.813 373.442 437.813ZM366.943 275.642C356.187 306.25 338.123 360.404 338.123 371.841C338.123 387.109 358.254 395.755 360.934 383.43C362.741 375.116 371.118 313.534 374.726 277.361C374.847 276.141 374.401 274.952 373.521 274.1C371.417 272.062 367.914 272.879 366.943 275.642ZM400.685 295.997C393.927 317.528 384.263 354.107 383.192 363.747C381.904 375.336 393.677 370.737 395.333 361.907C396.199 357.288 402.917 317.724 406.356 297.405C406.485 296.646 406.31 295.882 405.875 295.248C404.49 293.234 401.417 293.665 400.685 295.997Z" fill="#EE8E1F" fill-opacity="0.37"/>
<path d="M387.607 492.632C384.602 484.722 378.52 468.497 378.225 466.878L470.202 418.499L478.48 456.025L387.607 492.632Z" fill="#F03F94"/>
<path fill-rule="evenodd" clip-rule="evenodd" d="M375.801 470.72C374.102 470.779 372.396 470.808 370.683 470.808C290.22 470.808 224.992 405.58 224.992 325.117C224.992 244.654 290.22 179.426 370.683 179.426C451.146 179.426 516.374 244.654 516.374 325.117C516.374 364.782 500.524 400.744 474.811 427.016L482.821 454.175C483.629 456.914 482.214 459.816 479.56 460.867L471.188 464.183L475.706 475.896L471.248 478.918L457.509 490.424L448.863 507.9L458.981 521.696L467.627 528.502L476.64 530.894L487.561 527.072L487.264 526.299L493.748 522.665L532.132 622.165L532.142 622.194L532.148 622.207C534.817 629.386 537.014 635.634 538.437 641.109C539.857 646.574 540.575 651.522 540.108 656.058C539.118 665.675 532.984 672.132 521.732 677.902C510.121 683.857 500.899 683.361 494.198 679.819L495.732 676.917L495.22 676.769L497.249 674.047L497.636 673.314L497.674 673.334C497.699 673.347 497.725 673.361 497.751 673.374L510.304 656.534L502.946 639.61L478.664 643.657L495.22 623.79L487.862 605.579L480.687 602.268L483.447 573.203L478.664 561.43L467.627 555.728L472.226 543.954L467.627 530.894L457.509 525.743L434.192 528.075L427.613 528.875L411.09 487.984L390.064 496.311C387.085 497.491 383.731 495.894 382.768 492.838L375.801 470.72ZM383.372 470.263L389.192 488.742L475.288 454.645L468.84 432.781C445.872 453.732 416.176 467.433 383.372 470.263ZM472.961 325.117C472.961 381.604 427.17 427.395 370.683 427.395C314.197 427.395 268.405 381.604 268.405 325.117C268.405 268.63 314.197 222.839 370.683 222.839C427.17 222.839 472.961 268.63 472.961 325.117Z" fill="#651A3E"/>
<path d="M97.901 249.365C94.0353 258.201 90.1328 276.608 105.448 279.554C113.728 281.146 140.187 282.359 168.445 282.152" stroke="#651A3E" stroke-width="6" stroke-linecap="round" stroke-linejoin="round"/>
<path d="M461.632 558.24C466.725 557.688 477.472 558.435 480.418 568.743C483.245 578.64 481.775 592.044 480.567 598.203C480.474 598.674 480.208 599.073 479.807 599.337C465.066 609.048 429.882 628.232 402 630.41" stroke="#651A3E" stroke-width="6" stroke-linecap="round" stroke-linejoin="round"/>
<path d="M426.515 691.207C426.821 699.102 436.155 715.349 474.055 717.331C474.242 717.341 474.437 717.322 474.618 717.275C510.132 708.007 539.288 696.042 549.448 691.207" stroke="#651A3E" stroke-width="6" stroke-linecap="round" stroke-linejoin="round"/>
<path d="M395.557 650.842C391.998 656.549 391.655 670.612 418.751 681.215" stroke="#651A3E" stroke-width="6" stroke-linecap="round" stroke-linejoin="round"/>
<path d="M374.94 601.325C372.486 608.504 372.363 623.598 391.508 626.543" stroke="#651A3E" stroke-width="6" stroke-linecap="round" stroke-linejoin="round"/>
<path d="M366.342 550.703C357.997 559.355 347.713 578.315 373.337 584.942" stroke="#651A3E" stroke-width="6" stroke-linecap="round" stroke-linejoin="round"/>
<path d="M517.97 499.529C506.741 512.967 480.602 537.854 465.875 529.902C447.467 519.962 443.97 503.763 453.358 495.111C460.868 488.19 492.444 460.443 507.293 447.435C514.411 440.746 534.795 434.144 559.388 461.241C590.129 495.111 671.86 589.912 712.542 593.962" stroke="#651A3E" stroke-width="6" stroke-linecap="round" stroke-linejoin="round"/>
<path d="M628.97 711.957C613.384 696.065 576.47 664.28 553.497 664.28" stroke="#651A3E" stroke-width="6" stroke-linecap="round" stroke-linejoin="round"/>
<path d="M376.965 541.498C403.595 535.056 457.96 523.054 462.378 526.588C467.9 531.006 474.711 545.548 470.293 552.727C466.759 558.471 416.051 573.037 391.139 579.603" stroke="#651A3E" stroke-width="6" stroke-linecap="round" stroke-linejoin="round"/>
<path d="M474.527 603.534C479.743 604.516 487.045 601.325 489.438 610.897C490.312 614.395 493.343 620.659 493.873 623.599C495.051 630.132 486.687 640.181 429.808 670.906" stroke="#651A3E" stroke-width="6" stroke-linecap="round" stroke-linejoin="round"/>
<path d="M439.92 665.201C457.776 655.445 498.605 636.411 501.403 639.798C503.943 642.873 506.574 652.351 509.242 656.688C509.677 657.397 509.724 658.315 509.245 658.996C499.172 673.32 491.669 680.715 471.766 696.494" stroke="#651A3E" stroke-width="6" stroke-linecap="round" stroke-linejoin="round"/>
<path d="M515.577 503.395C526.806 526.405 553.718 574.265 571.537 581.628" stroke="#651A3E" stroke-width="6" stroke-linecap="round" stroke-linejoin="round"/>
<path d="M159.935 486.277C178.221 465.046 217.719 425.294 223.443 419.824C231.726 411.907 225.652 382.272 199.697 382.824C189.649 383.038 169.089 395.777 146.371 414.664M55.3784 525.302C33.1047 583.102 76.9156 579.605 93.4828 574.083C110.05 568.56 124.43 525.992 143.022 506.48" stroke="#302268" stroke-width="5.06627" stroke-linecap="round" stroke-linejoin="round"/>
<path d="M215.084 429.113C229.995 443.84 260.738 479.575 267.806 513.151C274.875 546.727 314.44 589.851 333.338 607.216C349.195 621.013 357.121 640.345 303.79 639.565M206.692 627.281C167.483 615.868 164.478 612.082 98.5776 572.689" stroke="#302268" stroke-width="5.06627" stroke-linecap="round" stroke-linejoin="round"/>
<path d="M101.03 570.584C111.645 555.98 130.814 519.778 122.567 491.798" stroke="#302268" stroke-width="5.06627" stroke-linecap="round" stroke-linejoin="round"/>
<path d="M170.796 522.723H187.832" stroke="#302268" stroke-width="5.06627" stroke-linecap="round" stroke-linejoin="round"/>
<path d="M303.607 610.366L307.935 624.15" stroke="#302268" stroke-width="5.06627" stroke-linecap="round" stroke-linejoin="round"/>
<path d="M154.597 562.485C128.24 568.746 135.229 588.963 142.211 598.609C142.368 598.826 142.57 598.999 142.805 599.127L169.626 613.707C169.791 613.797 169.978 613.863 170.163 613.898C198.759 619.319 201.653 601.293 199.513 591.569C195.647 579.236 181.252 556.152 154.597 562.485Z" stroke="#302268" stroke-width="5.06627" stroke-linecap="round" stroke-linejoin="round"/>
<path d="M210.005 462.161C214.66 446.304 230.116 452.135 237.53 457.188C237.713 457.312 237.861 457.461 237.986 457.643C245.653 468.788 260.665 491.459 260.811 495.111C260.995 499.713 251.423 509.469 233.199 507.812C214.975 506.156 204.114 482.225 210.005 462.161Z" stroke="#302268" stroke-width="5.06627" stroke-linecap="round" stroke-linejoin="round"/>
<path d="M229.702 593.042C218.215 577.579 226.756 562.914 232.463 557.514C240.93 547.942 260.443 546.286 272.776 559.723C285.109 573.161 285.478 599.116 272.776 607.952C260.075 616.788 244.06 612.37 229.702 593.042Z" stroke="#302268" stroke-width="5.06627" stroke-linecap="round" stroke-linejoin="round"/>
<path d="M588.104 492.718L580.882 427.833M731.87 350.793C730.688 364.078 728.442 386.157 725.987 409.726M668.363 569.643C688.247 569.359 705.216 566.383 708.124 557.883C711.32 548.54 713.413 529.367 718.422 481.605" stroke="#651A3E" stroke-width="6" stroke-linecap="round" stroke-linejoin="round"/>
<path d="M745.308 341.405C715.733 348.768 637.732 359.076 562.333 341.405" stroke="#651A3E" stroke-width="6" stroke-linecap="round" stroke-linejoin="round"/>
<path d="M573.562 342.509C576.2 313.854 597.087 257.06 659.527 259.121C721.967 261.183 731.441 319.254 728.373 348.032" stroke="#651A3E" stroke-width="6" stroke-linecap="round" stroke-linejoin="round"/>
<path d="M584.054 343.245C582.643 332.201 592.08 311.142 641.119 315.265C662.472 317.18 674.928 316.063 678.487 315.265" stroke="#651A3E" stroke-width="6" stroke-linecap="round" stroke-linejoin="round"/>
<path d="M608.353 303.484C610.071 294.403 618.109 281.211 645.353 281.947C651.489 282.315 664.976 281.1 669.835 273.295" stroke="#651A3E" stroke-width="6" stroke-linecap="round" stroke-linejoin="round"/>
<path d="M691.741 315.265C700.761 316.124 718.58 323.07 717.696 343.981" stroke="#651A3E" stroke-width="6" stroke-linecap="round" stroke-linejoin="round"/>
<path d="M679.224 287.47C686.403 287.654 700.835 293.544 701.129 315.634" stroke="#651A3E" stroke-width="6" stroke-linecap="round" stroke-linejoin="round"/>
<path d="M656.968 276.209L667.81 169.842" stroke="#651A3E" stroke-width="6" stroke-linecap="round" stroke-linejoin="round"/>
<path d="M99.3219 169.751C98.1721 154.585 101.062 132.895 113.052 114.893M178.711 82.2209C246.894 80.012 271.855 132.829 276.641 161.423" stroke="#651A3E" stroke-width="6" stroke-linecap="round" stroke-linejoin="round"/>
<path d="M211.11 150.146C212.949 149.547 215.549 148.803 218.326 148.174" stroke="#651A3E" stroke-width="6" stroke-linecap="round" stroke-linejoin="round"/>
<path d="M202.826 113.146C204.133 114.054 205.834 115.315 207.588 116.739" stroke="#651A3E" stroke-width="6" stroke-linecap="round" stroke-linejoin="round"/>
<path d="M167.712 105.827C166.024 106.816 163.587 108.458 161.232 110.444" stroke="#651A3E" stroke-width="6" stroke-linecap="round" stroke-linejoin="round"/>
<path d="M170.612 137.444C170.591 138.896 170.437 140.992 170.072 143.353" stroke="#651A3E" stroke-width="6" stroke-linecap="round" stroke-linejoin="round"/>
<path d="M125.514 138.585C126.847 136.976 129.054 134.904 131.733 133.344" stroke="#651A3E" stroke-width="6" stroke-linecap="round" stroke-linejoin="round"/>
<path d="M242.347 150.596C243.68 148.986 245.887 146.915 248.566 145.355" stroke="#651A3E" stroke-width="6" stroke-linecap="round" stroke-linejoin="round"/>
<path d="M276.089 156.221L294.313 159.535C323.398 164.321 316.403 187.699 306.647 178.863C298.842 171.794 228.045 190.03 193.622 200.032C181.718 203.714 159.125 208.61 163.985 198.743C151.32 202.425 92.194 194.141 64.2139 189.539C55.7462 188.147 48.1622 179.231 70.8407 175.549C93.5193 171.868 99.189 171.009 99.5571 169.659" stroke="#651A3E" stroke-width="6" stroke-linecap="round" stroke-linejoin="round"/>
<path d="M97.9004 170.394C137.968 177.573 229.738 185.967 276.273 162.111" stroke="#651A3E" stroke-width="6" stroke-linecap="round" stroke-linejoin="round"/>
<path d="M101.398 196.35C95.8145 204.695 90.7585 222.085 115.204 224.883C145.761 228.38 209.453 219.912 218.841 218.44C228.229 216.967 249.466 211.246 256.577 213.101C265.045 215.311 289.896 210.524 281.796 195.43C273.697 180.335 275.722 180.151 249.582 185.305" stroke="#651A3E" stroke-width="6" stroke-linecap="round" stroke-linejoin="round"/>
<path d="M104.711 221.385C97.7778 220.833 83.616 220.649 82.4378 224.33C81.713 226.595 79.1394 226.654 76.5946 226.006C74.9835 225.596 73.1974 227.139 73.6209 228.747C74.4511 231.898 75.1763 235.495 74.8906 237.4C74.3384 241.081 78.7563 252.863 90.1692 250.101C101.582 247.34 133.796 242.922 143.368 244.027C152.94 245.131 158.279 249.181 160.672 245.499C163.065 241.818 170.06 237.216 174.662 239.609C179.264 242.002 183.129 251.758 202.09 242.922C214.607 237.089 224.642 236.37 229.939 236.918C231.245 237.053 231.747 238.531 230.93 239.558L230.045 240.671C228.906 242.102 230.363 244.264 232.144 243.847C239.277 242.175 248.696 241.019 253.264 244.027C259.301 248.003 274.555 222.858 281.428 209.788" stroke="#651A3E" stroke-width="6" stroke-linecap="round" stroke-linejoin="round"/>
</svg>
