<svg width="800" height="800" viewBox="0 0 800 800" fill="none" xmlns="http://www.w3.org/2000/svg">
<mask id="mask0_2765_9377" style="mask-type:alpha" maskUnits="userSpaceOnUse" x="197" y="102" width="395" height="396">
<path d="M260.084 478.887L227.162 429.687C223.016 429.077 213.152 427.638 206.86 426.76C198.995 425.663 178.144 395.667 239.782 377.194C289.092 362.415 294.591 316.775 291.177 295.803C284.959 272.94 285.507 262.697 288.068 249.711C267.766 208.741 278.374 175.453 297.396 168.32C312.613 162.614 316.905 158.383 317.149 156.98C323.795 139.361 348.901 101.89 398.358 102.476C460.178 103.207 474.445 140.885 484.138 173.624C528.949 184.416 514.866 231.604 513.037 250.077C514.5 260.32 512.427 277.512 511.208 284.829C510.476 284.341 509.013 290.352 509.013 318.3C511.025 353.234 533.339 371.707 555.287 378.474C577.235 385.242 586.746 396.033 591.136 415.786C594.647 431.589 579.43 435.661 571.382 435.722L575.04 459.134L495.478 490.593L357.753 497.543L260.084 478.887Z" fill="#A1B3B8"/>
</mask>
<g mask="url(#mask0_2765_9377)">
<rect x="98.3628" y="55.9394" width="2132.79" height="1997.66" fill="#F365A9"/>
<path d="M329.586 375.549C332.805 363.989 333.976 346.955 334.159 339.883C336.537 341.834 342.28 347.162 346.23 352.869C339.5 369.111 344.767 387.681 348.242 394.936C351.047 397.863 356.656 405.801 356.656 414.141C356.656 424.566 339.097 418.531 332.33 415.604C326.916 413.263 321.295 403.898 319.161 399.509C321.295 396.339 326.367 387.108 329.586 375.549Z" fill="#DA3987"/>
<path d="M453.228 354.332L466.945 345.736L470.786 324.336L474.81 317.935C482.431 316.35 499.465 310.619 506.635 300.376C502.001 308.79 489.918 326.385 478.651 329.458C467.384 332.53 469.14 339.883 466.945 345.736C465.787 357.38 465.555 382.499 473.896 389.815C463.287 409.934 467.494 419.811 444.083 414.507C434.755 413.044 440.059 397.131 446.826 391.095C453.594 385.06 459.629 366.769 453.228 354.332Z" fill="#DA3987"/>
<path d="M271.789 383.962C285.251 378.256 299.408 342.992 300.139 323.422C311.662 352.869 300.261 373.903 295.018 378.841C293.616 379.633 287.007 381.767 271.789 383.962Z" fill="#DA3987"/>
<path d="M208.923 428.773C200.875 416.628 235.809 392.004 258.671 392.004C240.674 401.587 231.429 419.902 230.088 428.773C227.71 429.749 220.628 434.772 208.923 428.773Z" fill="#DA3987"/>
<path d="M329.586 329.823C317.295 328.214 307.272 316.837 303.797 311.35L325.38 316.289C326.782 316.837 329.586 320.312 329.586 329.823Z" fill="#DA3987"/>
<path d="M522.547 383.413C511.183 377.904 496.21 341.346 499.136 329.458C493.137 327.555 493.222 342.444 494.015 350.125L506.635 380.304L547.286 436.997C572.526 442.85 542.53 393.102 522.547 383.413Z" fill="#DA3987"/>
<path d="M329.586 202.341C320.075 192.537 329.281 171.918 334.159 162.834L340.56 157.164L354.644 154.238L362.509 156.25C344.401 159.359 333.5 185.331 367.447 197.037L380.433 181.307C376.653 194.354 393.833 225.749 422.731 230.139C400.235 238.186 376.714 218.924 372.385 214.961L367.447 200.512L352.998 199.415L340.56 191.916L335.168 184.058C337.192 197.935 341.922 189.189 346.23 198.5C359.033 226.169 337.451 246.054 334.159 246.054C330.867 246.054 319.161 253.553 308.187 246.054C330.867 249.712 341.475 214.595 329.586 202.341Z" fill="#DA3987"/>
<path d="M497.124 243.494C476.785 252.273 460.971 212.766 455.605 191.916C453.264 240.641 473.408 255.017 483.772 256.114C485.601 254.651 490.832 250.078 497.124 243.494Z" fill="#DA3987"/>
</g>
<mask id="mask1_2765_9377" style="mask-type:alpha" maskUnits="userSpaceOnUse" x="285" y="197" width="229" height="250">
<path d="M343.121 422.187L360.497 446.33H433.475C437.621 440.416 449.837 427.304 452.909 422.183C456.75 415.781 446.827 417.249 442.803 413.408C438.779 409.567 439.876 401.153 449.753 387.436C459.63 373.718 454.508 365.854 454.508 352.319C472.25 342.076 469.736 332.38 475.771 318.297C521.314 306.225 513.815 276.595 512.9 256.842C511.986 237.089 494.015 247.333 482.675 255.381C460.581 251.284 453.472 217.337 452.679 200.876C449.509 210.753 436.291 230.762 408.783 231.787C374.398 233.067 369.276 200.693 367.996 200.876C366.972 201.023 353.425 198.864 346.779 197.767C357.936 242.562 329.762 245.721 317.18 247.132L317.016 247.15C312.349 243.981 300.978 239.543 292.824 247.15C281.118 257.759 287.154 272.025 290.812 291.23C293.738 306.593 310.199 314.702 318.064 316.836C321.539 316.775 328.526 317.86 328.672 322.689C328.855 328.724 336.354 342.442 346.779 352.319C333.062 383.046 352.815 398.227 356.29 409.567C359.07 418.639 348.669 421.76 343.121 422.187Z" fill="#FFFFFE"/>
</mask>
<g mask="url(#mask1_2765_9377)">
<rect x="128.74" y="164.899" width="1338.47" height="1396.9" fill="white"/>
<path d="M378.051 408.134C381.584 411.064 384.663 413.617 386.835 415.238C396.053 422.115 408.783 418.348 411.71 410.483C413.882 409.2 416.968 406.392 420.46 403.215C429.411 395.07 441.037 384.492 446.827 390.912C458.274 372.787 458.112 372.076 455.591 361.027C455.212 359.365 454.78 357.47 454.326 355.247C443.205 355.247 429.451 364.392 423.964 368.964C418.538 373.537 401.223 381.762 377.372 370.788C353.522 359.814 346.963 351.345 346.414 349.394C346.107 350.354 345.763 351.389 345.401 352.482C342.316 361.795 337.858 375.246 342.573 381.401C345.789 385.6 345.396 385.604 344.907 385.608C344.596 385.61 344.245 385.613 344.768 386.706C350.36 385.168 366.594 398.632 378.051 408.134Z" fill="#FAC3DE"/>
<path d="M299.586 255.272C298.138 255.134 296.884 256.17 296.499 257.573C295.472 261.318 294.791 267.895 297.265 275.319C300.338 284.537 303.789 273.185 305.13 266.356C305.673 262.614 305.163 255.805 299.586 255.272Z" fill="#FAC3DE"/>
<path d="M483.088 278.428C489.185 270.38 498.305 263.284 499.183 272.941C500.281 285.012 492.233 297.45 481.991 302.937C473.797 307.326 479.674 288.975 483.088 278.428Z" fill="#FAC3DE"/>
<path d="M328.855 246.603L308.419 245.319L319.472 257.39C323.966 262.329 321.405 269.828 323.966 269.462C329.825 268.625 334.785 257.637 339.646 255.382C357.895 244.612 362.003 228.53 361.127 215.693C362.015 212.766 364.814 207.023 368.911 207.462C368.911 200.731 367.569 199.292 366.899 199.414L357.571 200.695L346.414 196.671L348.974 227.764L342.756 238.738L328.855 246.603Z" fill="#FAC3DE"/>
<path d="M479.471 268.527C451.864 255.643 442.609 229.476 452.91 207.276C454.08 230.541 474.674 250.806 485.283 255.379C484.473 255.972 482.518 260.156 482.079 266.891C481.994 268.196 480.656 269.081 479.471 268.527Z" fill="#FAC3DE"/>
</g>
<mask id="mask2_2765_9377" style="mask-type:alpha" maskUnits="userSpaceOnUse" x="157" y="381" width="470" height="284">
<path d="M453.045 653.009C436.804 671.153 369.094 663.739 337.817 657.764L256.792 579.848C232.649 573.812 179.608 553.949 160.586 522.783C154.001 512.979 159.793 506.992 163.512 505.224C183.083 484.496 223.577 440.331 228.991 429.503C235.758 415.968 249.476 383.595 291.909 381.766C266.901 415.232 245.136 454.921 265.987 466.992C286.838 479.064 300.505 473.582 301.969 464.072C303.139 456.463 302.456 434.807 301.969 424.931C304.651 417.005 313.541 405.721 319.161 402.8C326.66 410.847 339.281 423.833 343.853 421.638C347.877 429.503 356.29 446.147 361.412 447.61C365.509 448.781 410.673 448.098 432.743 447.61L454.739 418.707C461.079 415.232 472.14 403.897 471.701 392.191C479.164 398.776 490.418 410.298 495.113 415.237C497.247 419.505 500.6 431.588 496.942 445.781C492.369 463.523 500.6 469.924 505.538 471.753C510.476 473.582 535.58 475.772 539.97 462.603C544.359 449.434 546.508 442.306 537.912 425.662C531.035 412.347 539.07 420.114 543.947 425.662C551.751 429.015 567.944 435.502 570.285 434.624C572.114 443.038 592.05 511.809 620.949 534.306C631.191 541.439 627.03 551.675 614.958 557.71C602.887 563.746 541.021 578.934 533.156 578.934C526.864 578.934 477.127 628.317 453.045 653.009Z" fill="#A1B3B8"/>
</mask>
<g mask="url(#mask2_2765_9377)">
<rect x="80.5854" y="336.115" width="2496.16" height="1495.51" fill="#F7CB98"/>
<path d="M382.262 553.51C394.086 542.696 395.277 495.708 394.375 472.58C391.616 477.04 350.967 480.4 348.243 484.374C344.524 482.362 334.013 478.594 321.722 479.618C306.358 480.899 297.762 484.374 290.812 474.863C296.238 471.754 306.541 461.804 304.346 446.879C301.603 428.223 304.346 419.078 306.358 417.432L316.101 385.968L466.261 360.911L493.513 414.317C499.22 416.073 498.391 431.083 497.903 438.277C496.44 448.032 495.478 468.937 506.453 471.571C482.492 479.618 473.53 478.155 469.141 487.3C465.629 494.616 459.142 504.493 456.338 508.517L448.107 501.749C449.509 497.786 450.375 486.861 442.62 474.863L400.187 471.571C400.857 492.848 403.15 537.305 406.954 544.914C410.758 552.523 418.904 562.351 422.501 566.314C425.122 572.105 435.158 597.699 454.326 653.74C423.598 679.493 363.972 666.3 338 656.484L344.951 636.182C352.388 613.197 370.264 564.485 382.262 553.51Z" fill="#F1A54C"/>
<path d="M280.752 560.644C286.312 553.913 275.387 519.796 269.229 503.578C270.4 513.382 259.962 559.973 254.597 582.043C260.999 577.714 275.192 567.374 280.752 560.644Z" fill="#F1A54C"/>
<path d="M534.071 577.471C526.608 569.716 518.89 520.222 515.963 496.445C497.82 489.422 492.064 523.637 491.455 541.622C495.539 546.377 509.781 560.205 534.071 577.471Z" fill="#F1A54C"/>
<path d="M538.643 424.931C549.617 449.952 530.778 469.742 523.279 474.863C565.347 474.863 545.886 439.819 555.104 443.038C564.323 446.257 569.797 443.282 571.383 441.392L569.371 434.807C564.249 432.125 550.934 426.394 538.643 424.931Z" fill="#F1A54C"/>
</g>
<mask id="mask3_2765_9377" style="mask-type:alpha" maskUnits="userSpaceOnUse" x="186" y="404" width="419" height="295">
<path d="M257.207 581.122C251.94 581.561 216.309 566.62 200.458 560.279L186.009 604.725L188.752 627.587L211.981 673.678C218.931 680.446 241.867 694.822 278.008 698.187C314.15 701.553 333.062 673.496 338 659.046L369.642 570.522C370.252 567.961 373.08 561.377 379.519 555.524C385.957 549.671 388.542 542.843 389.029 540.16L395.065 454.379H398.723C400.735 480.23 404.759 532.808 404.759 536.319C404.759 540.709 406.039 548.757 412.807 555.524C418.22 560.938 421.769 566.559 422.866 568.693L459.081 666.362C462.373 672.398 474.957 686.372 498.953 693.98C528.949 703.491 552.36 688.128 569.187 681.177C586.014 674.227 597.72 649.718 603.207 628.502C607.597 611.528 598.817 578.874 593.879 564.669L535.351 579.667C512.793 560.462 465.958 520.37 459.081 513.64C452.204 506.909 448.168 497.178 447.009 493.155C438.669 450.868 424.329 415.97 411.709 404.996L397.443 408.471L381.348 406.094L371.654 418.348L349.523 478.157L345.133 501.019L323.734 527.906C302.883 544.672 262.475 580.683 257.207 581.122Z" fill="#FFFFFE"/>
</mask>
<g mask="url(#mask3_2765_9377)">
<rect x="131.489" y="329.217" width="2196.7" height="1743.85" fill="white"/>
<path d="M370.739 546.745C385.81 539.868 387.066 508.145 391.455 493.52C392.126 503.214 390.054 524.138 390.493 530.284C391.041 537.965 387.932 552.415 380.799 556.256C375.092 559.328 371.715 566.315 370.739 569.425C362.997 591.19 359.558 646.16 351.949 663.426C342.438 685.009 318.113 708.602 297.994 713.175C277.875 717.747 255.196 698.909 239.284 688.849C293.422 684.825 351.9 555.341 370.739 546.745Z" fill="#FAC3DE"/>
<path d="M218.7 614.353C232.194 602.826 251.078 584.949 253.499 584.057V579.118L201.373 559.914C208.628 566.925 223.504 581.569 224.967 584.057C226.161 586.087 221.093 601.492 216.272 612.456C215.63 613.918 217.486 615.39 218.7 614.353Z" fill="#FAC3DE"/>
<path d="M407.868 550.586C402.601 543.855 402.869 509.738 403.662 493.52C406.039 506.628 412.477 534.454 419.208 540.892C432.377 544.733 499.136 695.078 540.106 695.078C521.862 713.175 508.999 709.822 507.048 710.431C481.149 708.237 460.422 668.923 455.789 656.303C447.131 636.245 420.964 601.68 419.208 588.072C417.013 571.062 414.453 558.999 407.868 550.586Z" fill="#FAC3DE"/>
<path d="M579.404 616.242L534.436 579.118L590.038 564.12C591.379 563.755 592.599 561.377 592.599 566.498C594.428 571.619 588.941 582.776 582.722 591.921C578.709 597.823 579.107 608.399 581.075 615.021C581.31 615.81 580.039 616.767 579.404 616.242Z" fill="#FAC3DE"/>
</g>
<path d="M143.014 404.651C167.322 404.651 187.028 384.946 187.028 360.637C187.028 336.329 167.322 316.624 143.014 316.624C118.706 316.624 99 336.329 99 360.637C99 384.946 118.706 404.651 143.014 404.651Z" fill="#EE8E1F"/>
<path d="M557.448 232.433C552.943 242.622 548.387 256.364 547.981 268.46C547.777 274.518 548.601 280.526 551.332 285.505C554.149 290.643 558.827 294.36 565.56 295.923C577.946 298.797 595.518 303.721 612.697 308.612C615.377 309.376 618.049 310.138 620.689 310.892L620.746 310.908C634.933 314.958 648.205 318.746 657.076 320.979C661.527 322.1 665.951 321.937 670.158 320.168C674.32 318.417 677.957 315.225 681.124 310.812C687.383 302.093 692.279 287.943 695.922 267.874C695.933 267.814 695.943 267.753 695.951 267.692L699.911 237.917C701.063 229.254 699.332 218.909 690.42 213.557C680.002 207.301 663.198 201.23 644.027 197.002C616.364 188.468 573.551 192.349 555.603 195.356C545.505 196.841 541.084 208.938 547.843 216.585L556.659 226.558C558.009 228.086 558.357 230.375 557.448 232.433Z" fill="#684AE2"/>
<path d="M589.29 218.12C590.348 218.239 591.328 218.447 592.231 218.744C592.229 219.823 592.195 221.06 592.131 222.456C592.072 223.823 592.007 225.219 591.937 226.644C591.895 228.075 591.88 229.45 591.89 230.771C591.906 232.063 591.987 233.173 592.135 234.101C592.624 233.298 593.043 232.542 593.393 231.831C593.743 231.121 594.105 230.353 594.478 229.527C594.856 228.673 595.255 227.717 595.673 226.661C596.126 225.581 596.682 224.282 597.342 222.763C597.342 222.763 597.402 222.61 597.522 222.304C597.672 222.004 597.812 221.672 597.944 221.308C598.075 220.945 598.202 220.61 598.322 220.304C598.442 219.998 598.502 219.845 598.502 219.845C599.04 220.011 599.515 220.119 599.925 220.17C600.336 220.221 600.717 220.266 601.07 220.306C601.452 220.351 601.816 220.408 602.163 220.476C602.51 220.544 602.892 220.664 603.308 220.836C603.306 221.915 603.258 223.149 603.165 224.54C603.1 225.936 603.032 227.346 602.962 228.771C602.921 230.201 602.905 231.577 602.915 232.898C602.925 234.218 603.004 235.343 603.152 236.271C603.664 235.503 604.215 234.457 604.806 233.135C605.402 231.784 605.99 230.401 606.569 228.987C607.148 227.572 607.696 226.241 608.212 224.994C608.756 223.753 609.224 222.826 609.615 222.213C610.541 222.396 611.431 222.526 612.287 222.605C613.142 222.683 614.14 222.88 615.279 223.194C614.348 224.719 613.475 226.331 612.66 228.028C611.88 229.703 611.105 231.424 610.337 233.19C609.568 234.957 608.797 236.739 608.023 238.534C607.254 240.301 606.445 242.045 605.596 243.766C605 243.739 604.37 243.659 603.705 243.528C603.063 243.432 602.398 243.301 601.71 243.135C601.045 243.004 600.382 242.859 599.723 242.699C599.087 242.574 598.494 242.457 597.945 242.349C597.991 240.74 598.043 239.027 598.101 237.21C598.187 235.398 598.231 233.653 598.231 231.975C597.571 233.494 596.967 235.113 596.418 236.833C595.903 238.53 595.29 240.118 594.579 241.596C593.983 241.569 593.324 241.484 592.601 241.341C591.902 241.234 591.179 241.091 590.433 240.914C589.71 240.772 588.99 240.615 588.272 240.444C587.578 240.307 586.957 240.185 586.407 240.077C586.539 236.356 586.599 232.546 586.586 228.647C586.573 224.748 586.439 221.006 586.184 217.419C587.202 217.739 588.238 217.973 589.29 218.12Z" fill="white"/>
<path d="M620.77 235.56C620.14 235.406 619.686 235.272 619.408 235.157L619.254 235.936C619.113 236.807 619.003 237.52 618.923 238.074C618.873 238.633 618.956 239.204 619.172 239.786C619.388 240.518 619.783 241.105 620.357 241.548C620.93 241.991 621.532 242.214 622.162 242.218C622.792 242.223 623.366 241.976 623.885 241.479C624.438 240.958 624.802 240.101 624.977 238.906C625.261 238.992 625.648 239.084 626.14 239.18C626.637 239.248 627.149 239.319 627.675 239.393C628.23 239.472 628.75 239.575 629.236 239.7C629.728 239.797 630.124 239.92 630.425 240.069C630.22 240.808 630.017 241.533 629.817 242.242C629.617 242.952 629.411 243.616 629.2 244.234C628.993 244.823 628.773 245.334 628.537 245.767C628.336 246.177 628.118 246.448 627.881 246.582C627.253 247.177 626.52 247.543 625.683 247.677C624.845 247.812 623.958 247.817 623.021 247.693C622.085 247.568 621.131 247.38 620.159 247.129C619.216 246.883 618.34 246.681 617.53 246.521C616.743 246.246 616.042 245.839 615.428 245.298C614.755 244.596 614.244 243.761 613.894 242.793C613.55 241.796 613.321 240.747 613.207 239.645C613.099 238.515 613.104 237.347 613.221 236.141C613.339 234.936 613.543 233.747 613.834 232.575C614.131 231.525 614.419 230.518 614.699 229.554C615.014 228.567 615.438 227.631 615.973 226.748C616.514 225.985 617.231 225.392 618.125 224.969C619.025 224.516 619.996 224.243 621.035 224.148C622.081 224.024 623.156 224.056 624.261 224.244C625.365 224.431 626.412 224.757 627.402 225.222C628.687 225.715 629.666 226.387 630.339 227.239C631.012 228.091 631.455 229.048 631.666 230.108C631.907 231.175 631.954 232.308 631.808 233.508C631.661 234.708 631.426 235.905 631.1 237.1C630.886 237.118 630.485 237.099 629.895 237.043C629.334 236.992 628.658 236.919 627.866 236.823C627.103 236.732 626.284 236.616 625.411 236.474C624.538 236.332 623.697 236.181 622.887 236.022C622.106 235.868 621.401 235.714 620.77 235.56ZM626.962 230.89C626.775 230.314 626.447 229.845 625.977 229.482C625.774 229.293 625.563 229.146 625.343 229.043C625.129 228.911 624.863 228.813 624.544 228.751C623.851 228.614 623.272 228.575 622.81 228.634C622.348 228.693 621.961 228.826 621.65 229.035C621.339 229.243 621.077 229.506 620.864 229.824C620.68 230.147 620.522 230.491 620.39 230.855C620.27 231.161 620.196 231.386 620.167 231.53C620.173 231.651 620.301 231.766 620.55 231.875C620.804 231.955 621.206 232.049 621.756 232.158C622.34 232.243 623.181 232.393 624.28 232.61C625.032 232.758 625.593 232.883 625.963 232.986C626.333 233.089 626.591 233.155 626.735 233.183C626.914 233.189 627.01 233.162 627.021 233.105C627.038 233.018 627.069 232.859 627.115 232.629C627.228 232.052 627.177 231.472 626.962 230.89Z" fill="white"/>
<path d="M639.299 229.409C639.299 229.409 639.278 229.435 639.238 229.487L639.195 229.478C639.079 229.455 638.77 229.424 638.267 229.385C637.764 229.346 637.232 229.301 636.671 229.251C636.116 229.171 635.607 229.086 635.145 228.995C634.711 228.91 634.494 228.792 634.493 228.642C634.643 228.342 634.849 227.903 635.113 227.325C635.406 226.754 635.713 226.11 636.034 225.394C636.384 224.683 636.737 223.959 637.093 223.22C637.455 222.452 637.788 221.753 638.092 221.123C638.431 220.471 638.706 219.911 638.918 219.443C639.16 218.981 639.309 218.681 639.366 218.542C639.366 218.542 639.554 218.579 639.93 218.653C640.335 218.733 640.812 218.827 641.361 218.935C641.917 219.014 642.469 219.108 643.018 219.216C643.568 219.325 643.987 219.407 644.276 219.464L644.267 219.507C643.665 220.737 643.16 221.777 642.752 222.626C642.379 223.451 642.018 224.219 641.668 224.93C641.323 225.611 640.979 226.293 640.634 226.974C640.29 227.656 639.844 228.467 639.299 229.409Z" fill="white"/>
<path d="M649.798 231.072C649.809 231.164 649.795 231.311 649.756 231.513C649.883 231.478 650.166 231.414 650.605 231.321C651.072 231.233 651.523 231.157 651.956 231.092C652.54 231.027 653.187 231.02 653.898 231.07C654.615 231.091 655.279 231.148 655.892 231.238C656.505 231.329 657.011 231.429 657.41 231.537C657.844 231.623 658.058 231.68 658.053 231.709C657.859 232.69 657.674 233.552 657.498 234.297C657.35 235.047 657.216 235.725 657.097 236.331C656.983 236.908 656.878 237.442 656.782 237.932C656.685 238.423 656.609 238.887 656.552 239.326L656.187 239.119C656.054 239.033 655.904 238.958 655.736 238.895C655.603 238.809 655.47 238.723 655.336 238.637C655.006 238.482 654.659 238.339 654.295 238.207C653.959 238.081 653.777 238.015 653.748 238.009C652.984 237.769 652.27 237.583 651.605 237.452C650.969 237.327 650.385 237.317 649.853 237.422C649.351 237.533 648.927 237.779 648.582 238.161C648.236 238.542 647.998 239.14 647.868 239.953C647.698 240.969 647.539 241.927 647.392 242.827C647.245 243.727 647.08 244.639 646.899 245.562C646.722 246.456 646.54 247.38 646.353 248.332C646.2 249.261 646.018 250.259 645.808 251.327L645.774 251.5C645.254 251.547 644.789 251.545 644.378 251.494C643.968 251.444 643.549 251.361 643.12 251.247C642.687 251.161 642.212 251.053 641.698 250.922C641.212 250.796 640.616 250.694 639.911 250.615C640.61 247.066 641.265 243.508 641.878 239.942C642.519 236.382 643.272 232.709 644.138 228.923C644.479 229.02 644.763 229.106 644.989 229.181C645.22 229.226 645.437 229.269 645.639 229.309C645.842 229.349 646.058 229.391 646.29 229.437C646.527 229.454 646.822 229.482 647.174 229.521C647.29 229.544 647.495 229.569 647.79 229.597C648.114 229.631 648.438 229.665 648.761 229.699C649.114 229.738 649.403 229.795 649.629 229.87C649.889 229.921 650.013 229.975 650.002 230.033C649.957 230.264 649.923 230.437 649.9 230.552C649.877 230.668 649.857 230.769 649.84 230.855C649.829 230.913 649.815 230.985 649.798 231.072Z" fill="white"/>
<path d="M664.525 244.178C663.895 244.024 663.441 243.89 663.163 243.775L663.009 244.554C662.868 245.425 662.757 246.138 662.678 246.692C662.628 247.251 662.711 247.822 662.927 248.404C663.143 249.136 663.538 249.723 664.112 250.166C664.685 250.609 665.287 250.832 665.917 250.836C666.547 250.841 667.121 250.594 667.64 250.097C668.193 249.576 668.557 248.719 668.732 247.524C669.016 247.61 669.403 247.701 669.895 247.798C670.392 247.866 670.904 247.937 671.43 248.011C671.985 248.09 672.505 248.193 672.991 248.318C673.483 248.415 673.879 248.538 674.18 248.687C673.975 249.426 673.772 250.15 673.572 250.86C673.372 251.57 673.166 252.234 672.954 252.852C672.748 253.441 672.528 253.952 672.292 254.385C672.091 254.795 671.872 255.066 671.636 255.2C671.008 255.795 670.275 256.161 669.438 256.295C668.6 256.43 667.713 256.435 666.776 256.311C665.84 256.186 664.885 255.998 663.914 255.747C662.971 255.501 662.095 255.299 661.285 255.139C660.498 254.864 659.797 254.456 659.183 253.916C658.51 253.214 657.999 252.379 657.649 251.411C657.304 250.414 657.076 249.365 656.962 248.263C656.854 247.133 656.859 245.965 656.976 244.759C657.094 243.554 657.298 242.365 657.589 241.193C657.886 240.143 658.174 239.136 658.454 238.172C658.769 237.185 659.193 236.249 659.728 235.366C660.268 234.603 660.986 234.01 661.88 233.587C662.78 233.134 663.75 232.861 664.79 232.766C665.836 232.642 666.911 232.674 668.016 232.862C669.12 233.049 670.167 233.375 671.157 233.84C672.442 234.333 673.421 235.005 674.094 235.857C674.767 236.709 675.21 237.666 675.421 238.726C675.662 239.793 675.709 240.926 675.563 242.126C675.416 243.326 675.18 244.523 674.855 245.718C674.641 245.736 674.24 245.717 673.65 245.661C673.089 245.61 672.413 245.537 671.621 245.441C670.857 245.35 670.039 245.234 669.166 245.092C668.293 244.95 667.452 244.799 666.642 244.64C665.861 244.486 665.156 244.332 664.525 244.178ZM670.716 239.508C670.53 238.932 670.202 238.462 669.732 238.1C669.529 237.91 669.318 237.764 669.098 237.661C668.884 237.529 668.617 237.431 668.299 237.368C667.605 237.232 667.027 237.193 666.565 237.252C666.103 237.311 665.716 237.444 665.405 237.653C665.093 237.861 664.831 238.124 664.619 238.442C664.435 238.765 664.277 239.109 664.145 239.473C664.025 239.779 663.951 240.004 663.922 240.148C663.928 240.269 664.056 240.384 664.305 240.493C664.559 240.573 664.961 240.667 665.511 240.776C666.095 240.861 666.936 241.011 668.035 241.228C668.787 241.376 669.348 241.501 669.718 241.604C670.088 241.707 670.346 241.773 670.49 241.801C670.669 241.807 670.765 241.78 670.776 241.723C670.793 241.636 670.824 241.477 670.87 241.247C670.983 240.67 670.932 240.09 670.716 239.508Z" fill="white"/>
<path d="M597.032 254.991C597.366 256.346 597.379 257.802 597.072 259.36C596.119 259.322 595.075 259.206 593.942 259.013C592.837 258.826 591.813 258.534 590.87 258.138C591.025 257.809 591.05 257.455 590.944 257.074C590.868 256.699 590.696 256.351 590.429 256.029C590.191 255.712 589.881 255.456 589.499 255.261C589.152 255.043 588.787 254.911 588.406 254.866C587.718 254.85 587.161 255.01 586.734 255.346C586.342 255.658 586.101 256.045 586.01 256.507C585.919 256.968 586.001 257.464 586.258 257.994C586.514 258.524 586.951 258.97 587.571 259.332C589.145 259.882 590.6 260.498 591.938 261.181C593.281 261.835 594.2 262.661 594.694 263.657C595.126 264.821 595.306 265.966 595.234 267.091C595.169 268.187 594.705 269.474 593.843 270.953C592.899 272.235 591.66 273.04 590.123 273.367C588.587 273.694 586.983 273.678 585.312 273.319C583.826 273.086 582.521 272.694 581.398 272.143C580.275 271.592 579.342 270.914 578.6 270.108C577.886 269.308 577.375 268.398 577.065 267.378C576.784 266.364 576.758 265.28 576.985 264.126L577.028 263.909C578.004 263.982 579.094 264.166 580.298 264.463C581.506 264.731 582.559 264.954 583.455 265.13C583.354 265.8 583.549 266.408 584.042 266.954C584.57 267.478 585.158 267.848 585.806 268.066C586.459 268.255 587.092 268.244 587.704 268.035C588.316 267.826 588.69 267.3 588.826 266.458C589.049 265.782 588.992 265.232 588.656 264.806C588.319 264.38 587.835 264.015 587.204 263.711C586.579 263.378 585.861 263.056 585.051 262.747C584.241 262.438 583.465 262.03 582.724 261.524C581.212 260.657 580.195 259.573 579.67 258.27C579.18 256.945 579.072 255.665 579.345 254.43C579.653 253.172 580.288 252.083 581.25 251.163C582.241 250.25 583.482 249.745 584.973 249.649C585.55 249.613 586.238 249.628 587.036 249.695C587.863 249.768 588.724 249.893 589.621 250.07C590.517 250.246 591.402 250.48 592.276 250.772C593.155 251.036 593.954 251.328 594.671 251.649C595.917 252.494 596.704 253.608 597.032 254.991Z" fill="white"/>
<path d="M599.931 256.327C600.213 255.813 600.428 255.405 600.578 255.105C600.865 254.712 601.257 254.4 601.753 254.168C602.279 253.941 602.85 253.784 603.468 253.696C604.121 253.585 604.788 253.552 605.471 253.596C606.182 253.646 606.884 253.74 607.578 253.876C608.145 254.048 608.692 254.171 609.218 254.244C609.778 254.295 610.357 254.409 610.953 254.586C611.867 254.826 612.712 255.187 613.488 255.67C614.269 256.123 614.907 256.699 615.401 257.395C615.754 257.735 615.99 258.216 616.108 258.838C616.225 259.461 616.265 260.173 616.227 260.975C616.195 261.748 616.103 262.599 615.95 263.528C615.803 264.428 615.65 265.357 615.491 266.315C615.297 267.146 615.066 268.089 614.798 269.146C614.559 270.207 614.285 271.217 613.976 272.176C613.696 273.14 613.393 273.994 613.066 274.739C612.768 275.489 612.446 275.98 612.1 276.212C611.472 276.808 610.725 277.17 609.858 277.299C609.021 277.434 608.134 277.439 607.197 277.314C606.255 277.219 605.3 277.031 604.334 276.751C603.363 276.499 602.472 276.294 601.662 276.134C600.239 275.584 599.12 274.705 598.307 273.495C597.663 272.649 597.298 271.678 597.214 270.583C597.129 269.487 597.169 268.371 597.333 267.234C597.502 266.069 597.715 264.912 597.971 263.763C598.256 262.62 598.449 261.564 598.55 260.595C598.652 260.076 598.766 259.574 598.892 259.089C599.023 258.575 599.186 258.053 599.381 257.522C599.472 257.21 599.656 256.812 599.931 256.327ZM606.656 260.618C606.014 260.672 605.46 260.892 604.993 261.28C604.797 261.361 604.61 261.624 604.433 262.069C604.135 262.969 603.895 263.881 603.714 264.804C603.537 265.699 603.321 266.645 603.064 267.644C602.905 268.302 602.976 268.855 603.278 269.304C603.586 269.724 603.985 270.058 604.477 270.305C605.004 270.528 605.562 270.668 606.152 270.724C606.747 270.752 607.253 270.702 607.669 270.574C608.206 270.44 608.632 270.029 608.947 269.342C609.245 268.441 609.514 267.535 609.753 266.623C610.028 265.688 610.16 264.785 610.152 263.914C610.206 262.876 609.932 262.058 609.329 261.459C608.725 260.861 607.835 260.581 606.656 260.618Z" fill="white"/>
<path d="M625.69 259.197C625.702 259.289 625.688 259.436 625.648 259.638C625.775 259.603 626.058 259.539 626.497 259.446C626.965 259.358 627.415 259.282 627.849 259.218C628.432 259.153 629.079 259.145 629.79 259.195C630.507 259.217 631.172 259.273 631.785 259.363C632.398 259.454 632.904 259.554 633.303 259.662C633.737 259.748 633.951 259.805 633.945 259.834C633.752 260.815 633.567 261.678 633.39 262.422C633.242 263.172 633.109 263.85 632.989 264.456C632.876 265.033 632.771 265.567 632.674 266.057C632.577 266.548 632.501 267.012 632.445 267.451L632.08 267.244C631.947 267.158 631.796 267.083 631.628 267.02C631.495 266.934 631.362 266.848 631.229 266.762C630.899 266.607 630.552 266.464 630.187 266.332C629.851 266.206 629.669 266.14 629.64 266.134C628.876 265.894 628.162 265.708 627.497 265.577C626.861 265.452 626.277 265.442 625.746 265.547C625.243 265.658 624.819 265.904 624.474 266.286C624.128 266.667 623.891 267.265 623.76 268.078C623.59 269.094 623.432 270.052 623.285 270.952C623.137 271.852 622.973 272.764 622.791 273.687C622.615 274.581 622.433 275.505 622.245 276.457C622.092 277.386 621.911 278.384 621.701 279.452L621.666 279.625C621.146 279.672 620.681 279.67 620.271 279.62C619.86 279.569 619.441 279.486 619.013 279.372C618.579 279.286 618.105 279.178 617.59 279.047C617.104 278.921 616.509 278.819 615.803 278.74C616.502 275.191 617.158 271.633 617.77 268.067C618.411 264.507 619.165 260.834 620.031 257.048C620.372 257.145 620.655 257.231 620.881 257.306C621.112 257.351 621.329 257.394 621.532 257.434C621.734 257.474 621.951 257.516 622.182 257.562C622.419 257.579 622.714 257.607 623.067 257.646C623.182 257.669 623.388 257.694 623.682 257.723C624.006 257.756 624.33 257.79 624.654 257.824C625.006 257.863 625.296 257.92 625.521 257.995C625.781 258.046 625.906 258.101 625.894 258.158C625.849 258.389 625.815 258.562 625.792 258.678C625.769 258.793 625.75 258.894 625.733 258.981C625.721 259.038 625.707 259.11 625.69 259.197Z" fill="white"/>
<path d="M641.659 262.342C641.67 262.434 641.656 262.581 641.617 262.783C641.744 262.749 642.027 262.684 642.466 262.591C642.933 262.503 643.384 262.427 643.817 262.363C644.401 262.298 645.048 262.29 645.759 262.341C646.476 262.362 647.14 262.418 647.753 262.509C648.366 262.599 648.872 262.699 649.271 262.808C649.705 262.893 649.919 262.95 649.914 262.979C649.72 263.96 649.535 264.823 649.359 265.567C649.211 266.317 649.077 266.995 648.958 267.601C648.844 268.178 648.739 268.712 648.643 269.203C648.546 269.693 648.47 270.158 648.413 270.596L648.048 270.389C647.915 270.303 647.765 270.229 647.597 270.166C647.464 270.079 647.331 269.993 647.197 269.907C646.867 269.752 646.52 269.609 646.156 269.477C645.82 269.351 645.638 269.285 645.609 269.279C644.845 269.039 644.131 268.853 643.466 268.722C642.83 268.597 642.246 268.587 641.714 268.692C641.212 268.803 640.788 269.049 640.443 269.431C640.097 269.812 639.859 270.41 639.729 271.223C639.559 272.239 639.4 273.197 639.253 274.097C639.106 274.997 638.941 275.909 638.76 276.832C638.583 277.727 638.401 278.65 638.214 279.602C638.061 280.531 637.879 281.529 637.669 282.597L637.635 282.77C637.115 282.817 636.65 282.816 636.239 282.765C635.829 282.714 635.41 282.631 634.981 282.517C634.548 282.432 634.073 282.323 633.559 282.192C633.073 282.066 632.477 281.964 631.772 281.885C632.471 278.336 633.126 274.779 633.739 271.213C634.38 267.652 635.133 263.979 635.999 260.193C636.34 260.291 636.624 260.376 636.85 260.451C637.081 260.496 637.298 260.539 637.5 260.579C637.703 260.619 637.919 260.662 638.151 260.707C638.388 260.724 638.683 260.752 639.035 260.791C639.151 260.814 639.356 260.84 639.651 260.868C639.975 260.902 640.299 260.935 640.622 260.969C640.975 261.009 641.264 261.066 641.49 261.14C641.75 261.191 641.874 261.246 641.863 261.303C641.818 261.534 641.784 261.707 641.761 261.823C641.738 261.938 641.718 262.039 641.701 262.126C641.69 262.183 641.676 262.256 641.659 262.342Z" fill="white"/>
<path d="M653.789 263.697C654.963 263.839 656.001 264.058 656.904 264.356C656.902 265.434 656.889 266.721 656.865 268.214C656.846 269.68 656.837 271.176 656.836 272.705C656.836 274.233 656.861 275.707 656.912 277.125C656.969 278.515 657.071 279.674 657.218 280.603C657.707 279.8 658.192 278.711 658.672 277.337C659.153 275.963 659.631 274.529 660.106 273.034C660.609 271.545 661.116 270.116 661.626 268.748C662.136 267.379 662.649 266.297 663.167 265.499C664.144 265.722 665.145 265.904 666.168 266.046C667.191 266.187 668.302 266.421 669.499 266.747C668.696 268.387 667.95 269.963 667.261 271.476C666.607 272.966 665.959 274.427 665.317 275.859C664.662 277.198 664.023 278.616 663.398 280.111C662.802 281.612 662.124 283.068 661.366 284.477C660.637 285.892 659.792 287.209 658.831 288.428C657.87 289.648 656.714 290.634 655.364 291.387C654.038 292.175 652.47 292.66 650.662 292.844C648.883 293.033 646.778 292.813 644.349 292.185C644.23 291.262 644.279 290.253 644.495 289.156C644.676 288.083 644.919 287.157 645.222 286.377C645.916 286.514 646.619 286.682 647.331 286.882C648.071 287.088 648.745 287.176 649.351 287.146C649.952 287.144 650.44 286.955 650.814 286.58C651.218 286.209 651.441 285.534 651.484 284.553C651.564 280.943 651.486 277.301 651.248 273.627C651.01 269.954 650.764 266.399 650.51 262.962C651.528 263.282 652.621 263.527 653.789 263.697Z" fill="white"/>
<path fill-rule="evenodd" clip-rule="evenodd" d="M163.39 229.51C169.237 227.456 176.968 225.68 182.826 226.437C185.693 226.807 187.663 227.726 188.874 229.05C189.509 229.743 190.089 230.717 190.438 232.126C186.724 232.963 183.044 234.238 179.717 235.753C174.582 238.091 169.801 241.219 167.042 244.65C165.672 246.355 164.443 248.581 164.475 251.127C164.511 253.943 166.057 256.176 168.288 257.688C175.088 262.298 182.621 262.759 188.663 258.5C194.06 254.696 197.422 247.701 198.351 238.873C202.576 238.711 205.633 239.594 207.395 241.188C212.244 245.575 216.029 250.061 217.677 254.373C215.124 253.639 212.532 253.362 209.958 253.469C203.81 253.726 198.001 256.157 193.179 259.276C188.348 262.402 184.258 266.378 181.523 270.099C180.162 271.951 179.045 273.864 178.372 275.685C177.768 277.321 177.211 279.72 178.215 281.959C179.105 283.944 180.483 285.747 182.533 286.98C184.571 288.207 186.947 288.676 189.507 288.566C194.439 288.355 200.702 285.965 208.597 281.43C216.382 277.199 221.502 272.536 224.166 267.538C226.262 269.866 227.355 272.119 227.817 274.231C223.189 275.851 218.439 278.515 213.967 281.023L213.556 281.253C209.922 283.29 204.797 287.116 201.224 291.265C199.462 293.312 197.793 295.76 197.088 298.368C196.317 301.218 196.698 304.447 199.345 306.953C200.629 308.171 202.09 309.091 203.768 309.548C205.457 310.009 207.091 309.926 208.599 309.556C211.373 308.875 214.135 307.084 216.638 305.425C222.048 301.842 229.329 295.385 233.196 287.542C234.282 285.339 235.127 282.968 235.561 280.483C236.967 280.443 238.154 280.694 239.204 281.213C240.638 281.922 242.229 283.34 243.806 286.161C245.97 290.034 245.595 294.395 243.765 298.752C241.926 303.132 238.813 306.961 236.558 309.073C234.988 310.544 234.908 313.009 236.378 314.579C237.849 316.149 240.314 316.229 241.884 314.759C244.757 312.067 248.597 307.366 250.948 301.768C253.309 296.147 254.362 289.083 250.606 282.361C248.482 278.561 245.862 275.815 242.658 274.231C240.313 273.07 237.875 272.641 235.455 272.694C234.556 268.447 232.228 264.358 228.271 260.599C227.645 260.004 227.01 259.451 226.368 258.937C226.369 258.221 226.328 257.5 226.245 256.774C225.289 248.377 218.796 240.998 212.621 235.411C208.747 231.906 203.362 230.908 198.183 231.084C197.619 228.22 196.434 225.772 194.621 223.791C191.726 220.627 187.74 219.217 183.824 218.711C176.115 217.715 166.971 219.996 160.808 222.161C158.779 222.874 157.711 225.097 158.424 227.127C159.137 229.156 161.361 230.224 163.39 229.51ZM182.945 242.843C185.293 241.774 187.804 240.862 190.319 240.181C189.287 246.392 186.821 250.268 184.175 252.133C181.306 254.154 177.35 254.42 172.659 251.24C172.46 251.105 172.346 251.004 172.284 250.939C172.332 250.754 172.504 250.29 173.114 249.532C174.773 247.467 178.294 244.96 182.945 242.843ZM172.217 250.847C172.22 250.846 172.231 250.861 172.242 250.891C172.219 250.861 172.214 250.847 172.217 250.847ZM210.283 261.253C212.779 261.148 215.312 261.557 217.811 262.714C216.392 266.273 212.74 270.319 204.84 274.606C204.826 274.613 204.812 274.621 204.799 274.628C204.784 274.636 204.77 274.644 204.756 274.652C197.091 279.06 192.168 280.655 189.173 280.784C187.765 280.844 186.989 280.571 186.55 280.306C186.179 280.083 185.811 279.724 185.474 279.084C185.499 278.95 185.555 278.723 185.68 278.383C186.021 277.459 186.71 276.195 187.8 274.713C189.968 271.763 193.362 268.436 197.411 265.817C201.47 263.191 205.938 261.434 210.283 261.253ZM217.366 288.048C220.774 286.138 223.855 284.428 226.663 283.117C226.522 283.443 226.37 283.77 226.209 284.097C223.179 290.243 217.119 295.763 212.336 298.931C209.581 300.756 207.962 301.691 206.743 301.99C206.255 302.11 205.99 302.08 205.817 302.032C205.633 301.982 205.267 301.834 204.702 301.298C204.691 301.288 204.68 301.278 204.669 301.268C204.547 301.159 204.431 301.056 204.608 300.401C204.867 299.444 205.664 298.048 207.128 296.348C210.007 293.004 214.378 289.723 217.366 288.048Z" fill="#F03F94"/>
<path fill-rule="evenodd" clip-rule="evenodd" d="M566.954 349.811C571.238 347.298 577.048 344.714 581.773 344.411C584.085 344.263 585.777 344.684 586.935 345.54C587.542 345.989 588.15 346.668 588.641 347.727C585.846 348.955 583.146 350.523 580.76 352.226C577.079 354.852 573.8 358.046 572.157 361.166C571.34 362.717 570.716 364.655 571.131 366.651C571.591 368.858 573.148 370.376 575.133 371.223C581.187 373.806 587.181 373.012 591.278 368.738C594.939 364.918 596.511 358.901 595.886 351.813C599.188 351.036 601.731 351.261 603.364 352.247C607.856 354.957 611.525 357.908 613.482 361.052C611.358 360.864 609.273 361.044 607.262 361.524C602.467 362.669 598.271 365.471 594.958 368.663C591.637 371.863 589.031 375.617 587.45 378.962C586.664 380.628 586.078 382.303 585.829 383.838C585.605 385.218 585.535 387.188 586.667 388.794C587.671 390.218 589.03 391.423 590.83 392.079C592.62 392.731 594.56 392.736 596.557 392.257C600.402 391.334 604.961 388.495 610.476 383.716C615.953 379.192 619.264 374.737 620.591 370.396C622.603 371.909 623.811 373.518 624.5 375.113C621.108 377.096 617.779 379.921 614.644 382.581L614.644 382.581L614.356 382.825C611.811 384.985 608.366 388.779 606.193 392.59C605.121 394.47 604.184 396.651 604.03 398.809C603.861 401.168 604.655 403.647 607.119 405.211C608.316 405.972 609.604 406.471 610.994 406.573C612.392 406.676 613.663 406.361 614.792 405.839C616.868 404.878 618.766 403.046 620.481 401.358C624.186 397.71 628.922 391.515 630.76 384.754C631.277 382.853 631.578 380.858 631.538 378.836C632.64 378.588 633.615 378.602 634.522 378.85C635.76 379.189 637.23 380.06 638.903 382.039C641.201 384.755 641.575 388.245 640.804 391.953C640.029 395.681 638.167 399.171 636.717 401.179C635.709 402.574 636.023 404.522 637.419 405.529C638.814 406.537 640.762 406.223 641.769 404.828C643.616 402.271 645.915 397.984 646.905 393.222C647.9 388.439 647.645 382.723 643.661 378.013C641.408 375.351 638.927 373.594 636.165 372.839C634.142 372.286 632.158 372.322 630.262 372.736C628.904 369.533 626.446 366.673 622.756 364.322C622.172 363.95 621.587 363.612 621.002 363.306C620.893 362.742 620.75 362.181 620.574 361.622C618.534 355.165 612.297 350.358 606.584 346.911C602.999 344.748 598.61 344.789 594.562 345.723C593.68 343.556 592.373 341.811 590.642 340.531C587.881 338.487 584.531 337.989 581.374 338.192C575.159 338.591 568.317 341.787 563.801 344.435C562.317 345.306 561.819 347.215 562.69 348.699C563.561 350.184 565.47 350.681 566.954 349.811ZM584.38 357.299C586.065 356.096 587.903 354.992 589.78 354.069C589.923 359.119 588.577 362.55 586.779 364.425C584.831 366.458 581.757 367.273 577.578 365.491C577.398 365.414 577.293 365.351 577.233 365.309C577.243 365.158 577.305 364.764 577.671 364.07C578.661 362.19 581.046 359.677 584.38 357.299ZM577.179 365.256C577.173 365.25 577.169 365.247 577.168 365.247C577.166 365.248 577.172 365.259 577.195 365.278C577.189 365.268 577.183 365.261 577.179 365.256ZM608.709 367.586C610.659 367.12 612.716 367.054 614.863 367.582C614.293 370.601 612.04 374.347 606.48 378.933C606.473 378.939 606.465 378.946 606.458 378.952C606.446 378.962 606.434 378.972 606.422 378.983C601.068 383.626 597.44 385.636 595.103 386.197C594.004 386.46 593.35 386.364 592.963 386.223C592.636 386.104 592.29 385.877 591.926 385.424C591.925 385.315 591.933 385.126 591.98 384.838C592.107 384.059 592.455 382.958 593.085 381.624C594.339 378.971 596.498 375.833 599.282 373.151C602.072 370.463 605.318 368.395 608.709 367.586ZM618.388 387.577C620.78 385.548 622.945 383.727 624.957 382.264C624.895 382.547 624.824 382.832 624.746 383.118C623.305 388.419 619.385 393.691 616.108 396.917C614.221 398.775 613.09 399.759 612.176 400.182C611.81 400.351 611.596 400.369 611.452 400.358C611.298 400.347 610.987 400.285 610.46 399.951C610.449 399.944 610.439 399.938 610.429 399.932C610.315 399.864 610.207 399.8 610.246 399.255C610.303 398.461 610.716 397.24 611.607 395.678C613.359 392.605 616.295 389.353 618.388 387.577Z" fill="#F03F94"/>
<path d="M202.521 560.271C192.359 577.467 177.789 615.186 194.36 642.075L211.601 674.173C212.34 675.548 213.409 676.705 214.747 677.509C229.908 686.615 262.137 702.017 284.834 699.33C314.537 695.812 334.077 676.662 339.744 656.144C344.109 640.343 363.069 591.281 373.02 566.139C373.746 564.305 375.066 562.8 376.668 561.651C382.455 557.499 390.565 549.55 390.16 541.048C389.691 531.199 395.697 452.397 398.758 414.227C398.888 411.752 396.882 406.567 387.815 405.629C376.481 404.457 368.274 426.929 365.538 437.676C363.35 446.274 353.423 473.697 348.733 486.333C347.496 490.567 345.02 499.856 345.02 503.139C345.02 506.421 333.296 519.748 327.434 526.001L225.821 608.269" stroke="#651A3E" stroke-width="6" stroke-linecap="round" stroke-linejoin="round"/>
<path d="M594.168 567.037C604.329 584.233 610.582 625.856 601.599 642.075L584.357 674.173C583.619 675.548 582.55 676.705 581.212 677.509C566.051 686.615 533.821 702.017 511.124 699.33C481.422 695.812 461.881 676.662 456.214 656.144C451.85 640.343 432.89 591.281 422.938 566.139C422.212 564.305 420.892 562.8 419.29 561.651C413.503 557.499 405.394 549.55 405.799 541.048C406.268 531.199 400.262 452.397 397.201 414.227C397.07 411.752 399.077 406.567 408.144 405.629C419.477 404.457 427.684 426.929 430.42 437.676C432.609 446.274 442.536 473.697 447.225 486.333C448.463 490.567 450.938 499.856 450.938 503.139C450.938 506.421 462.663 519.748 468.525 526.001L570.138 608.269" stroke="#651A3E" stroke-width="6" stroke-linecap="round" stroke-linejoin="round"/>
<path d="M257.672 581.498C204.588 571.414 172.064 539.033 159.031 520.225C156.673 516.821 157.408 512.293 160.396 509.426C164.283 505.696 168.644 501.414 173.257 496.758M293.041 379.836C277.278 383.027 243.329 395.703 233.637 420.872C229.618 431.308 219.256 445.599 206.928 460.225" stroke="#651A3E" stroke-width="6" stroke-linecap="round" stroke-linejoin="round"/>
<path d="M534.848 578.927C587.159 568.989 613.649 562.711 625.681 549.722C628.442 546.741 627.703 542.215 624.963 539.216C616.957 530.453 606.405 516.867 596.703 500.097M571.062 435.351C572.343 441.875 575.562 455.909 578.195 459.86" stroke="#651A3E" stroke-width="6" stroke-linecap="round" stroke-linejoin="round"/>
<path d="M398.172 418.331C393.287 417.94 384.102 416.767 377.654 447.252" stroke="#651A3E" stroke-width="6" stroke-linecap="round" stroke-linejoin="round"/>
<path d="M397.787 418.331C402.672 417.94 411.856 416.767 418.305 447.252" stroke="#651A3E" stroke-width="6" stroke-linecap="round" stroke-linejoin="round"/>
<path d="M397.195 452.333C391.072 450.769 377.419 453.818 371.792 478.518" stroke="#651A3E" stroke-width="6" stroke-linecap="round" stroke-linejoin="round"/>
<path d="M398.764 452.333C404.887 450.769 418.539 453.818 424.167 478.518" stroke="#651A3E" stroke-width="6" stroke-linecap="round" stroke-linejoin="round"/>
<path d="M255.914 581.498C260.473 562.869 269.28 521.195 268.029 503.53" stroke="#651A3E" stroke-width="6" stroke-linecap="round" stroke-linejoin="round"/>
<path d="M533.568 577.83C526.077 554.641 512.33 508.493 516.394 498.644" stroke="#651A3E" stroke-width="6" stroke-linecap="round" stroke-linejoin="round"/>
<path d="M385.47 374.364C390.225 376.644 402.94 379.835 415.759 374.364C428.577 368.892 450.411 356.191 459.726 350.524C466.686 346.289 474.381 325.841 479.61 296.348M323.238 293.604C324.406 301.91 325.893 310.145 327.755 317.564C330.871 329.98 335.489 341.924 340.975 346.279L351.766 355.973" stroke="#651A3E" stroke-width="6" stroke-linecap="round" stroke-linejoin="round"/>
<path d="M391.333 325.316C397.195 320.235 406.34 320.939 410.873 325.316" stroke="#651A3E" stroke-width="6" stroke-linecap="round" stroke-linejoin="round"/>
<path d="M347.756 270.211C354.205 268.713 368.938 268.531 376.286 279.786" stroke="#651A3E" stroke-width="6" stroke-linecap="round" stroke-linejoin="round"/>
<path d="M460.898 270.211C454.45 268.713 439.716 268.531 432.368 279.786" stroke="#651A3E" stroke-width="6" stroke-linecap="round" stroke-linejoin="round"/>
<path d="M362.021 246.957C364.366 246.801 381.236 243.114 389.378 241.29" stroke="#651A3E" stroke-width="6" stroke-linecap="round" stroke-linejoin="round"/>
<path d="M446.047 248.911C443.702 248.755 426.832 245.068 418.69 243.244" stroke="#651A3E" stroke-width="6" stroke-linecap="round" stroke-linejoin="round"/>
<path d="M325.48 318.086C314.602 317.76 291.947 309.293 288.352 278.027C283.857 238.945 300.076 235.233 319.031 258.877" stroke="#651A3E" stroke-width="6" stroke-linecap="round" stroke-linejoin="round"/>
<path d="M477.313 318.086C488.19 317.76 510.845 309.293 514.44 278.027C518.935 238.945 502.716 235.233 483.761 258.877" stroke="#651A3E" stroke-width="6" stroke-linecap="round" stroke-linejoin="round"/>
<path d="M347.365 198.301C358.288 245.532 327.334 249.322 309.711 245.208C309.144 245.076 308.609 244.871 308.064 244.667C305.235 243.608 298.947 242.292 294.336 245.136" stroke="#651A3E" stroke-width="6" stroke-linecap="round" stroke-linejoin="round"/>
<path d="M361.63 155.896C353.162 152.705 334.576 155.896 333.882 169.77C332.68 193.806 344.629 200.84 367.492 200.254" stroke="#651A3E" stroke-width="6" stroke-linecap="round" stroke-linejoin="round"/>
<path d="M378.436 181.69C369.903 189.898 359.95 207.641 386.056 224.68C418.69 245.98 450.737 221.554 455.036 193.61C453.798 206.312 455.036 250.279 484.543 255.164" stroke="#651A3E" stroke-width="6" stroke-linecap="round" stroke-linejoin="round"/>
<path d="M331.851 134.482C326.39 141.633 321.589 149.601 317.178 157.969C315.978 160.245 313.879 161.909 311.422 162.675C274.512 174.19 271.941 204.313 278.307 228.492" stroke="#651A3E" stroke-width="6" stroke-linecap="round" stroke-linejoin="round"/>
<path d="M471.646 174.07C492.75 170.878 528.194 182.698 512.717 250.075" stroke="#651A3E" stroke-width="6" stroke-linecap="round" stroke-linejoin="round"/>
<path d="M301.835 323.753C307.436 333.914 311.527 362.757 283.075 396.836C247.511 439.435 254.546 461.516 270.96 470.701C287.374 479.885 307.306 473.632 304.57 448.229C301.835 422.825 302.421 420.09 308.088 414.423C313.755 408.756 342.453 383.962 333.659 335.305" stroke="#651A3E" stroke-width="6" stroke-linecap="round" stroke-linejoin="round"/>
<path d="M306.59 416.696C311.28 417.933 319.5 422.591 318.249 431.815C316.686 443.344 311.019 456.827 321.571 464.839C330.013 471.248 337.986 469.724 340.917 468.161C344.564 466.272 351.955 463.563 354.144 470.285" stroke="#651A3E" stroke-width="6" stroke-linecap="round" stroke-linejoin="round"/>
<path d="M497.514 327.662C491.912 337.823 490.557 362.757 519.009 396.836C554.573 439.436 547.538 461.517 531.124 470.701C514.71 479.885 494.778 473.632 497.514 448.229C500.249 422.826 499.663 420.09 493.996 414.423C488.329 408.756 459.604 386.871 468.398 338.214" stroke="#651A3E" stroke-width="6" stroke-linecap="round" stroke-linejoin="round"/>
<path d="M244.385 375.341C186.153 394.1 180.877 434.55 228.947 429.86" stroke="#651A3E" stroke-width="6" stroke-linecap="round" stroke-linejoin="round"/>
<path d="M554.303 377.686C597.489 391.598 608.236 439.631 568.373 434.55C559.71 432.726 541.717 425.467 531.556 413.587" stroke="#651A3E" stroke-width="6" stroke-linecap="round" stroke-linejoin="round"/>
<path d="M347.561 352.478C343.327 361.402 341.347 385.151 350.101 397.032C361.044 411.883 361.826 422.044 344.63 422.044C334.463 422.044 323.642 407.585 320.125 401.332" stroke="#651A3E" stroke-width="6" stroke-linecap="round" stroke-linejoin="round"/>
<path d="M455.104 353.412C459.338 362.336 456.56 381.829 447.806 393.71C436.863 408.561 437.327 417.941 454.523 417.941C464.69 417.941 470.669 403.285 473.795 389.411" stroke="#651A3E" stroke-width="6" stroke-linecap="round" stroke-linejoin="round"/>
<path d="M343.457 422.044C347.561 429.274 356.667 444.36 360.262 446.861" stroke="#651A3E" stroke-width="6" stroke-linecap="round" stroke-linejoin="round"/>
<path d="M434.127 449.401C438.556 443.148 449.213 428.141 456.404 418.136" stroke="#651A3E" stroke-width="6" stroke-linecap="round" stroke-linejoin="round"/>
<path d="M445.265 474.414C447.741 473.111 454.293 471.287 460.703 474.414C468.715 478.322 481.221 474.805 480.048 453.896C478.876 432.987 471.943 420.459 494.61 415.964" stroke="#651A3E" stroke-width="6" stroke-linecap="round" stroke-linejoin="round"/>
<path d="M135.802 380.847C137.473 374.06 145.418 362.367 163.834 369.884" stroke="#651A3E" stroke-width="6" stroke-linecap="round" stroke-linejoin="round"/>
<path d="M145.825 352.345C149.74 355.738 158.478 359.643 162.112 348.117" stroke="#651A3E" stroke-width="6" stroke-linecap="round" stroke-linejoin="round"/>
<path d="M117.442 368.415C122.445 369.763 132.011 369.471 130.26 357.513" stroke="#651A3E" stroke-width="6" stroke-linecap="round" stroke-linejoin="round"/>
<path d="M135.959 338.564C140.448 339.294 150.649 340.318 155.535 338.564" stroke="#651A3E" stroke-width="6" stroke-linecap="round" stroke-linejoin="round"/>
<path d="M128.878 344.358C126.37 348.152 120.203 356.341 115.6 358.742" stroke="#651A3E" stroke-width="6" stroke-linecap="round" stroke-linejoin="round"/>
</svg>
