<svg width="114" height="172" viewBox="0 0 114 172" fill="none" xmlns="http://www.w3.org/2000/svg">
<path fill-rule="evenodd" clip-rule="evenodd" d="M69.8062 93.1612C69.1959 93.6276 68.4569 93.9558 67.6925 93.88C67.3882 93.8499 67.0687 93.786 66.7806 93.6907C66.0032 93.4881 56.2388 85.6944 45.0863 76.4307C30.4207 64.2285 24.3346 58.8815 23.0293 57.0835C22.0094 55.7351 20.8284 53.4045 20.3409 52.0137C19.8537 50.541 19.4555 46.4476 19.4243 42.8855C19.3954 38.5045 18.9539 35.2711 18.0188 32.8579C17.1651 30.6083 15.7795 28.2373 14.2286 26.44C12.647 24.6713 9.78305 24.9715 8.53198 26.9876C3.12312 35.704 0 45.9873 0 57C0 88.4802 25.5198 114 57 114L101.531 114C108.418 114 114 108.418 114 101.531L114 57C114 25.5198 88.4802 -3.20316e-06 57 0C45.9263 -4.00395e-07 35.5901 3.15783 26.8428 8.62212C24.8145 9.88917 24.5167 12.775 26.2995 14.3691C28.1376 15.9609 30.4267 17.3467 32.7174 18.1593C35.1306 19.0944 38.364 19.5359 42.745 19.5648C46.3072 19.5959 50.3186 19.9944 51.6685 20.4411C53.0185 20.8877 55.3902 22.0277 56.8615 23.0063C58.3328 23.9849 60.0485 25.4542 60.5786 26.2307C61.1496 27.0481 68.1279 35.5044 76.086 45.0227C84.044 54.541 91.2674 63.2423 92.1242 64.3455C92.9401 65.4078 93.6318 67.0028 93.6293 67.9036C93.6269 68.8043 93.0911 70.0751 92.3931 70.7731C91.6951 71.471 90.4244 72.0069 89.5236 72.0093C88.2578 72.0128 87.7607 71.5178 78.8519 62.6455L78.8511 62.6448L77.4335 61.2331L52.934 36.7336C51.581 35.3805 49.3812 35.3866 48.0206 36.7471C46.6601 38.1076 46.654 40.3074 48.0071 41.6605L72.5066 66.16C74.1819 67.8596 75.6348 69.3199 76.8756 70.5669L76.8766 70.5678C80.5894 74.2995 82.4034 76.1226 82.5909 76.737C82.8346 77.4733 82.9543 78.5785 82.8707 79.2339C82.787 79.8892 82.1289 80.9556 81.472 81.6125C80.8151 82.2694 79.7487 82.9275 79.0934 83.0112C78.438 83.0949 77.3328 82.9751 76.5965 82.7314C75.8458 82.5023 73.2228 79.915 67.575 74.3441L67.5744 74.3435L67.4165 74.1878C66.9445 73.7222 66.4517 73.2361 65.9374 72.7293L41.4379 48.2297C40.0848 46.8767 37.885 46.8827 36.5245 48.2432C35.164 49.6038 35.1579 51.8036 36.511 53.1566L61.0105 77.6562L62.2998 78.9619C71.457 88.2353 71.8716 88.6552 71.8688 89.6641C71.8663 90.5649 71.3716 91.7946 70.7149 92.3696C70.4314 92.6531 70.1098 92.9291 69.8062 93.1612ZM102.038 101.809C105.284 98.5626 105.284 93.2994 102.038 90.0532C98.7916 86.8069 93.5284 86.8069 90.2822 90.0532C87.036 93.2994 87.036 98.5626 90.2822 101.809C93.5284 105.055 98.7916 105.055 102.038 101.809Z" fill="url(#paint0_linear_2702_15155)"/>
<path d="M14.9259 165.807V148.77H9.6474V145H24.4497V148.77H19.2549V165.807H14.9259Z" fill="white"/>
<path d="M29.3424 166.142C28.2439 166.142 27.2943 165.965 26.4937 165.611C25.6931 165.258 25.0786 164.755 24.6504 164.103C24.2222 163.433 24.008 162.642 24.008 161.729C24.008 160.873 24.2035 160.119 24.5945 159.467C24.9855 158.797 25.5814 158.238 26.382 157.791C27.2012 157.345 28.216 157.028 29.4262 156.842L34.0903 156.088V159.16L30.1803 159.858C29.5845 159.97 29.1283 160.165 28.8118 160.445C28.4953 160.705 28.337 161.087 28.337 161.59C28.337 162.055 28.5139 162.418 28.8676 162.679C29.2214 162.94 29.659 163.07 30.1803 163.07C30.8692 163.07 31.4743 162.921 31.9957 162.623C32.517 162.325 32.9173 161.925 33.1966 161.422C33.4945 160.901 33.6435 160.333 33.6435 159.718V155.753C33.6435 155.175 33.4107 154.691 32.9453 154.3C32.4984 153.909 31.884 153.714 31.102 153.714C30.3572 153.714 29.6962 153.919 29.119 154.328C28.5604 154.738 28.1508 155.278 27.8901 155.948L24.5387 154.356C24.8366 153.5 25.3114 152.764 25.9631 152.15C26.6147 151.535 27.3967 151.061 28.3091 150.725C29.2214 150.39 30.2175 150.223 31.2975 150.223C32.5822 150.223 33.7179 150.455 34.7048 150.921C35.6916 151.386 36.455 152.038 36.9949 152.876C37.5535 153.695 37.8328 154.654 37.8328 155.753V165.807H33.9228V163.349L34.8723 163.182C34.4255 163.852 33.9321 164.411 33.3921 164.857C32.8522 165.286 32.247 165.602 31.5767 165.807C30.9065 166.03 30.1617 166.142 29.3424 166.142Z" fill="white"/>
<path d="M46.8819 166.142C45.2062 166.142 43.7446 165.751 42.4971 164.969C41.2683 164.168 40.4304 163.098 39.9835 161.757L43.0557 160.305C43.4467 161.124 43.9773 161.767 44.6476 162.232C45.3179 162.698 46.0627 162.93 46.8819 162.93C47.4778 162.93 47.9339 162.809 48.2505 162.567C48.567 162.325 48.7252 161.99 48.7252 161.562C48.7252 161.338 48.6694 161.152 48.5577 161.003C48.446 160.836 48.2784 160.687 48.055 160.556C47.8315 160.426 47.5522 160.314 47.2171 160.221L44.6197 159.495C43.3722 159.141 42.4133 158.573 41.743 157.791C41.0728 156.991 40.7376 156.05 40.7376 154.971C40.7376 154.021 40.9797 153.192 41.4638 152.485C41.9479 151.777 42.6275 151.228 43.5026 150.837C44.3777 150.427 45.3831 150.223 46.5189 150.223C48.0084 150.223 49.3117 150.576 50.4289 151.284C51.5647 151.973 52.3653 152.95 52.8308 154.217L49.7307 155.669C49.5072 155.036 49.0976 154.533 48.5018 154.161C47.9246 153.77 47.2636 153.574 46.5189 153.574C45.9789 153.574 45.5507 153.686 45.2341 153.909C44.9362 154.133 44.7873 154.44 44.7873 154.831C44.7873 155.036 44.8431 155.222 44.9549 155.39C45.0666 155.557 45.2435 155.706 45.4855 155.836C45.7462 155.967 46.0627 156.088 46.4351 156.199L48.8649 156.926C50.131 157.298 51.0992 157.866 51.7695 158.629C52.4398 159.374 52.7749 160.296 52.7749 161.394C52.7749 162.344 52.5236 163.172 52.0208 163.88C51.5367 164.587 50.8571 165.146 49.982 165.556C49.1069 165.947 48.0736 166.142 46.8819 166.142Z" fill="white"/>
<path d="M61.2555 166.142C59.5797 166.142 58.1181 165.751 56.8706 164.969C55.6418 164.168 54.8039 163.098 54.357 161.757L57.4292 160.305C57.8202 161.124 58.3509 161.767 59.0211 162.232C59.6914 162.698 60.4362 162.93 61.2555 162.93C61.8513 162.93 62.3074 162.809 62.624 162.567C62.9405 162.325 63.0988 161.99 63.0988 161.562C63.0988 161.338 63.0429 161.152 62.9312 161.003C62.8195 160.836 62.6519 160.687 62.4285 160.556C62.205 160.426 61.9257 160.314 61.5906 160.221L58.9932 159.495C57.7457 159.141 56.7868 158.573 56.1166 157.791C55.4463 156.991 55.1111 156.05 55.1111 154.971C55.1111 154.021 55.3532 153.192 55.8373 152.485C56.3214 151.777 57.001 151.228 57.8761 150.837C58.7512 150.427 59.7566 150.223 60.8924 150.223C62.3819 150.223 63.6853 150.576 64.8024 151.284C65.9382 151.973 66.7388 152.95 67.2043 154.217L64.1042 155.669C63.8808 155.036 63.4711 154.533 62.8753 154.161C62.2981 153.77 61.6371 153.574 60.8924 153.574C60.3524 153.574 59.9242 153.686 59.6077 153.909C59.3097 154.133 59.1608 154.44 59.1608 154.831C59.1608 155.036 59.2167 155.222 59.3284 155.39C59.4401 155.557 59.617 155.706 59.859 155.836C60.1197 155.967 60.4362 156.088 60.8086 156.199L63.2384 156.926C64.5045 157.298 65.4727 157.866 66.143 158.629C66.8133 159.374 67.1484 160.296 67.1484 161.394C67.1484 162.344 66.8971 163.172 66.3944 163.88C65.9103 164.587 65.2307 165.146 64.3555 165.556C63.4804 165.947 62.4471 166.142 61.2555 166.142Z" fill="white"/>
<path d="M76.9975 165.975C75.1542 165.975 73.7205 165.481 72.6964 164.494C71.691 163.489 71.1883 162.092 71.1883 160.305V154.189H68.6188V150.558H68.7585C69.5405 150.558 70.1363 150.362 70.5459 149.971C70.9742 149.58 71.1883 148.994 71.1883 148.212V147.095H75.3776V150.558H78.9525V154.189H75.3776V160.026C75.3776 160.547 75.4707 160.985 75.6569 161.338C75.8431 161.673 76.1317 161.925 76.5227 162.092C76.9137 162.26 77.3978 162.344 77.975 162.344C78.1053 162.344 78.2543 162.334 78.4218 162.316C78.5894 162.297 78.7663 162.279 78.9525 162.26V165.807C78.6732 165.844 78.3567 165.881 78.0029 165.919C77.6491 165.956 77.314 165.975 76.9975 165.975Z" fill="white"/>
<path d="M83.7813 172.007C83.3345 172.007 82.8969 171.97 82.4687 171.895C82.0591 171.821 81.696 171.7 81.3795 171.532V168.097C81.6401 168.172 81.9473 168.237 82.3011 168.293C82.6549 168.348 82.9807 168.376 83.2786 168.376C84.0979 168.376 84.6844 168.181 85.0381 167.79C85.3919 167.399 85.6805 166.952 85.9039 166.449L86.9373 164.075L86.8814 167.566L80.1785 150.558H84.6751L89.1157 162.651H87.44L91.8807 150.558H96.3772L89.8419 167.231C89.4323 168.293 88.9296 169.177 88.3337 169.885C87.7379 170.592 87.0583 171.123 86.2949 171.477C85.5502 171.83 84.7123 172.007 83.7813 172.007Z" fill="white"/>
<path d="M100.443 159.383L100.163 145H104.353L104.073 159.383H100.443ZM100.163 165.807V161.618H104.353V165.807H100.163Z" fill="white"/>
<defs>
<linearGradient id="paint0_linear_2702_15155" x1="57" y1="0" x2="57" y2="114" gradientUnits="userSpaceOnUse">
<stop offset="0.454873" stop-color="white"/>
<stop offset="1" stop-color="white" stop-opacity="0.74"/>
</linearGradient>
</defs>
</svg>
